<svg xmlns="http://www.w3.org/2000/svg" xmlns:xlink="http://www.w3.org/1999/xlink" width="400" height="220" viewBox="0 0 400 220">
  <defs>
    <filter id="cloud-11" x="9.271" y="8.385" width="344.625" height="209.186" filterUnits="userSpaceOnUse">
      <feOffset dy="3" input="SourceAlpha"/>
      <feGaussianBlur stdDeviation="3" result="blur"/>
      <feFlood flood-opacity="0.161"/>
      <feComposite operator="in" in2="blur"/>
      <feComposite in="SourceGraphic"/>
    </filter>
    <clipPath id="clip-card03">
      <rect width="400" height="220"/>
    </clipPath>
  </defs>
  <g id="card03" clip-path="url(#clip-card03)">
    <rect width="400" height="220" fill="#fff"/>
    <g id="Group_7" data-name="Group 7" transform="translate(-2079.744 219.453)">
      <g id="Group_6" data-name="Group 6" transform="translate(1660 -460)">
        <path id="Path_7" data-name="Path 7" d="M0,0H1238.744V379.411s-70.838-33.685-233.052-6.139-239.743,116.3-414.717,116.3c-153.6,0-258.271-84.3-373.4-110.165C101.161,353.257,0,379.411,0,379.411Z" transform="translate(0 0)" fill="#2f54eb"/>
        <path id="Path_8" data-name="Path 8" d="M0,2.931s167.784-47.95,263.869-12.8C367.319,24.462,455.251,90.476,613.012,71.992s300-116.185,437.075-150.513,188.658-15.843,188.658-15.843v408.7H0Z" transform="translate(0 354.387)" fill="#c5e7ff" opacity="0.18"/>
      </g>
    </g>
    <g id="Group_227" data-name="Group 227" transform="translate(-3893 -1011)">
      <g id="Group_223" data-name="Group 223" transform="translate(433.11 -58.751)">
        <g transform="matrix(1, 0, 0, 1, 3459.89, 1069.75)" filter="url(#cloud-11)">
          <path id="cloud-11-2" data-name="cloud-11" d="M422.125,294.358c0,27.751-22.5,40.828-50.25,40.828v-.393H158.313c-34.695,0-62.813-17.912-62.813-52.605a62.812,62.812,0,0,1,50.372-61.561c0-.417-.122-.81-.122-1.252a75.169,75.169,0,0,1,142.383-33.86,62.182,62.182,0,0,1,83.668,58.2h.074v.393A50.252,50.252,0,0,1,422.125,294.358Z" transform="translate(-77.23 -129.62)" fill="#fff"/>
        </g>
        <path id="cloud-11-3" data-name="cloud-11" d="M331.019,252.418c0,20.01-16.224,29.44-36.234,29.44v-.283H140.792c-25.017,0-45.292-12.916-45.292-37.932a45.292,45.292,0,0,1,36.322-44.39c0-.3-.088-.584-.088-.9A54.2,54.2,0,0,1,234.4,173.935a44.837,44.837,0,0,1,60.33,41.966h.053v.283A36.235,36.235,0,0,1,331.019,252.418Z" transform="translate(3510.922 956.092)" fill="#fff" opacity="0.53"/>
        <g id="Group_221" data-name="Group 221" transform="translate(3521.805 1203.506)">
          <g id="Group_217" data-name="Group 217" transform="translate(0 12.388)">
            <path id="Path_3520" data-name="Path 3520" d="M442.647,157.76v-3.376h9.638V137.948a4.439,4.439,0,0,1,1.775-3.282l-6.155-.444v18.5h-9.585l.025,18.92,4.3-1.361V159.487h4.36v12.149l4.3-1.361V159.487h3.307c0-1.576.639-1.727.639-1.727Zm3.146-24.382H427.318V150.6h18.476Zm-4.375,15.529h-9.774V145.42h9.774Zm0-5.18h-9.774V140.2h9.774Zm0-5.2h-9.774v-3.5h9.774Zm-16.306,14.188v-17.7l-4.609-.825s.225,7.146.225,9.023v3.019c0,2.341-.332,8.15-.332,8.15h10.657v3.376s-8.71-.016-8.978,0a28.721,28.721,0,0,1-4.171-.284,3.2,3.2,0,0,1,.527,2.059c.761-.073,1.351-.025,2.737-.048H422.5v2.5a19.233,19.233,0,0,1-3.121,10.349s1.659-.97,2.75-1.673a9.362,9.362,0,0,0,4.721-8.316v-2.862h4.2v12.149l4.3-1.361V152.716Z" transform="translate(-417.904 -132.198)" fill="#3e3a39"/>
            <path id="Path_3521" data-name="Path 3521" d="M468.232,162.793c-1.093-1.684-4.55-3.419-6.516-4.112v-1.707l6.4-.009a3.456,3.456,0,0,1,.659-1.673l-7.058-.014v-.38c.078-2.532,1.5-3.044,1.5-3.044l-5.756-1.195v4.619h-1.736s-4.448-.137-5.028-.216a3.862,3.862,0,0,1,.493,1.9c.014.009,1.6.024,3.775.024a25.072,25.072,0,0,1-.473,2.707c-1.166,5.112-4.512,9.438-6.258,11.487,0,0,1.893-.839,3.141-1.463a11.155,11.155,0,0,0,6.087-7.41v9.756l4.258-1.337V160.193a16.319,16.319,0,0,1,3.239,5.482c.18.473.336.971.473,1.444.116.214.243.19.482-.186a15.427,15.427,0,0,1,2.405-3.507C468.511,163.246,468.393,163.051,468.232,162.793Zm16.481-15.817c-1.907,0-8.287.282-8.287.282s-.727-.009-1.634-.054v-7.676a91.6,91.6,0,0,0,10.589-1.362,21.674,21.674,0,0,1,3.687-.341,37.1,37.1,0,0,0-3.414-4.491c-.775-.889-.961-.43-1.95-.03-.957.38-8.985,4.132-8.985,4.132s-2.848-1.284-3.989-1.853c-.191-.025-.293.107-.341.37V149c0,5.96-1.18,16.14-3.312,21.343-.664,1.234-.927,1.937-.825,2.093.1.18.288.18.586,0q5.59-4.454,7.107-14.363c.375-2.571.634-6.19.775-9.1,1.385.009,2.887.009,4.7,0v23.084l4.283-1.327V148.96c3.077-.009,4.6-.02,4.6-.02a4.64,4.64,0,0,1,1.063-2.614C488.6,146.483,485.358,146.976,484.713,146.976Zm-16.369.863-5.38-.005c-.493.62-.955,1.18-1.35,1.7,3.282-.01,6.071-.03,6.062-.03A3.53,3.53,0,0,1,468.345,147.838Zm-12.194,1.693c-.248-.518-.512-1.1-.82-1.707-1.023-.044-4.2-.146-4.687-.225a4.4,4.4,0,0,1,.493,1.9C451.162,149.531,453.371,149.531,456.151,149.531Zm13.042-11.057a3.256,3.256,0,0,1,.659-1.669H462.4v-.093a3.829,3.829,0,0,1,1.191-3.034l-5.458-1.2v4.3c-1.752-.043-6.248-.088-7.062-.209a6.531,6.531,0,0,1,.5,1.912ZM458.41,150.1v-.005h0Zm.273.077a.605.605,0,0,0,.107-.093c1.161-1.452,7.3-9.062,9.11-11.29h0a.05.05,0,0,0,0-.054.07.07,0,0,0-.088-.02c-.009,0-.014.01-.014.01h-.02c-2.136,1.779-7.584,5.559-13.315,2.755H454.4c-.034.029-.063.059-.048.082v.014c.518,1.108,3.385,7.122,4.053,8.512C458.429,150.185,458.575,150.233,458.683,150.174Z" transform="translate(-408.592 -132.475)" fill="#df0011"/>
          </g>
          <path id="Path_3522" data-name="Path 3522" d="M498.695,145.486a5.845,5.845,0,0,1,.24-1.026,3.686,3.686,0,0,1,.62-1.016H490.51a5.7,5.7,0,0,1-1.334-.116s.051.367.154.933a5.3,5.3,0,0,1,.043,1.225Zm-13.876,12.775a11.068,11.068,0,0,1-1.732-.135,6.38,6.38,0,0,1,.27,1.073c.111.65.242,1.408.242,1.408h12.141c-.227.614-.718,1.923-1.25,3.253-.458,1.145-.829,1.9-1.042,2.312-2.683.146-4.636.242-4.981.233-1.816-.05-2.775-.144-2.775-.144s1.289,5.2,1.355,5.464a.456.456,0,0,0,.612.281c.28-.078,3.409-1.217,6.575-2.005,2.6-.647,14.954-2.874,19.27-3.647a16.319,16.319,0,0,1,1.5,2.687c.223.539.506,1.477.7,1.936a.418.418,0,0,0,.681.174c.227-.188,3.075-2.423,3.645-2.941.224-.208.089-.431-.1-.729-1.257-1.937-6.236-4.6-8.5-5.4l-.655.77s.834.924,1.8,2.208c-3.191.192-9.846.591-15.373.906.595-.643,1.586-1.746,2.451-2.879a20.676,20.676,0,0,0,1.668-2.476h19.789a7.092,7.092,0,0,1,.257-1.179,4.3,4.3,0,0,1,.665-1.167h-37.22Zm4.511-9.607a5.3,5.3,0,0,1,.043,1.225h9.322a5.845,5.845,0,0,1,.24-1.026,3.686,3.686,0,0,1,.62-1.016H490.51a5.7,5.7,0,0,1-1.334-.116S489.226,148.089,489.33,148.655Zm27.679-10.83v1.157H504.783v-2.647h12.556a5.474,5.474,0,0,1,.258-1.026,3.705,3.705,0,0,1,.665-1.016H488.6a12.766,12.766,0,0,1-1.732-.116,4.978,4.978,0,0,1,.271.933c.111.566.242,1.225.242,1.225h12.966v2.647H488.077v-1.129l-4.266-.825a14.8,14.8,0,0,1,.194,1.846l-.055-.008s.027.067.061.163c.014.311.025.644.025,1.016v4.051a29.44,29.44,0,0,1-.218,4.066l4.26-1.533v-5.6h12.266v10.851l4.44-1.327v-9.525h12.225v7.905l4.1-1.533v-5.844a4.447,4.447,0,0,1,1.776-3.283Zm-11.017,10.83a5.334,5.334,0,0,1,.044,1.225h9.321a5.842,5.842,0,0,1,.241-1.026,3.721,3.721,0,0,1,.62-1.016h-9.045a5.694,5.694,0,0,1-1.333-.116S505.888,148.089,505.991,148.655ZM487.8,154.783c.111.566.242,1.225.242,1.225h28.43a5.472,5.472,0,0,1,.257-1.026c.182-.5.869-1.759.869-1.759a13.3,13.3,0,0,1-3.951.744H489.26a12.768,12.768,0,0,1-1.732-.116A4.987,4.987,0,0,1,487.8,154.783Zm27.557-9.3a5.843,5.843,0,0,1,.241-1.026,3.722,3.722,0,0,1,.62-1.016h-9.045a5.694,5.694,0,0,1-1.333-.116s.05.367.153.933a5.334,5.334,0,0,1,.044,1.225Z" transform="translate(-397.888 -119.565)" fill="#3e3a39"/>
        </g>
      </g>
      <path id="Path_3572" data-name="Path 3572" d="M15.472-14.671c-1.668.529-3.3,1.017-4.883,1.506V-19.8h3.174a1.984,1.984,0,0,0,.163.936,2.272,2.272,0,0,0,3.54.529c.855-.936,1.221-2.726.773-5.046h8.993v6.755c0,3.988.285,4.435,4.029,4.435H34.72c3.174,0,4.029-.692,4.029-2.157,0-.61-.244-.855-1.384-1.3l-.244-.041h-.366a2.692,2.692,0,0,1-.936.122H31.953c-.692,0-.732,0-.732-1.058v-6.755h2.726c-.2,1.546-.448,3.622-.651,4.842l.488.244c1.261-1.1,3.133-3.093,4.273-4.313a2.409,2.409,0,0,0,1.546-.448l-3.825-3.7-2.157,2.2H27.843c2.279-1.017,2.686-5.29-4.883-6.185l-.285.244a9.871,9.871,0,0,1,2.157,5.371,4.808,4.808,0,0,0,.936.57H17.955a11.2,11.2,0,0,0-.732-2.035h-.57a5.858,5.858,0,0,1-1.465,4.517,2.851,2.851,0,0,0-.407.326c-1.1-1.139-2.2-2.2-2.2-2.2l-1.872,2.971h-.122v-7.854c1.017-.163,1.424-.529,1.506-1.139l-5.819-.57v9.563H1.19l.285,1.18h4.8v7.854c-2.4.692-4.354,1.221-5.412,1.465l1.75,5.371a1.81,1.81,0,0,0,1.058-1.18c.9-.529,1.79-1.1,2.6-1.587V1.647c0,.488-.163.692-.773.692-.773,0-4.191-.244-4.191-.244V2.7A4.463,4.463,0,0,1,4.364,4.211a7.308,7.308,0,0,1,.773,3.418c4.842-.448,5.453-2.319,5.453-5.575v-12.7c2.035-1.424,3.744-2.645,5.046-3.581Zm-.326,4.842c7.813-3.337,9.2-7.609,9.929-10.824a1.39,1.39,0,0,0,1.546-.9l-5.493-1.3c-.163,3.825-.977,8.1-6.389,12.411ZM32.116,4.455h-3.7V-7.1h7.528c.57,0,.977-.2,1.1-.651-1.668-1.506-4.476-3.662-4.476-3.662L30.122-8.241H16.164L16.49-7.1h7.325V4.455H12.909l.326,1.18H38.3c.61,0,1.017-.2,1.139-.651C37.65,3.4,34.72,1.077,34.72,1.077Zm27.142-21.4H55.595V-22.2h8.22c.57,0,1.017-.2,1.1-.651-1.546-1.465-4.191-3.581-4.191-3.581l-2.279,3.093H55.595v-5.209c1.058-.163,1.343-.57,1.465-1.18l-5.9-.57v6.958H47.579A31.187,31.187,0,0,0,49.45-26.8c.9-.041,1.384-.366,1.546-.9L45.178-29.32a54.253,54.253,0,0,1-2.93,11.435l.57.326A23.767,23.767,0,0,0,46.846-22.2H51.16v5.249H41.638l.326,1.18h9.2v4.72H47.9l-4.476-1.79V4.373h.651c1.709,0,3.581-.936,3.581-1.343V-9.91h3.5V7.547h.855c1.668,0,3.581-1.058,3.581-1.546V-9.91h3.54v8.79c0,.448-.122.651-.61.651C58-.469,56.49-.591,56.49-.591v.57a2.276,2.276,0,0,1,1.79,1.261,7.111,7.111,0,0,1,.407,2.93c4.273-.366,4.8-1.994,4.8-4.842V-9.136a2.99,2.99,0,0,0,1.668-.855l-4.476-3.3-1.953,2.238H55.595v-4.72h9.156c.57,0,1.017-.2,1.139-.651C64.262-17.885,61.577-20,61.577-20Zm11.475-8.912c.977-.163,1.3-.529,1.384-1.1l-5.493-.529V-1.4H67.4c1.546,0,3.337-.855,3.337-1.261Zm3.3-4.069V1.891c0,.529-.2.732-.855.732-.855,0-4.883-.244-4.883-.244v.57c1.953.285,2.808.773,3.418,1.465a5.547,5.547,0,0,1,.936,3.174c5.046-.448,5.7-2.238,5.7-5.371v-30.4c.977-.163,1.384-.529,1.506-1.139ZM93.968,2.7V-7.956h15.544V2.7ZM109.024-9.136H94.253l-5.331-2.075V7.547h.732c2.075,0,4.313-1.139,4.313-1.628V3.844h15.544V7.262h.814c1.668,0,4.191-.9,4.232-1.139V-6.98a3.177,3.177,0,0,0,1.872-.977l-5.005-3.866Zm-2.808-15.056a38.774,38.774,0,0,1,5.86,6.389c-8.871.326-17.376.57-22.828.651,5.209-2.726,11.109-6.877,14.242-10.173.936.081,1.465-.244,1.628-.692l-6.633-2.645c-1.913,3.906-7.976,10.743-12.167,12.981a6.864,6.864,0,0,1-1.628.488L86.318-11.7a2.413,2.413,0,0,0,1.221-.855c10.58-1.506,19.288-2.971,25.27-4.191a20.418,20.418,0,0,1,2.279,4.354c5.209,3.174,8.016-7.854-8.5-12.086Z" transform="translate(4083 1189.575)" fill="#3e3a39"/>
      <g id="undraw_fill_forms_yltj" transform="translate(4015.622 1066.767)">
        <path id="Path_3610" data-name="Path 3610" d="M464.762,398.128s10.28.5,10.9,4.087-12.014.372-12.014.372Z" transform="translate(-417.847 -365.129)" fill="#a0616a"/>
        <path id="Path_3611" data-name="Path 3611" d="M336.39,306.128s1.734.5,3.1,3.468a23.253,23.253,0,0,0,4.087,5.7L354.6,317.4l-1.858,5.573-10.527-1.362-6.564-3.716Z" transform="translate(-305.7 -284.524)" fill="#575a89"/>
        <path id="Path_3612" data-name="Path 3612" d="M336.39,306.128s1.734.5,3.1,3.468a23.253,23.253,0,0,0,4.087,5.7L354.6,317.4l-1.858,5.573-10.527-1.362-6.564-3.716Z" transform="translate(-305.7 -284.524)" opacity="0.1"/>
        <rect id="Rectangle_711" data-name="Rectangle 711" width="13.004" height="0.248" transform="translate(102.09 11.51)" fill="#3f3d56" stroke="#575a89" stroke-width="1"/>
        <rect id="Rectangle_712" data-name="Rectangle 712" width="41.242" height="0.248" transform="translate(50.692 11.51)" fill="#3f3d56" stroke="#575a89" stroke-width="1"/>
        <rect id="Rectangle_713" data-name="Rectangle 713" width="97.719" height="37.279" transform="translate(3.752 41.358)" fill="#89abf7"/>
        <path id="Path_3613" data-name="Path 3613" d="M115.793,107.406l1.115,7.06,7.679.372-.867-10.4Z" transform="translate(-101.451 -91.499)" fill="#ffb99a"/>
        <path id="Path_3614" data-name="Path 3614" d="M141.519,623.949l-.372,15.605h11.642l1.734-6.193,1.362,6.193h12.137s.248-17.834-1.115-17.958S141.519,623.949,141.519,623.949Z" transform="translate(-135.289 -560.917)" fill="#2f2e41"/>
        <circle id="Ellipse_779" data-name="Ellipse 779" cx="6.688" cy="6.688" r="6.688" transform="translate(10.131 4.389)" fill="#ffb99a"/>
        <path id="Path_3615" data-name="Path 3615" d="M130.762,329.031l3.468-17.091-4.583-22.665,10.554-3.96,5.175-.622,2.6-.486,1.857.486s7.431,1.858,7.8,3.22-1.486,12.509-1.486,12.509l-1.734,9.165,3.839,16.472s-15.977,5.449-27.247,2.972Z" transform="translate(-125.213 -265.317)" fill="#575a89"/>
        <path id="Path_3616" data-name="Path 3616" d="M82.293,243.934v4.582l14.613.02-13.87-1.506Z" transform="translate(-72.1 -213.722)" opacity="0.1"/>
        <path id="Path_3617" data-name="Path 3617" d="M72.159,327.558l18.347-2.624-18.347,5.2Z" transform="translate(-63.222 -284.69)" opacity="0.1"/>
        <path id="Path_3618" data-name="Path 3618" d="M293.379,248.934l-1.967,7.087,3.329-6.854Z" transform="translate(-255.32 -218.103)" opacity="0.1"/>
        <path id="Path_3619" data-name="Path 3619" d="M170.213,136.063l1.23-.492a8.39,8.39,0,0,0-6.149-2.585l1.006-1.108a4.278,4.278,0,0,0-4.7,1.6,21.826,21.826,0,0,0-3.383,4.755H156.9l.55,1.21-1.924,1.21,1.975-.217a6.765,6.765,0,0,0-.054,2.008,2.6,2.6,0,0,0,.951,1.7h0a27.3,27.3,0,0,0,1.525-3.649v1.231s1.23-1.108,1.23-1.846l.671.862.335-1.354,4.137,1.354-.671-1.108L168.2,140l-1.006-1.354s2.907,1.6,3.019,2.954a6.5,6.5,0,0,0,.963,2.637S173.455,137.91,170.213,136.063Z" transform="translate(-147.89 -131.694)" fill="#2f2e41"/>
        <rect id="Rectangle_714" data-name="Rectangle 714" width="47.559" height="49.664" transform="translate(28.894 29.097)" fill="#b5daff"/>
        <rect id="Rectangle_715" data-name="Rectangle 715" width="35.174" height="4.954" transform="translate(33.848 39.996)" fill="#2f54eb"/>
        <rect id="Rectangle_716" data-name="Rectangle 716" width="23.036" height="2.477" transform="translate(39.895 53.124)" fill="#2f54eb"/>
        <rect id="Rectangle_717" data-name="Rectangle 717" width="23.036" height="2.477" transform="translate(39.939 57.459)" fill="#2f54eb"/>
        <rect id="Rectangle_718" data-name="Rectangle 718" width="11.518" height="2.477" transform="translate(39.984 61.794)" fill="#2f54eb"/>
        <rect id="Rectangle_719" data-name="Rectangle 719" width="5.326" height="2.477" transform="translate(64.315 74.303)" fill="#2f54eb"/>
        <path id="Path_3620" data-name="Path 3620" d="M299.647,413.326s10.775-1.61,12.385.743-11.394,3.592-11.394,3.592Z" transform="translate(-274.159 -377.974)" fill="#ffb99a"/>
        <path id="Path_3621" data-name="Path 3621" d="M99.525,324.128h-.776a1.265,1.265,0,0,0-.861.335,10.456,10.456,0,0,0-2.945,5.61c-.867,4.211-2.353,12.385.991,13s25.266-2.353,25.266-2.353l-1.61-5.7-15.853.124a15.315,15.315,0,0,0-.248-4.459C102.993,328.958,99.525,324.128,99.525,324.128Z" transform="translate(-93.853 -300.294)" fill="#575a89"/>
        <circle id="Ellipse_780" data-name="Ellipse 780" cx="5.078" cy="5.078" r="5.078" transform="translate(45.614 6.556)" fill="#d0cde1"/>
        <circle id="Ellipse_781" data-name="Ellipse 781" cx="5.078" cy="5.078" r="5.078" transform="translate(68.774 6.556)" fill="#3f3d56"/>
        <path id="Path_3622" data-name="Path 3622" d="M840.349,194.031a5.2,5.2,0,1,1,5.2-5.2A5.2,5.2,0,0,1,840.349,194.031Zm0-10.156a4.954,4.954,0,1,0,4.954,4.954,4.954,4.954,0,0,0-4.954-4.954Z" transform="translate(-743.337 -177.196)" fill="#3f3d56"/>
        <path id="Path_3623" data-name="Path 3623" d="M1027.352,194.031a5.2,5.2,0,1,1,5.2-5.2A5.2,5.2,0,0,1,1027.352,194.031Zm0-10.156a4.954,4.954,0,1,0,4.954,4.954,4.954,4.954,0,0,0-4.954-4.954Z" transform="translate(-907.179 -177.196)" fill="#3f3d56"/>
        <path id="Path_3624" data-name="Path 3624" d="M388.074,51.433l-2.2-2.934.793-.595,1.515,2.02,6.965-6.965.7.7Z" transform="translate(-338.082 -37.638)" fill="#3f3d56"/>
        <rect id="Rectangle_720" data-name="Rectangle 720" width="101.136" height="0.345" transform="translate(2.043 78.501)" fill="#3f3d56"/>
      </g>
      <g id="Group_224" data-name="Group 224" transform="translate(202.268 -154.136)">
        <g id="Group_224-2" data-name="Group 224" transform="translate(3894.936 1257.939)" opacity="0.5">
          <circle id="Ellipse_762" data-name="Ellipse 762" cx="5.423" cy="5.423" r="5.423" fill="rgba(128,128,128,0.72)"/>
        </g>
        <path id="Path_3626" data-name="Path 3626" d="M5.308,0A5.308,5.308,0,1,1,0,5.308,5.308,5.308,0,0,1,5.308,0Z" transform="translate(3895.061 1258.018)" fill="rgba(255,255,255,0.72)"/>
        <g id="Group_225" data-name="Group 225" transform="translate(3917.901 1258.325)">
          <circle id="Ellipse_767" data-name="Ellipse 767" cx="5.423" cy="5.423" r="5.423" fill="rgba(255,255,255,0.72)"/>
        </g>
        <g id="Group_226" data-name="Group 226" transform="translate(3906.419 1267.222)" opacity="0.5">
          <circle id="Ellipse_773" data-name="Ellipse 773" cx="5.423" cy="5.423" r="5.423" fill="rgba(128,128,128,0.72)"/>
        </g>
        <path id="Path_3625" data-name="Path 3625" d="M5.308,0A5.308,5.308,0,1,1,0,5.308,5.308,5.308,0,0,1,5.308,0Z" transform="translate(3906.533 1267.307)" fill="rgba(255,255,255,0.72)"/>
        <path id="Path_3607" data-name="Path 3607" d="M618.327,207.86a4.943,4.943,0,1,1-4.943,4.943,4.943,4.943,0,0,1,4.943-4.943m0-1.221a6.163,6.163,0,1,0,6.163,6.163A6.163,6.163,0,0,0,618.327,206.639Z" transform="translate(3293.516 1059.843)" fill="rgba(128,128,128,0.72)"/>
        <rect id="Rectangle_675" data-name="Rectangle 675" width="1.445" height="1.521" transform="translate(3910.929 1265.041)" fill="rgba(128,128,128,0.72)"/>
        <rect id="Rectangle_676" data-name="Rectangle 676" width="1.521" height="1.445" transform="matrix(0.515, -0.857, 0.857, 0.515, 3914.168, 1266.96)" fill="rgba(128,128,128,0.72)"/>
        <rect id="Rectangle_677" data-name="Rectangle 677" width="1.521" height="1.445" transform="matrix(0.875, -0.485, 0.485, 0.875, 3916.698, 1268.885)" fill="rgba(128,128,128,0.72)"/>
        <rect id="Rectangle_678" data-name="Rectangle 678" width="1.445" height="1.521" transform="matrix(0.53, -0.848, 0.848, 0.53, 3916.719, 1276.294)" fill="rgba(128,128,128,0.72)"/>
        <rect id="Rectangle_679" data-name="Rectangle 679" width="1.445" height="1.521" transform="matrix(0.485, -0.875, 0.875, 0.485, 3904.955, 1269.411)" fill="rgba(128,128,128,0.72)"/>
        <rect id="Rectangle_680" data-name="Rectangle 680" width="1.521" height="1.445" transform="matrix(0.848, -0.53, 0.53, 0.848, 3904.909, 1275.875)" fill="rgba(128,128,128,0.72)"/>
        <rect id="Rectangle_681" data-name="Rectangle 681" width="1.445" height="1.521" transform="matrix(0.857, -0.515, 0.515, 0.857, 3907.495, 1266.401)" fill="rgba(128,128,128,0.72)"/>
        <rect id="Rectangle_682" data-name="Rectangle 682" width="1.445" height="1.521" transform="translate(3910.929 1278.728)" fill="rgba(128,128,128,0.72)"/>
        <rect id="Rectangle_683" data-name="Rectangle 683" width="1.445" height="1.521" transform="matrix(0.857, -0.515, 0.515, 0.857, 3914.168, 1278.329)" fill="rgba(128,128,128,0.72)"/>
        <rect id="Rectangle_684" data-name="Rectangle 684" width="1.521" height="1.445" transform="matrix(0.515, -0.857, 0.857, 0.515, 3907.495, 1278.888)" fill="rgba(128,128,128,0.72)"/>
        <rect id="Rectangle_685" data-name="Rectangle 685" width="1.749" height="1.293" transform="translate(3904.086 1272.036)" fill="rgba(128,128,128,0.72)"/>
        <rect id="Rectangle_686" data-name="Rectangle 686" width="1.749" height="1.293" transform="translate(3919.598 1273.329) rotate(180)" fill="rgba(128,128,128,0.72)"/>
        <path id="Path_3608" data-name="Path 3608" d="M778.245,83.95a4.943,4.943,0,1,1-4.943,4.943,4.943,4.943,0,0,1,4.943-4.943m0-1.221a6.163,6.163,0,1,0,6.163,6.163A6.163,6.163,0,0,0,778.245,82.729Z" transform="translate(3145.08 1174.856)" fill="rgba(128,128,128,0.72)"/>
        <rect id="Rectangle_687" data-name="Rectangle 687" width="1.445" height="1.521" transform="translate(3922.412 1256.144)" fill="rgba(128,128,128,0.72)"/>
        <rect id="Rectangle_688" data-name="Rectangle 688" width="1.521" height="1.445" transform="matrix(0.515, -0.857, 0.857, 0.515, 3925.65, 1258.064)" fill="rgba(128,128,128,0.72)"/>
        <rect id="Rectangle_689" data-name="Rectangle 689" width="1.521" height="1.445" transform="matrix(0.875, -0.485, 0.485, 0.875, 3928.18, 1259.988)" fill="rgba(128,128,128,0.72)"/>
        <rect id="Rectangle_690" data-name="Rectangle 690" width="1.445" height="1.521" transform="matrix(0.53, -0.848, 0.848, 0.53, 3928.201, 1267.398)" fill="rgba(128,128,128,0.72)"/>
        <rect id="Rectangle_691" data-name="Rectangle 691" width="1.445" height="1.521" transform="matrix(0.485, -0.875, 0.875, 0.485, 3916.437, 1260.515)" fill="rgba(128,128,128,0.72)"/>
        <rect id="Rectangle_692" data-name="Rectangle 692" width="1.521" height="1.445" transform="matrix(0.848, -0.53, 0.53, 0.848, 3916.392, 1266.979)" fill="rgba(128,128,128,0.72)"/>
        <rect id="Rectangle_693" data-name="Rectangle 693" width="1.445" height="1.521" transform="matrix(0.857, -0.515, 0.515, 0.857, 3918.977, 1257.504)" fill="rgba(128,128,128,0.72)"/>
        <rect id="Rectangle_694" data-name="Rectangle 694" width="1.445" height="1.521" transform="translate(3922.412 1269.831)" fill="rgba(128,128,128,0.72)"/>
        <rect id="Rectangle_695" data-name="Rectangle 695" width="1.445" height="1.521" transform="matrix(0.857, -0.515, 0.515, 0.857, 3925.65, 1269.432)" fill="rgba(128,128,128,0.72)"/>
        <rect id="Rectangle_696" data-name="Rectangle 696" width="1.521" height="1.445" transform="matrix(0.515, -0.857, 0.857, 0.515, 3918.977, 1269.992)" fill="rgba(128,128,128,0.72)"/>
        <rect id="Rectangle_697" data-name="Rectangle 697" width="1.749" height="1.293" transform="translate(3915.568 1263.14)" fill="rgba(128,128,128,0.72)"/>
        <rect id="Rectangle_698" data-name="Rectangle 698" width="1.749" height="1.293" transform="translate(3931.08 1264.432) rotate(180)" fill="rgba(128,128,128,0.72)"/>
        <path id="Path_3609" data-name="Path 3609" d="M457,78.641q.087,0,.175,0a4.942,4.942,0,1,1-.168,9.883l-.175,0A4.942,4.942,0,1,1,457,78.641m0-1.22v0a6.163,6.163,0,1,0-.211,12.324l.217,0a6.163,6.163,0,1,0,.211-12.324Z" transform="translate(3443.352 1179.784)" fill="rgba(128,128,128,0.72)"/>
        <rect id="Rectangle_699" data-name="Rectangle 699" width="1.521" height="1.445" transform="translate(3899.659 1257.257) rotate(-88.012)" fill="rgba(128,128,128,0.72)"/>
        <rect id="Rectangle_700" data-name="Rectangle 700" width="1.521" height="1.445" transform="translate(3902.881 1257.768) rotate(-57.012)" fill="rgba(128,128,128,0.72)"/>
        <rect id="Rectangle_701" data-name="Rectangle 701" width="1.521" height="1.445" transform="translate(3905.344 1259.779) rotate(-27.012)" fill="rgba(128,128,128,0.72)"/>
        <rect id="Rectangle_702" data-name="Rectangle 702" width="1.445" height="1.521" transform="translate(3905.107 1267.185) rotate(-56.012)" fill="rgba(128,128,128,0.72)"/>
        <rect id="Rectangle_703" data-name="Rectangle 703" width="1.445" height="1.521" transform="translate(3893.59 1259.897) rotate(-59.012)" fill="rgba(128,128,128,0.72)"/>
        <rect id="Rectangle_704" data-name="Rectangle 704" width="1.521" height="1.445" transform="matrix(0.866, -0.5, 0.5, 0.866, 3893.32, 1266.356)" fill="rgba(128,128,128,0.72)"/>
        <rect id="Rectangle_705" data-name="Rectangle 705" width="1.445" height="1.521" transform="translate(3896.232 1256.977) rotate(-29.012)" fill="rgba(128,128,128,0.72)"/>
        <rect id="Rectangle_706" data-name="Rectangle 706" width="1.521" height="1.445" transform="translate(3899.184 1270.936) rotate(-88.012)" fill="rgba(128,128,128,0.72)"/>
        <rect id="Rectangle_707" data-name="Rectangle 707" width="1.445" height="1.521" transform="translate(3902.487 1269.129) rotate(-29.012)" fill="rgba(128,128,128,0.72)"/>
        <rect id="Rectangle_708" data-name="Rectangle 708" width="1.521" height="1.445" transform="translate(3895.799 1269.457) rotate(-57.012)" fill="rgba(128,128,128,0.72)"/>
        <rect id="Rectangle_709" data-name="Rectangle 709" width="1.749" height="1.293" transform="translate(3892.63 1262.491) rotate(1.988)" fill="rgba(128,128,128,0.72)"/>
        <rect id="Rectangle_710" data-name="Rectangle 710" width="1.749" height="1.293" transform="translate(3908.088 1264.321) rotate(-178.012)" fill="rgba(128,128,128,0.72)"/>
      </g>
    </g>
  </g>
</svg>
