<svg xmlns="http://www.w3.org/2000/svg" xmlns:xlink="http://www.w3.org/1999/xlink" width="400" height="220" viewBox="0 0 400 220">
  <defs>
    <filter id="cloud-11" x="16.271" y="7.385" width="344.625" height="209.186" filterUnits="userSpaceOnUse">
      <feOffset dy="3" input="SourceAlpha"/>
      <feGaussianBlur stdDeviation="3" result="blur"/>
      <feFlood flood-opacity="0.161"/>
      <feComposite operator="in" in2="blur"/>
      <feComposite in="SourceGraphic"/>
    </filter>
    <clipPath id="clip-card02">
      <rect width="400" height="220"/>
    </clipPath>
  </defs>
  <g id="card02" clip-path="url(#clip-card02)">
    <rect width="400" height="220" fill="#fff"/>
    <g id="Group_7" data-name="Group 7" transform="translate(-1658.744 219.453)">
      <g id="Group_6" data-name="Group 6" transform="translate(1660 -460)">
        <path id="Path_7" data-name="Path 7" d="M0,0H1238.744V379.411s-70.838-33.685-233.052-6.139-239.743,116.3-414.717,116.3c-153.6,0-250.328-81.353-365.455-107.217C109.1,356.2-1.029,399.629-1.029,399.629Z" transform="translate(0 0)" fill="#2f54eb"/>
        <path id="Path_8" data-name="Path 8" d="M0,2.931s167.784-47.95,263.869-12.8C367.319,24.462,455.251,90.476,613.012,71.992s300-116.185,437.075-150.513,188.658-15.843,188.658-15.843v408.7H0Z" transform="translate(0 354.387)" fill="#c5e7ff" opacity="0.25"/>
      </g>
    </g>
    <g id="Group_222" data-name="Group 222" transform="translate(-3452.89 -1070.751)">
      <g transform="matrix(1, 0, 0, 1, 3452.89, 1070.75)" filter="url(#cloud-11)">
        <path id="cloud-11-2" data-name="cloud-11" d="M422.125,294.358c0,27.751-22.5,40.828-50.25,40.828v-.393H158.313c-34.695,0-62.813-17.912-62.813-52.605a62.812,62.812,0,0,1,50.372-61.561c0-.417-.122-.81-.122-1.252a75.169,75.169,0,0,1,142.383-33.86,62.182,62.182,0,0,1,83.668,58.2h.074v.393A50.252,50.252,0,0,1,422.125,294.358Z" transform="translate(-70.23 -130.62)" fill="#fff"/>
      </g>
      <path id="cloud-11-3" data-name="cloud-11" d="M331.019,252.418c0,20.01-16.224,29.44-36.234,29.44v-.283H140.792c-25.017,0-45.292-12.916-45.292-37.932a45.292,45.292,0,0,1,36.322-44.39c0-.3-.088-.584-.088-.9A54.2,54.2,0,0,1,234.4,173.935a44.837,44.837,0,0,1,60.33,41.966h.053v.283A36.235,36.235,0,0,1,331.019,252.418Z" transform="translate(3510.922 956.092)" fill="#fff" opacity="0.53"/>
      <g id="Group_221" data-name="Group 221" transform="translate(3518.805 1201.506)">
        <path id="Union_1" data-name="Union 1" d="M56.182,23.334a12.75,12.75,0,0,0-6.427-1.814,10.917,10.917,0,0,0-1.4-8.642C44.395,7.2,38.274,8.541,36.049,9.276a2.02,2.02,0,0,0-.578.231A17.034,17.034,0,0,0,27.659,1.8c-5.013-2.52-12.143-2.468-17.92.63A22.178,22.178,0,0,0,0,12.21,21.009,21.009,0,0,1,8.624,5.363a17.98,17.98,0,0,1,15.527.222,15.5,15.5,0,0,1,7.859,9.372,6.845,6.845,0,0,1,4.584-1.887,6.454,6.454,0,0,1,6.784,3.8c1.693,3.626-.485,6.922-1.219,7.878-1.311,1.419-2.651,2.995-2.651,2.995l.557.963s6.27-3.623,11.3.1c5.763,4.264,3.44,14.561-9.029,19.621a44.45,44.45,0,0,1-15.824,3.5l-7.965.021-.365.738H34.1c8.414,0,18.729-1.2,24.55-8.428C64.67,36.782,63.25,27.426,56.182,23.334Z" transform="translate(186.835 0)" fill="#4593d0"/>
        <g id="Group_217" data-name="Group 217" transform="translate(0 12.388)">
          <path id="Path_3520" data-name="Path 3520" d="M442.647,157.76v-3.376h9.638V137.948a4.439,4.439,0,0,1,1.775-3.282l-6.155-.444v18.5h-9.585l.025,18.92,4.3-1.361V159.487h4.36v12.149l4.3-1.361V159.487h3.307c0-1.576.639-1.727.639-1.727Zm3.146-24.382H427.318V150.6h18.476Zm-4.375,15.529h-9.774V145.42h9.774Zm0-5.18h-9.774V140.2h9.774Zm0-5.2h-9.774v-3.5h9.774Zm-16.306,14.188v-17.7l-4.609-.825s.225,7.146.225,9.023v3.019c0,2.341-.332,8.15-.332,8.15h10.657v3.376s-8.71-.016-8.978,0a28.721,28.721,0,0,1-4.171-.284,3.2,3.2,0,0,1,.527,2.059c.761-.073,1.351-.025,2.737-.048H422.5v2.5a19.233,19.233,0,0,1-3.121,10.349s1.659-.97,2.75-1.673a9.362,9.362,0,0,0,4.721-8.316v-2.862h4.2v12.149l4.3-1.361V152.716Z" transform="translate(-417.904 -132.198)" fill="#3e3a39"/>
          <path id="Path_3521" data-name="Path 3521" d="M468.232,162.793c-1.093-1.684-4.55-3.419-6.516-4.112v-1.707l6.4-.009a3.456,3.456,0,0,1,.659-1.673l-7.058-.014v-.38c.078-2.532,1.5-3.044,1.5-3.044l-5.756-1.195v4.619h-1.736s-4.448-.137-5.028-.216a3.862,3.862,0,0,1,.493,1.9c.014.009,1.6.024,3.775.024a25.072,25.072,0,0,1-.473,2.707c-1.166,5.112-4.512,9.438-6.258,11.487,0,0,1.893-.839,3.141-1.463a11.155,11.155,0,0,0,6.087-7.41v9.756l4.258-1.337V160.193a16.319,16.319,0,0,1,3.239,5.482c.18.473.336.971.473,1.444.116.214.243.19.482-.186a15.427,15.427,0,0,1,2.405-3.507C468.511,163.246,468.393,163.051,468.232,162.793Zm16.481-15.817c-1.907,0-8.287.282-8.287.282s-.727-.009-1.634-.054v-7.676a91.6,91.6,0,0,0,10.589-1.362,21.674,21.674,0,0,1,3.687-.341,37.1,37.1,0,0,0-3.414-4.491c-.775-.889-.961-.43-1.95-.03-.957.38-8.985,4.132-8.985,4.132s-2.848-1.284-3.989-1.853c-.191-.025-.293.107-.341.37V149c0,5.96-1.18,16.14-3.312,21.343-.664,1.234-.927,1.937-.825,2.093.1.18.288.18.586,0q5.59-4.454,7.107-14.363c.375-2.571.634-6.19.775-9.1,1.385.009,2.887.009,4.7,0v23.084l4.283-1.327V148.96c3.077-.009,4.6-.02,4.6-.02a4.64,4.64,0,0,1,1.063-2.614C488.6,146.483,485.358,146.976,484.713,146.976Zm-16.369.863-5.38-.005c-.493.62-.955,1.18-1.35,1.7,3.282-.01,6.071-.03,6.062-.03A3.53,3.53,0,0,1,468.345,147.838Zm-12.194,1.693c-.248-.518-.512-1.1-.82-1.707-1.023-.044-4.2-.146-4.687-.225a4.4,4.4,0,0,1,.493,1.9C451.162,149.531,453.371,149.531,456.151,149.531Zm13.042-11.057a3.256,3.256,0,0,1,.659-1.669H462.4v-.093a3.829,3.829,0,0,1,1.191-3.034l-5.458-1.2v4.3c-1.752-.043-6.248-.088-7.062-.209a6.531,6.531,0,0,1,.5,1.912ZM458.41,150.1v-.005h0Zm.273.077a.605.605,0,0,0,.107-.093c1.161-1.452,7.3-9.062,9.11-11.29h0a.05.05,0,0,0,0-.054.07.07,0,0,0-.088-.02c-.009,0-.014.01-.014.01h-.02c-2.136,1.779-7.584,5.559-13.315,2.755H454.4c-.034.029-.063.059-.048.082v.014c.518,1.108,3.385,7.122,4.053,8.512C458.429,150.185,458.575,150.233,458.683,150.174Z" transform="translate(-408.592 -132.475)" fill="#df0011"/>
        </g>
        <path id="Path_3522" data-name="Path 3522" d="M498.695,145.486a5.845,5.845,0,0,1,.24-1.026,3.686,3.686,0,0,1,.62-1.016H490.51a5.7,5.7,0,0,1-1.334-.116s.051.367.154.933a5.3,5.3,0,0,1,.043,1.225Zm-13.876,12.775a11.068,11.068,0,0,1-1.732-.135,6.38,6.38,0,0,1,.27,1.073c.111.65.242,1.408.242,1.408h12.141c-.227.614-.718,1.923-1.25,3.253-.458,1.145-.829,1.9-1.042,2.312-2.683.146-4.636.242-4.981.233-1.816-.05-2.775-.144-2.775-.144s1.289,5.2,1.355,5.464a.456.456,0,0,0,.612.281c.28-.078,3.409-1.217,6.575-2.005,2.6-.647,14.954-2.874,19.27-3.647a16.319,16.319,0,0,1,1.5,2.687c.223.539.506,1.477.7,1.936a.418.418,0,0,0,.681.174c.227-.188,3.075-2.423,3.645-2.941.224-.208.089-.431-.1-.729-1.257-1.937-6.236-4.6-8.5-5.4l-.655.77s.834.924,1.8,2.208c-3.191.192-9.846.591-15.373.906.595-.643,1.586-1.746,2.451-2.879a20.676,20.676,0,0,0,1.668-2.476h19.789a7.092,7.092,0,0,1,.257-1.179,4.3,4.3,0,0,1,.665-1.167h-37.22Zm4.511-9.607a5.3,5.3,0,0,1,.043,1.225h9.322a5.845,5.845,0,0,1,.24-1.026,3.686,3.686,0,0,1,.62-1.016H490.51a5.7,5.7,0,0,1-1.334-.116S489.226,148.089,489.33,148.655Zm27.679-10.83v1.157H504.783v-2.647h12.556a5.474,5.474,0,0,1,.258-1.026,3.705,3.705,0,0,1,.665-1.016H488.6a12.766,12.766,0,0,1-1.732-.116,4.978,4.978,0,0,1,.271.933c.111.566.242,1.225.242,1.225h12.966v2.647H488.077v-1.129l-4.266-.825a14.8,14.8,0,0,1,.194,1.846l-.055-.008s.027.067.061.163c.014.311.025.644.025,1.016v4.051a29.44,29.44,0,0,1-.218,4.066l4.26-1.533v-5.6h12.266v10.851l4.44-1.327v-9.525h12.225v7.905l4.1-1.533v-5.844a4.447,4.447,0,0,1,1.776-3.283Zm-11.017,10.83a5.334,5.334,0,0,1,.044,1.225h9.321a5.842,5.842,0,0,1,.241-1.026,3.721,3.721,0,0,1,.62-1.016h-9.045a5.694,5.694,0,0,1-1.333-.116S505.888,148.089,505.991,148.655ZM487.8,154.783c.111.566.242,1.225.242,1.225h28.43a5.472,5.472,0,0,1,.257-1.026c.182-.5.869-1.759.869-1.759a13.3,13.3,0,0,1-3.951.744H489.26a12.768,12.768,0,0,1-1.732-.116A4.987,4.987,0,0,1,487.8,154.783Zm27.557-9.3a5.843,5.843,0,0,1,.241-1.026,3.722,3.722,0,0,1,.62-1.016h-9.045a5.694,5.694,0,0,1-1.333-.116s.05.367.153.933a5.334,5.334,0,0,1,.044,1.225Z" transform="translate(-397.888 -119.565)" fill="#3e3a39"/>
        <path id="Path_3523" data-name="Path 3523" d="M524.652,138.466l-.474,4.274h14.884l-.4,3.942H525.4l-3.354,24.606,5.038-1.942,2.023-18.66h9.11l-2.4,22.155,5.244-1.942,2.073-20.213h8.986l-2.278,20.585,6.513-1.48-1.775-2.571,2.07-20.538H543.508l.4-3.942H558.65l.331-3.04,1.059-1.234Zm19.776-1.106,2.016-3.864H538.75l.909,3.864Z" transform="translate(-385.924 -119.773)" fill="#4593d0"/>
        <path id="Path_3524" data-name="Path 3524" d="M563.123,160.381c-1.51.922-2.526,1.529-2.909,1.748l1.459-13.664h3.943l.357-3.879h-3.883l1.085-9.921,1.175-1.008h-5.256l-1.255,10.928h-4.079l-.358,3.879h3.992l-1.9,16.333a44.437,44.437,0,0,1-5.015,1.971l.826,4.614a65.69,65.69,0,0,0,11.762-7.044Zm28.5-24.1,1.84-1.908H570.129l-1.479,13.812h21.7Zm-4.58,8.765h-14.42l.243-2.263h14.418Zm.561-5.232h-14.42l.238-2.219h14.418ZM564.279,153.3H568.3l-5.439,6.793h4.42l1.529-1.911h3.759l-11.49,12.749h5.792l10.139-12.749h2.891l-9.63,12.749h5.815l8.266-12.749h2.094c-.805,5.5-2.128,9.653-2.626,10.161,0,0-.118.354-2.055.226-.079-.005-.726,0-.726,0l-1.877,3.852h5.116a5.726,5.726,0,0,0,2.8-.886,4.487,4.487,0,0,0,1.281-1.405,58.508,58.508,0,0,0,1.227-6.107q.8-4.18,1.541-9.211H571.514l1.21-1.512h20.057l.195-2.09.153-1.653h-28.5Z" transform="translate(-377.194 -119.724)" fill="#4593d0"/>
      </g>
    </g>
    <g id="undraw_shopping_app_flsj" transform="translate(-159.993 -189.442)">
      <circle id="Ellipse_752" data-name="Ellipse 752" cx="11.765" cy="11.765" r="11.765" transform="translate(375.875 281.341)" fill="#ffd500"/>
      <path id="Path_3549" data-name="Path 3549" d="M616.361,536.554h-1.407a.187.187,0,0,0-.187.187v.618a.187.187,0,0,0,.187.187h.233v.925h.941v-.925h.233a.187.187,0,0,0,.187-.187v-.618a.187.187,0,0,0-.187-.187Z" transform="translate(-285.297 -270.335)" fill="#e6e6e6"/>
      <path id="Path_3551" data-name="Path 3551" d="M618.213,537.627a.4.4,0,1,1-.8,0" transform="translate(-287.442 -271.206)" opacity="0.2"/>
      <path id="Path_3552" data-name="Path 3552" d="M847.684,641.218h-2.634a.349.349,0,0,0-.349.349v1.156a.349.349,0,0,0,.349.349h.437V644.8h1.761v-1.732h.436a.349.349,0,0,0,.349-.349v-1.156a.349.349,0,0,0-.349-.349Z" transform="translate(-472.097 -355.364)" fill="#e6e6e6"/>
      <path id="Path_3554" data-name="Path 3554" d="M851.151,643.226a.753.753,0,1,1-1.507,0" transform="translate(-476.112 -356.996)" opacity="0.2"/>
      <circle id="Ellipse_753" data-name="Ellipse 753" cx="11.765" cy="11.765" r="11.765" transform="translate(351.095 262.695)" fill="#ffd500"/>
      <path id="Path_3557" data-name="Path 3557" d="M322.243,293.778l3.524-.32,2.243-5.447-4-2.243Z" transform="translate(-18.383 -51.685)" fill="#ffb8b8"/>
      <path id="Path_3558" data-name="Path 3558" d="M616,474.444h0a1.987,1.987,0,0,0-1.726-2.723l-5.472-.326-.806,2.679,5.633,1.547A1.987,1.987,0,0,0,616,474.444Z" transform="translate(-279.793 -217.398)" fill="#ffb8b8"/>
      <path id="Path_3559" data-name="Path 3559" d="M502.611,412.932l-.06-5.027L490.4,405.966l-9.364-10.739a3.065,3.065,0,0,0-3.995-.546h0a3.065,3.065,0,0,0-.534,4.675l7.725,9.507Z" transform="translate(-172.282 -154.665)" fill="#4593d0"/>
      <path id="Path_3560" data-name="Path 3560" d="M463.726,561.15h3.2l7.947-35.93,8.233,11.1,4.806,24.03h3.044l-.641-25.792L479.586,507H469.012c-2.889,5.229-5.156,10.619-2.563,16.18Z" transform="translate(-162.589 -246.327)" fill="#2f2e41"/>
      <path id="Path_3561" data-name="Path 3561" d="M582.039,791.237a.836.836,0,0,0,.652,1.073l7.84,1.391a1.29,1.29,0,0,0,1.463-.884h0a1.282,1.282,0,0,0-.627-1.524,11.988,11.988,0,0,1-4.324-3.759,2.2,2.2,0,0,1-2.848.136l-1.085.136Z" transform="translate(-258.677 -474.233)" fill="#2f2e41"/>
      <path id="Path_3562" data-name="Path 3562" d="M455.653,791.237a.836.836,0,0,0,.652,1.073l7.84,1.391a1.29,1.29,0,0,0,1.463-.884h0a1.282,1.282,0,0,0-.627-1.524,11.988,11.988,0,0,1-4.324-3.759,2.2,2.2,0,0,1-2.847.136l-1.085.136Z" transform="translate(-156 -474.233)" fill="#2f2e41"/>
      <circle id="Ellipse_754" data-name="Ellipse 754" cx="4.486" cy="4.486" r="4.486" transform="translate(305.222 229.357)" fill="#ffb8b8"/>
      <path id="Path_3563" data-name="Path 3563" d="M472.543,412.464l11.694-.32L480.8,401.334c2.134-3.422-.014-6.84-3.054-10.257l-2.4-1.6-3.845-.32h0a9.439,9.439,0,0,0-2.542,6.575A42.356,42.356,0,0,0,472.543,412.464Z" transform="translate(-166.84 -150.587)" fill="#4593d0"/>
      <path id="Path_3566" data-name="Path 3566" d="M470.13,331.425a8.493,8.493,0,0,0,2.563,5.607c.962.78,2.233.747,2.723-.32a12.7,12.7,0,0,1,5.287-5.287c4.067-2.158-1.442-5.849-5.287-5.287C472.528,326.561,470.13,328.505,470.13,331.425Z" transform="translate(-167.792 -99.345)" fill="#2f2e41"/>
      <circle id="Ellipse_760" data-name="Ellipse 760" cx="11.765" cy="11.765" r="11.765" transform="translate(378.875 253.341)" fill="#ffd500"/>
      <circle id="Ellipse_755" data-name="Ellipse 755" cx="3.204" cy="3.204" r="3.204" transform="translate(301.858 223.269)" fill="#2f2e41"/>
      <path id="Path_3567" data-name="Path 3567" d="M491.454,304.828a3.2,3.2,0,0,0-2.964-3.192c.08-.006.159-.012.24-.012a3.2,3.2,0,1,1,0,6.408c-.081,0-.161-.006-.24-.012A3.2,3.2,0,0,0,491.454,304.828Z" transform="translate(-182.708 -79.476)" fill="#2f2e41"/>
      <ellipse id="Ellipse_756" data-name="Ellipse 756" cx="0.721" cy="0.961" rx="0.721" ry="0.961" transform="translate(309.066 233.522)" fill="#ffb8b8"/>
      <path id="Path_3568" data-name="Path 3568" d="M536.98,458.92H487.1l-10.562-49.928h-9.014v-2.24h10.83L488.92,456.68h48.06Z" transform="translate(-136.414 -149.974)" fill="#3f3d56"/>
      <circle id="Ellipse_757" data-name="Ellipse 757" cx="4.801" cy="4.801" r="4.801" transform="translate(353.198 308.467)" fill="#3f3d56"/>
      <circle id="Ellipse_758" data-name="Ellipse 758" cx="4.801" cy="4.801" r="4.801" transform="translate(389.044 308.467)" fill="#3f3d56"/>
      <path id="Path_3569" data-name="Path 3569" d="M741.672,575.457H693.146l-8.562-42.312h65.123a2.3,2.3,0,0,1,2.273,2.658l-8.035,37.711a2.289,2.289,0,0,1-2.272,1.944Zm-48-.64h48a1.652,1.652,0,0,0,1.64-1.4l8.035-37.711a1.66,1.66,0,0,0-1.64-1.918H685.361Z" transform="translate(-342.016 -267.565)" fill="#3f3d56" stroke="#3f3d56" stroke-width="1"/>
      <path id="Path_3570" data-name="Path 3570" d="M600.23,497.006l-5.607-41.8.631-.1,5.607,41.8Z" transform="translate(-239.666 -189.249)" fill="#3f3d56" stroke="#3f3d56" stroke-width="1"/>
      <path id="Path_3571" data-name="Path 3571" d="M787.975,496.689l-.632-.1,5.443-41.484.632.1Z" transform="translate(-396.233 -189.253)" fill="#3f3d56" stroke="#3f3d56" stroke-width="1"/>
      <rect id="Rectangle_672" data-name="Rectangle 672" width="0.64" height="41.804" transform="translate(376.247 265.9)" fill="#3f3d56" stroke="#3f3d56" stroke-width="1"/>
      <rect id="Rectangle_673" data-name="Rectangle 673" width="0.64" height="61.961" transform="translate(345.836 277.741) rotate(-89.861)" fill="#3f3d56" stroke="#3f3d56" stroke-width="1"/>
      <rect id="Rectangle_674" data-name="Rectangle 674" width="54.435" height="0.64" transform="translate(348.993 297.247) rotate(-0.392)" fill="#3f3d56" stroke="#3f3d56" stroke-width="1"/>
      <ellipse id="Ellipse_759" data-name="Ellipse 759" cx="3.521" cy="1.92" rx="3.521" ry="1.92" transform="translate(328.554 255.658)" fill="#3f3d56"/>
    </g>
  </g>
</svg>
