<svg xmlns="http://www.w3.org/2000/svg" xmlns:xlink="http://www.w3.org/1999/xlink" width="1250" height="368" viewBox="0 0 1250 368">
  <defs>
    <linearGradient id="linear-gradient" x1="0.556" y1="0.808" x2="0.556" y2="0.095" gradientUnits="objectBoundingBox">
      <stop offset="0" stop-color="#fff"/>
      <stop offset="0.498" stop-color="#fefefe"/>
      <stop offset="1" stop-color="#f5f5f5"/>
    </linearGradient>
    <linearGradient id="linear-gradient-2" x1="0.5" y1="1" x2="0.5" gradientUnits="objectBoundingBox">
      <stop offset="0" stop-color="gray" stop-opacity="0.251"/>
      <stop offset="0.54" stop-color="gray" stop-opacity="0.122"/>
      <stop offset="1" stop-color="gray" stop-opacity="0.102"/>
    </linearGradient>
    <filter id="Path_3512" x="269.24" y="70.2" width="720.451" height="302.701" filterUnits="userSpaceOnUse">
      <feOffset dy="3" input="SourceAlpha"/>
      <feGaussianBlur stdDeviation="10" result="blur"/>
      <feFlood flood-color="#dbdbdb"/>
      <feComposite operator="in" in2="blur"/>
      <feComposite in="SourceGraphic"/>
    </filter>
    <linearGradient id="linear-gradient-3" x1="-0.358" y1="1" x2="-0.358" y2="0" xlink:href="#linear-gradient-2"/>
    <linearGradient id="linear-gradient-4" x1="2.68" y1="0.777" x2="2.68" y2="-0.153" xlink:href="#linear-gradient-2"/>
    <linearGradient id="linear-gradient-5" y1="0.184" x2="1.349" y2="0.177" gradientUnits="objectBoundingBox">
      <stop offset="0" stop-color="#fff"/>
      <stop offset="1" stop-color="#fff" stop-opacity="0"/>
    </linearGradient>
    <linearGradient id="linear-gradient-6" x1="1" y1="0.184" x2="-0.349" y2="0.177" xlink:href="#linear-gradient-5"/>
    <clipPath id="clip-testbg">
      <rect width="1250" height="368"/>
    </clipPath>
  </defs>
  <g id="testbg" clip-path="url(#clip-testbg)">
    <rect width="1250" height="368" fill="#fff"/>
    <rect id="Rectangle_659" data-name="Rectangle 659" width="1233" height="64" transform="translate(17 304)" fill="url(#linear-gradient)"/>
    <g id="Group_198" data-name="Group 198" transform="translate(-4321 4230)" opacity="0.53">
      <circle id="Ellipse_185" data-name="Ellipse 185" cx="9.752" cy="9.752" r="9.752" transform="translate(4546.209 -4048.33)" fill="#53c5a3"/>
      <circle id="Ellipse_186" data-name="Ellipse 186" cx="9.752" cy="9.752" r="9.752" transform="translate(4585.542 -4048.33)" fill="#53c5a3"/>
      <circle id="Ellipse_187" data-name="Ellipse 187" cx="9.752" cy="9.752" r="9.752" transform="translate(4624.875 -4048.33)" fill="#53c5a3"/>
      <circle id="Ellipse_200" data-name="Ellipse 200" cx="0.975" cy="0.975" r="0.975" transform="translate(4540.683 -4066.533)" fill="#f86b75"/>
      <circle id="Ellipse_201" data-name="Ellipse 201" cx="0.975" cy="0.975" r="0.975" transform="translate(4543.609 -4066.533)" fill="#fad375"/>
      <circle id="Ellipse_202" data-name="Ellipse 202" cx="0.975" cy="0.975" r="0.975" transform="translate(4546.535 -4066.533)" fill="#8bcc55"/>
      <rect id="Rectangle_158" data-name="Rectangle 158" width="118.324" height="70.214" transform="translate(4537.758 -4068.809)" fill="none" stroke="#3f3d56" stroke-miterlimit="10" stroke-width="1"/>
      <line id="Line_7" data-name="Line 7" x2="118.324" transform="translate(4537.758 -4063.491)" fill="none" stroke="#3f3d56" stroke-miterlimit="10" stroke-width="1"/>
      <circle id="Ellipse_203" data-name="Ellipse 203" cx="0.975" cy="0.975" r="0.975" transform="translate(4541.009 -4067.183)" fill="none" stroke="#3f3d56" stroke-miterlimit="10" stroke-width="1"/>
      <circle id="Ellipse_204" data-name="Ellipse 204" cx="0.975" cy="0.975" r="0.975" transform="translate(4543.934 -4067.183)" fill="none" stroke="#3f3d56" stroke-miterlimit="10" stroke-width="1"/>
      <circle id="Ellipse_205" data-name="Ellipse 205" cx="0.975" cy="0.975" r="0.975" transform="translate(4546.859 -4067.183)" fill="none" stroke="#3f3d56" stroke-miterlimit="10" stroke-width="1"/>
      <circle id="Ellipse_206" data-name="Ellipse 206" cx="9.752" cy="9.752" r="9.752" transform="translate(4547.835 -4049.955)" fill="none" stroke="#3f3d56" stroke-miterlimit="10" stroke-width="1"/>
      <circle id="Ellipse_207" data-name="Ellipse 207" cx="9.752" cy="9.752" r="9.752" transform="translate(4587.168 -4049.955)" fill="none" stroke="#3f3d56" stroke-miterlimit="10" stroke-width="1"/>
      <circle id="Ellipse_208" data-name="Ellipse 208" cx="9.752" cy="9.752" r="9.752" transform="translate(4626.5 -4049.955)" fill="none" stroke="#3f3d56" stroke-miterlimit="10" stroke-width="1"/>
      <rect id="Rectangle_159" data-name="Rectangle 159" width="26.655" height="2.601" transform="translate(4542.797 -4022.162)" fill="#f2f2f2"/>
      <rect id="Rectangle_160" data-name="Rectangle 160" width="26.655" height="2.601" transform="translate(4582.454 -4022.162)" fill="#f2f2f2"/>
      <rect id="Rectangle_161" data-name="Rectangle 161" width="26.655" height="2.601" transform="translate(4622.112 -4022.162)" fill="#f2f2f2"/>
      <rect id="Rectangle_162" data-name="Rectangle 162" width="26.655" height="2.601" transform="translate(4544.097 -4023.137)" fill="none" stroke="#3f3d56" stroke-miterlimit="10" stroke-width="1"/>
      <rect id="Rectangle_163" data-name="Rectangle 163" width="26.655" height="2.601" transform="translate(4583.755 -4023.137)" fill="none" stroke="#3f3d56" stroke-miterlimit="10" stroke-width="1"/>
      <rect id="Rectangle_164" data-name="Rectangle 164" width="26.655" height="2.601" transform="translate(4623.412 -4023.137)" fill="none" stroke="#3f3d56" stroke-miterlimit="10" stroke-width="1"/>
    </g>
    <g id="Group_184" data-name="Group 184" transform="translate(-3195 3765)" opacity="0.52">
      <circle id="Ellipse_188" data-name="Ellipse 188" cx="0.967" cy="0.967" r="0.967" transform="translate(4196.112 -3571.373)" fill="#f86b75"/>
      <circle id="Ellipse_189" data-name="Ellipse 189" cx="0.967" cy="0.967" r="0.967" transform="translate(4199.014 -3571.373)" fill="#fad375"/>
      <circle id="Ellipse_190" data-name="Ellipse 190" cx="0.967" cy="0.967" r="0.967" transform="translate(4201.917 -3571.373)" fill="#8bcc55"/>
      <rect id="Rectangle_147" data-name="Rectangle 147" width="66.434" height="20.64" transform="translate(4214.655 -3555.41)" fill="#53c5a3"/>
      <rect id="Rectangle_148" data-name="Rectangle 148" width="117.389" height="69.659" transform="translate(4193.209 -3573.631)" fill="none" stroke="#3f3d56" stroke-miterlimit="10" stroke-width="1"/>
      <line id="Line_5" data-name="Line 5" x2="117.389" transform="translate(4193.209 -3568.355)" fill="none" stroke="#3f3d56" stroke-miterlimit="10" stroke-width="1"/>
      <circle id="Ellipse_191" data-name="Ellipse 191" cx="0.967" cy="0.967" r="0.967" transform="translate(4196.435 -3572.018)" fill="none" stroke="#3f3d56" stroke-miterlimit="10" stroke-width="1"/>
      <circle id="Ellipse_192" data-name="Ellipse 192" cx="0.967" cy="0.967" r="0.967" transform="translate(4199.337 -3572.018)" fill="none" stroke="#3f3d56" stroke-miterlimit="10" stroke-width="1"/>
      <circle id="Ellipse_193" data-name="Ellipse 193" cx="0.967" cy="0.967" r="0.967" transform="translate(4202.239 -3572.018)" fill="none" stroke="#3f3d56" stroke-miterlimit="10" stroke-width="1"/>
      <rect id="Rectangle_149" data-name="Rectangle 149" width="66.434" height="20.64" transform="translate(4218.687 -3559.441)" fill="none" stroke="#3f3d56" stroke-miterlimit="10" stroke-width="1"/>
      <rect id="Rectangle_150" data-name="Rectangle 150" width="89.009" height="2.669" transform="translate(4206.271 -3525.74)" fill="#f2f2f2"/>
      <rect id="Rectangle_151" data-name="Rectangle 151" width="89.009" height="2.669" transform="translate(4206.271 -3519.334)" fill="#f2f2f2"/>
      <rect id="Rectangle_152" data-name="Rectangle 152" width="89.009" height="2.669" transform="translate(4206.271 -3512.929)" fill="#f2f2f2"/>
      <rect id="Rectangle_153" data-name="Rectangle 153" width="89.009" height="2.669" transform="translate(4207.238 -3527.03)" fill="none" stroke="#3f3d56" stroke-miterlimit="10" stroke-width="1"/>
      <rect id="Rectangle_154" data-name="Rectangle 154" width="89.009" height="2.669" transform="translate(4207.238 -3520.625)" fill="none" stroke="#3f3d56" stroke-miterlimit="10" stroke-width="1"/>
      <rect id="Rectangle_155" data-name="Rectangle 155" width="89.009" height="2.669" transform="translate(4207.238 -3514.219)" fill="none" stroke="#3f3d56" stroke-miterlimit="10" stroke-width="1"/>
    </g>
    <g id="Group_186" data-name="Group 186" transform="translate(-3209 3605)">
      <g id="Group_185" data-name="Group 185" transform="translate(-1030 373)" opacity="0.65">
        <circle id="Ellipse_194" data-name="Ellipse 194" cx="0.967" cy="0.967" r="0.967" transform="translate(4388.202 -3932.76)" fill="#f86b75"/>
        <circle id="Ellipse_195" data-name="Ellipse 195" cx="0.967" cy="0.967" r="0.967" transform="translate(4391.104 -3932.76)" fill="#fad375"/>
        <circle id="Ellipse_196" data-name="Ellipse 196" cx="0.967" cy="0.967" r="0.967" transform="translate(4394.006 -3932.76)" fill="#8bcc55"/>
        <rect id="Rectangle_156" data-name="Rectangle 156" width="66.434" height="20.64" transform="translate(4406.745 -3916.796)" fill="#53c5a3"/>
        <path id="Path_313" data-name="Path 313" d="M201.889,384.015V454H84.5V384.345l117.389-.33" transform="translate(4300.799 -4319.362)" fill="none" stroke="#3f3d56" stroke-miterlimit="10" stroke-width="1"/>
        <path id="Path_3511" data-name="Path 3511" d="M21.374-.08h95.62" transform="translate(4385.299 -3929.742)" fill="none" stroke="#3f3d56" stroke-width="1"/>
        <circle id="Ellipse_197" data-name="Ellipse 197" cx="0.967" cy="0.967" r="0.967" transform="translate(4388.524 -3933.405)" fill="none" stroke="#3f3d56" stroke-miterlimit="10" stroke-width="1"/>
        <circle id="Ellipse_198" data-name="Ellipse 198" cx="0.967" cy="0.967" r="0.967" transform="translate(4391.427 -3933.405)" fill="none" stroke="#3f3d56" stroke-miterlimit="10" stroke-width="1"/>
        <circle id="Ellipse_199" data-name="Ellipse 199" cx="0.967" cy="0.967" r="0.967" transform="translate(4394.329 -3933.405)" fill="none" stroke="#3f3d56" stroke-miterlimit="10" stroke-width="1"/>
        <rect id="Rectangle_157" data-name="Rectangle 157" width="66.434" height="20.64" transform="translate(4410.776 -3920.827)" fill="none" stroke="#3f3d56" stroke-miterlimit="10" stroke-width="1"/>
        <rect id="Rectangle_165" data-name="Rectangle 165" width="20.317" height="17.415" transform="translate(4389.653 -3888.094)" fill="#f2f2f2"/>
        <rect id="Rectangle_166" data-name="Rectangle 166" width="20.317" height="17.415" transform="translate(4427.224 -3887.933)" fill="#f2f2f2"/>
        <rect id="Rectangle_167" data-name="Rectangle 167" width="20.317" height="17.415" transform="translate(4464.794 -3887.771)" fill="#f2f2f2"/>
        <rect id="Rectangle_168" data-name="Rectangle 168" width="20.317" height="17.415" transform="translate(4392.555 -3891.319)" fill="none" stroke="#3f3d56" stroke-miterlimit="10" stroke-width="1"/>
        <rect id="Rectangle_169" data-name="Rectangle 169" width="20.317" height="17.415" transform="translate(4430.126 -3891.157)" fill="none" stroke="#3f3d56" stroke-miterlimit="10" stroke-width="1"/>
        <rect id="Rectangle_170" data-name="Rectangle 170" width="20.317" height="17.415" transform="translate(4467.697 -3890.996)" fill="none" stroke="#3f3d56" stroke-miterlimit="10" stroke-width="1"/>
      </g>
    </g>
    <g id="Group_173" data-name="Group 173" transform="matrix(1, -0.017, 0.017, 1, 917.045, 197.915)">
      <path id="Path_2750" data-name="Path 2750" d="M1.378,72.72l.344-.321C.835,72.219,0,72.138,0,72.138s3.041-11,8.171-14.674a24.077,24.077,0,0,0,6.144-7.429,112.314,112.314,0,0,1,9.15-13.415l.925-1.166.4-.507a4.431,4.431,0,0,1-1.159-2.618.045.045,0,0,0,0-.019,1.284,1.284,0,0,1,0-.154,1.786,1.786,0,0,1,.064-.356l.035.055c.434-1.259,2.1-1.815,3.337-2.508,2.891-1.628,4.127-5.187,4.744-8.495.482-2.569.88-5.46,2.891-7.114,1.284-1.063,3.032-1.413,4.326-2.47a12.648,12.648,0,0,0,2.682-3.918,15.694,15.694,0,0,1,5.219-5.887,8.7,8.7,0,0,1,7.538-1c.941.36,1.8.919,2.727,1.307,2.313.964,4.962.835,7.252,1.853,2.82,1.253,4.654,4.021,6.33,6.648a31.638,31.638,0,0,1,3,5.348v-.209a7.65,7.65,0,0,1,.6,2.781,4.182,4.182,0,0,1-.132,1.208,3.894,3.894,0,0,1-2.608,2.489,10.892,10.892,0,0,1-.283,1.211,11.883,11.883,0,0,1-7.676,7.84c-.106.039-.215.064-.321.1a2.556,2.556,0,0,1-.382.707c-1.025,1.285-3.08.919-4.416-.016-.055-.035-.106-.08-.157-.119a4.844,4.844,0,0,1-.058.543c-.029.154-.051.321-.083.459a22.2,22.2,0,0,1-4.288,9.995s-.286.43-.752,1.143c.244,3.581-1.391,6.844-3.279,9.365,1.628.941,5.139,2.785,7.31,2.63,0,0,7.978,1.031,8.9.514.128-.071.25.026.366.244,2.2-1.339,9.221-5.2,9.822-.244.543,4.5-5.858,5.071-8.906,5.094.138,1.317.215,2.37.215,2.37l-13.107-.9-6.825-1.005a8.21,8.21,0,0,0,2.438,2.322s6.17,4.994,7.236,5.039c.151,0,.2.151.177.392,2.595,0,10.666.376,8.427,4.872-2.033,4.076-7.756,1.256-10.345-.3-.61,1.185-1.13,2.113-1.13,2.113L43.943,68.727,41.653,66.8a8.153,8.153,0,0,1-2.277-.44.26.26,0,0,1-.032.084,4.386,4.386,0,0,0-.183.726c-.642,3.69,1.516,12.3,1.516,12.3s4.747,12.105,2.466,13.756-.594,8.617-.594,8.617a12.9,12.9,0,0,1-1.368,1.889h0a5.755,5.755,0,0,1-.8.761,7.452,7.452,0,0,1,.263.883,7.2,7.2,0,0,1-.376,4.445c-1.568,3.8-.613,9.314-.613,9.314l3.077,20.786c1.477-.225,3.385-.411,4.095,0,1.089.613.732,3.706-1.8,5.036a6.506,6.506,0,0,0,2.6,1.2c2.248.514,3.828.842,4.869,1.041.067,0,5.4-1.176,6.764-.4s.71,5.087-3.183,6.144c-3.809,1.031-18.015,2.544-22.106,1.927l-.26-.045c-3.479-.687-.424-5.258-.039-5.813.026-.186.048-.382.074-.594.055-.475.1-1.021.138-1.606a51.954,51.954,0,0,1-9.465.267,1.028,1.028,0,0,1-.231-.042c-3.08-.61-.382-4.651-.035-5.139q.023-.186.048-.395v-.035c0-.093.023-.193.032-.289a1.246,1.246,0,0,1,.026-.251c.026-.087,0-.154.023-.234q.019-.238.038-.491v-.209c0-.128.016-.257.023-.389v-.215c0-.193,0-.392.019-.591v-1.571c0-.215-.019-.437-.032-.658l-.019-.238c0-.164-.026-.321-.042-.488a.772.772,0,0,0-.026-.241c-.026-.225-.055-.45-.087-.678a1.441,1.441,0,0,0-.032-.2c-.029-.17-.058-.344-.09-.517a1.239,1.239,0,0,0-.051-.257q-.057-.28-.125-.559a.673.673,0,0,0-.036-.154c-.058-.225-.122-.446-.19-.668-.023-.077-.048-.154-.074-.231-.055-.167-.112-.321-.174-.495l-.077-.206c-.086-.219-.179-.433-.276-.642-.026-.055-.055-.109-.083-.164-.08-.167-.167-.321-.257-.495l-.109-.189c-.122-.206-.247-.411-.385-.607-3.533-5.036-4.465-14.748-4.378-16.862s-.421-6.5-1.053-7.146a55.786,55.786,0,0,1-4.365-6.456c-.266-.475-.5-.922-.681-1.32-1.047-.363-1.741-.642-1.741-.642h0a14.9,14.9,0,0,0,.527-4.14,12.549,12.549,0,0,0-3.88-9.256c-4.58-4.317-5.219-8.595-5.28-10.239v-.305C1.362,72.867,1.378,72.72,1.378,72.72Z" transform="translate(0 0)" fill="url(#linear-gradient-2)"/>
      <path id="Path_2751" data-name="Path 2751" d="M1.037,4.976a55.24,55.24,0,0,0,4.175,6.382c.6.643,1.089,4.981,1.005,7.066s.8,11.694,4.175,16.672,1.641,13.582,1.641,13.582l5.386,1.889h6.472l4.458-1.333,1.175-3.244s-1.567-.241-5.46-1.166a5.052,5.052,0,0,1-4.031-4.583L17.3,21.153s-.806-4.818.524-8.151a6.636,6.636,0,0,0-.437-5.813L17.3,7.054A54.432,54.432,0,0,0,8.787,1.639C4.981-.2,1.12-1.072.025,2.188-.116,2.609.346,3.691,1.037,4.976Z" transform="translate(12.546 94.68)" fill="#fbbebe"/>
      <path id="Path_2752" data-name="Path 2752" d="M1.037,4.976a55.24,55.24,0,0,0,4.175,6.382c.6.643,1.089,4.981,1.005,7.066s.8,11.694,4.175,16.672c2.377,3.51,2.219,8.816,1.927,11.646-.125,1.185-.28,1.927-.28,1.927l5.386,1.889h6.465l4.458-1.323,1.175-3.244s-.392-.061-1.285-.235-2.248-.469-4.194-.931a5.052,5.052,0,0,1-4.011-4.583L17.3,21.153s-.806-4.818.524-8.151a6.636,6.636,0,0,0-.437-5.813L17.3,7.054A54.432,54.432,0,0,0,8.787,1.639C4.981-.2,1.12-1.072.025,2.188-.116,2.609.346,3.691,1.037,4.976Z" transform="translate(12.581 92.68)" opacity="0.05"/>
      <path id="Path_2753" data-name="Path 2753" d="M0,2.926,5.386,4.814h6.472l4.458-1.336L17.491.235S17.1.174,16.206,0A2.424,2.424,0,0,1,14.34,2.621l-2.531.087c-.356,0-.716.019-1.069.019A32.275,32.275,0,0,1,.276.989C.148,2.174,0,2.926,0,2.926Z" transform="translate(24.58 140.436)" opacity="0.1"/>
      <path id="Path_2754" data-name="Path 2754" d="M12.962,3.854,15.5,3.767A2.472,2.472,0,0,0,17.282.584S21.842-.45,23.008.234s.6,4.458-2.692,5.383C17.1,6.519,5.074,7.846,1.615,7.3l-.222-.039c-3.135-.642,0-5.139,0-5.139h0A32.394,32.394,0,0,0,12.962,3.854Z" transform="translate(23.432 139.836)" fill="#2f2e41"/>
      <path id="Path_2755" data-name="Path 2755" d="M.738,4.75c.17.341.353.694.562,1.063a59.833,59.833,0,0,0,4.586,7c.681.726,1.224,5.62,1.137,7.984s.9,13.194,4.712,18.815c1.949,2.89,2.389,6.825,2.358,9.992q-.015,1.61-.19,3.212c-.141,1.307-.321,2.123-.321,2.123l6.076,2.129h7.313L32,55.573,33.321,51.9s-.44-.071-1.429-.267-2.531-.524-4.734-1.044a5.711,5.711,0,0,1-4.538-5.171L19.54,23.876s-.909-5.444.588-9.2a7.386,7.386,0,0,0,.36-4.4,7.008,7.008,0,0,0-.963-2.319s-1.175-.925-2.949-2.149c-.784-.54-1.692-1.137-2.669-1.741C9.616,1.413,3.972-1.3,1.268.678a3.5,3.5,0,0,0-1.246,1.8A4.563,4.563,0,0,0,.738,4.75Z" transform="translate(20.049 95.644)" fill="#fbbebe"/>
      <path id="Path_2756" data-name="Path 2756" d="M0,3.308l6.077,2.13h7.3l5.033-1.5L19.723.267S19.283.2,18.294,0a2.682,2.682,0,0,1-.855,2.373,2.861,2.861,0,0,1-1.811.681l-2.3.074c-.4,0-.806.022-1.208.022A36.531,36.531,0,0,1,.305,1.185C.164,2.492,0,3.308,0,3.308Z" transform="translate(33.647 147.279)" opacity="0.1"/>
      <path id="Path_2757" data-name="Path 2757" d="M14.626,4.349l2.3-.077a2.891,2.891,0,0,0,1.815-.681A2.84,2.84,0,0,0,19.5.658S24.64-.507,25.966.263,26.644,5.3,22.928,6.34C19.289,7.358,5.723,8.855,1.817,8.245L1.57,8.2c-3.533-.726,0-5.807,0-5.807h0A36.436,36.436,0,0,0,14.626,4.349Z" transform="translate(32.349 146.605)" fill="#2f2e41"/>
      <path id="Path_2758" data-name="Path 2758" d="M1.046,4.969A30.769,30.769,0,0,0,8.25,6.8,3.213,3.213,0,0,0,8.8,6.771h0a63.353,63.353,0,0,1,8.585.418c1.41.125,2.765.257,3.886.373,1.67.173,2.82.3,2.82.3V6.771c-.784-.54-1.693-1.137-2.669-1.741C17.13,2.374,11.487-.337,8.783,1.639,4.977-.2,1.117-1.072.021,2.188A5.88,5.88,0,0,0,1.046,4.969Z" transform="translate(12.538 94.687)" opacity="0.1"/>
      <path id="Path_2759" data-name="Path 2759" d="M0,3.472C.064,5.1.674,9.327,5.048,13.6,10.624,19.042,8.26,26.86,8.26,26.86s6.648,2.611,9.516,2.682a3.255,3.255,0,0,0,.549-.026c1.722-.241,8.556.392,12.484.79,1.67.173,2.82.3,2.82.3V7.48L2.819,0,.028,2.778A5.091,5.091,0,0,0,0,3.472Z" transform="translate(3.024 70.854)" fill="#5c5c8e"/>
      <path id="Path_2760" data-name="Path 2760" d="M0,0" transform="translate(13.968 96.987)" fill="none"/>
      <g id="Group_157" data-name="Group 157" transform="translate(3.027 70.863)" opacity="0.1">
        <path id="Path_2761" data-name="Path 2761" d="M12.288.839,12.8.894v.244s-1.15-.125-2.82-.3C7.155.553,2.849.152,0,.033,1.972-.147,8.486.454,12.288.839Z" transform="translate(20.818 29.47)"/>
        <path id="Path_2762" data-name="Path 2762" d="M.012,2.781,2.8,0,4.663.466,2.325,2.794a5.134,5.134,0,0,0,0,.7C2.386,5.116,3,9.346,7.37,13.618c5.576,5.441,3.212,13.261,3.212,13.261a52.855,52.855,0,0,0,8.653,2.6,7.913,7.913,0,0,0-.9.048,3.207,3.207,0,0,1-.549.029c-2.868-.071-9.516-2.682-9.516-2.682s2.376-7.82-3.212-13.261C.684,9.346.073,5.116.012,3.491A5.193,5.193,0,0,1,.012,2.781Z" transform="translate(0)"/>
      </g>
      <path id="Path_2763" data-name="Path 2763" d="M0,3.072S9.314-3.39,10,2.43,0,7.418,0,7.418Z" transform="translate(64.595 54.919)" fill="#fbbebe"/>
      <path id="Path_2764" data-name="Path 2764" d="M6.812,0s5.039,3.334,7.827,3.128c0,0,7.618,1.021,8.5.511s1.426,7.387,1.426,7.387l-12.526-.883L4.015,8.916S0,6.468,0,4.358,6.812,0,6.812,0Z" transform="translate(41.725 53.705)" fill="#f7cddd"/>
      <path id="Path_2765" data-name="Path 2765" d="M6.812,0s5.039,3.334,7.827,3.128c0,0,7.618,1.021,8.5.511s1.426,7.387,1.426,7.387l-12.526-.883L4.015,8.916S0,6.468,0,4.358,6.812,0,6.812,0Z" transform="translate(41.725 53.705)" fill="#ff6f61" opacity="0.05"/>
      <path id="Path_2766" data-name="Path 2766" d="M2.331.011s11.328-.469,8.791,4.818S0,3.7,0,3.7Z" transform="translate(53.595 70.511)" fill="#fbbebe"/>
      <path id="Path_2767" data-name="Path 2767" d="M0,17.8s9.182-6.87,7.888-15.237S0,8.97,0,8.97Z" transform="translate(44.532 41.482)" fill="#5c5c8e"/>
      <path id="Path_2768" data-name="Path 2768" d="M0,11.6a11.619,11.619,0,0,0,3.266,8.065A10.921,10.921,0,0,0,4.943,21.1a11.98,11.98,0,0,0,3.809,1.76,12.111,12.111,0,0,0,1.647.292c.4.038.8.061,1.208.061a11.323,11.323,0,0,0,3.825-.642A11.607,11.607,0,1,0,0,11.615Z" transform="translate(47.07 9.753)" fill="#fbbebe"/>
      <path id="Path_2769" data-name="Path 2769" d="M.013,3.472c1.041.193,2.325.54,2.325,1.079,0,.909,14.511,5.807,14.511,5.807s-.543,1.266.905,3.443S31,28.491,31,28.491l-.039.373-.151,1.442L30.088,37.2s4.535-1.631,5.987-1.452a1.99,1.99,0,0,0,1.448-.674,7.008,7.008,0,0,0-.964-2.319s-1.175-.925-2.948-2.149V7.48L2.8,0,.01,2.778A5.114,5.114,0,0,0,.013,3.472Z" transform="translate(3.014 70.854)" opacity="0.1"/>
      <path id="Path_2770" data-name="Path 2770" d="M0,47.33s3.629.36,3.629,1.269S18.14,54.405,18.14,54.405s-.543,1.265.906,3.443S32.288,72.542,32.288,72.542l-.909,8.7s4.535-1.632,5.987-1.452c.642.08,1.365-.517,1.959-1.214a12.63,12.63,0,0,0,1.307-1.866s-1.635-6.9.543-8.527-2.357-13.6-2.357-13.6-2.049-8.511-1.445-12.163a4.42,4.42,0,0,1,.174-.719.26.26,0,0,1,.026-.08c1.285-3.488,15.211-32.76,15.211-32.76a21.027,21.027,0,0,0-.173-2.483c-.029-.228-.068-.466-.109-.707a12,12,0,0,0-.283-1.285,8.087,8.087,0,0,0-.263-.8c-.431-1.1-1.089-1.956-2.072-1.975A6.087,6.087,0,0,0,46.239.082a15.845,15.845,0,0,0-8.151,1.532C29.567,5.237,27.569,5.423,27.569,5.423l-4.281,5.621-.88,1.153a111.09,111.09,0,0,0-8.739,13.264A23.611,23.611,0,0,1,7.8,32.809C2.9,36.448,0,47.33,0,47.33Z" transform="translate(1.723 25.718)" fill="#ff6f61"/>
      <path id="Path_2771" data-name="Path 2771" d="M16.8,0S4.693,2.993,0,10.541Z" transform="translate(16.712 52.075)" opacity="0.1"/>
      <path id="Path_2772" data-name="Path 2772" d="M1.766,0S-.524,15.375.112,16.531,1.766,0,1.766,0Z" transform="translate(28.006 65.335)" opacity="0.1"/>
      <path id="Path_2773" data-name="Path 2773" d="M.289,3.886c.88,1.153,4.455,10.066,4.455,10.066L3.713,28.918l-.909,8.7s4.531-1.632,5.984-1.452c.642.08,1.368-.517,1.959-1.214-.941-5.1-2.955-15.763-3.318-15.969C6.95,18.715,4.5,10.146,4.371,7.747S.838,0,.838,0-.6,2.733.289,3.886Z" transform="translate(30.3 69.342)" opacity="0.1"/>
      <path id="Path_2774" data-name="Path 2774" d="M.055,28.727c.225.678.572,4.625.572,4.625A5.34,5.34,0,0,0,5.139,38.33a4.355,4.355,0,0,1,.173-.719C6.4,34.53,20.549,4.783,20.549,4.783A19.535,19.535,0,0,0,19.984.306C16.9-.6,12.028.794,12.028.794,10.618.608,6.019,9.752,6.019,9.752s-3.064,7-3.4,7.956,0,2.518-.135,3.064S.916,21.786.713,22.538s-.07,2.248-.205,2.515A11.131,11.131,0,0,0,.055,28.727Z" transform="translate(33.956 29.809)" opacity="0.1"/>
      <path id="Path_2775" data-name="Path 2775" d="M.055,28.732c.225.681.572,4.625.572,4.625a5.137,5.137,0,0,0,3.623,4.724,7.6,7.6,0,0,0,2.178.434l2.187,1.9,10.1,7.435s3.764-6.96,2.743-7-6.911-4.985-6.911-4.985c-1.8-.964-3.607-4.175-4.445-5.826a5.2,5.2,0,0,0,.109-.6c.363-3.08,7.981-14.874,7.981-14.874a22.271,22.271,0,0,0,4.092-9.886c.032-.148.055-.3.084-.453a4.609,4.609,0,0,0,.058-.6C22.562,1.159,20.764.26,18.631.048h0a15.214,15.214,0,0,0-3.34.1,24.158,24.158,0,0,0-3.267.642C11.113.671,8.864,4.464,7.39,7.152h0c-.793,1.458-1.365,2.6-1.365,2.6s-3.064,7-3.4,7.955,0,2.521-.135,3.064S.922,21.785.719,22.536.649,24.785.514,25.051A11.158,11.158,0,0,0,.055,28.732Z" transform="translate(35.045 29.259)" fill="#fe7063"/>
      <path id="Path_2776" data-name="Path 2776" d="M0,32.541c1.927,1.969,5.039,1.975,7.538.963s4.615-2.823,6.931-4.233c1.5-.919,3.1-1.67,4.577-2.618h0c.218-.141.43-.283.642-.43,1.709-1.208,3.189-2.759,4.959-3.854a7.707,7.707,0,0,1,3.983-1.285,4.529,4.529,0,0,1,1.9.4,2.588,2.588,0,0,1,.321.157,8.188,8.188,0,0,1,1.606,1.2c.5.45.98.928,1.506,1.349.032-.148.055-.3.084-.453a4.653,4.653,0,0,0,.058-.6c.4.038.8.061,1.208.061a11.322,11.322,0,0,0,3.825-.642.258.258,0,0,1,.029-.145c.433-2.287,1.217-4.708,3.057-5.993,1.066-.745,2.769-1.05,4.246-1.606A11.607,11.607,0,1,0,24.6,16.068,15.847,15.847,0,0,0,16.444,17.6C7.923,21.223,5.926,21.409,5.926,21.409L1.644,27.03a4.8,4.8,0,0,1,1.035,2.229C2.759,30.771,1.285,31.828,0,32.541Z" transform="translate(23.382 9.757)" opacity="0.1"/>
      <path id="Path_2777" data-name="Path 2777" d="M42.205,23.377c-1.84,1.285-2.624,3.7-3.061,5.987a4.666,4.666,0,0,1-.7,2.03c-.964,1.265-2.942.909-4.217,0s-2.28-2.287-3.7-2.929c-1.889-.854-4.111-.231-5.881.877S21.393,32,19.685,33.2c-1.654,1.166-3.5,2-5.219,3.048-2.316,1.41-4.432,3.231-6.931,4.233s-5.62,1-7.535-.963c1.285-.713,2.759-1.766,2.659-3.3S.781,33.549.9,31.982,2.862,29.8,4.185,29.03c2.762-1.606,3.941-5.139,4.532-8.4.459-2.55.838-5.4,2.743-7.037,1.23-1.053,2.891-1.4,4.13-2.441a12.693,12.693,0,0,0,2.569-3.877,15.419,15.419,0,0,1,4.982-5.823,7.988,7.988,0,0,1,7.2-.983c.9.356,1.718.909,2.6,1.285,2.21.963,4.737.825,6.925,1.831,2.694,1.24,4.445,3.976,6.048,6.574,1.355,2.226,4.044,6.15,3.282,9.041C48.439,22.141,44.2,21.984,42.205,23.377Z" transform="translate(23.386 1.702)" fill="#4c3e42"/>
      <g id="Group_158" data-name="Group 158" transform="translate(23.385 16.954)" opacity="0.1">
        <path id="Path_2778" data-name="Path 2778" d="M.006.353A2,2,0,0,1,.067,0,5.433,5.433,0,0,1,1.22,2.412a2.178,2.178,0,0,1-.051.62C.625,2.168-.071,1.355.006.353Z" transform="translate(0.897 16.2)"/>
        <path id="Path_2779" data-name="Path 2779" d="M6.992,22.88c2.5-1,4.612-2.823,6.928-4.233,1.725-1.05,3.568-1.882,5.222-3.048,1.709-1.208,3.189-2.759,4.959-3.854s3.989-1.731,5.881-.88c1.423.642,2.425,2.007,3.7,2.932s3.237,1.285,4.217,0a4.668,4.668,0,0,0,.7-2.03c.434-2.283,1.221-4.7,3.058-5.987,2-1.4,6.237-1.24,7-4.175A4.56,4.56,0,0,0,48.764,0a6.413,6.413,0,0,1,.446,3.774c-.77,2.948-5.007,2.791-7,4.175-1.84,1.285-2.624,3.706-3.061,5.99a4.71,4.71,0,0,1-.7,2.03c-.964,1.265-2.942.909-4.22-.016s-2.277-2.287-3.7-2.929c-1.889-.851-4.111-.228-5.881.88s-3.251,2.659-4.959,3.854c-1.654,1.169-3.5,2-5.219,3.048-2.316,1.413-4.432,3.234-6.931,4.236s-5.621,1-7.535-.964a9.207,9.207,0,0,0,1.4-.928A8,8,0,0,0,6.992,22.88Z"/>
      </g>
      <path id="Path_2780" data-name="Path 2780" d="M28.993,9.752,3.3.155A2.441,2.441,0,0,0,.155,1.588h0A2.444,2.444,0,0,0,1.591,4.732l25.694,9.6,5.5-.552Z" transform="translate(58.229 52.05)" fill="#5c5c8e"/>
      <path id="Path_2781" data-name="Path 2781" d="M.929.44h0A2.447,2.447,0,0,0,2.365,3.588l25.694,9.6L32.2,12.77l.594.642-5.505.552L1.59,4.365A2.444,2.444,0,0,1,.155,1.22h0a2.434,2.434,0,0,1,1-1.22A2.661,2.661,0,0,0,.929.44Z" transform="translate(58.235 52.428)" fill="#fff" opacity="0.1"/>
      <path id="Path_2782" data-name="Path 2782" d="M1.712,0,0,4.58l4.519-.453.989-.1L4.156,2.6Z" transform="translate(85.51 61.803)" fill="#efc8c4"/>
      <path id="Path_2783" data-name="Path 2783" d="M.329,0A.979.979,0,0,0,.065.289a.414.414,0,0,0,0,.446,1.008,1.008,0,0,0,.25.177.819.819,0,0,1,.366.62l.989-.1Z" transform="translate(89.341 64.398)" fill="#727a9c"/>
    </g>
    <g id="Group_203" data-name="Group 203" transform="translate(-3411.489 5361.561)" opacity="0.85">
      <g id="Group_146" data-name="Group 146" transform="translate(3800.06 -5331.561)" opacity="0.2">
        <path id="Path_2448" data-name="Path 2448" d="M671.859,518.784v35.74c0,1.066-1.991,1.915-4.468,1.915H573.108c-2.464,0-4.468-.862-4.468-1.915v-35.74c0-1.066,1.991-2.144,4.468-2.144h94.3C669.868,516.608,671.859,517.686,671.859,518.784Z" transform="translate(-568.64 -516.639)" fill="#53c5a3"/>
      </g>
      <rect id="Rectangle_559" data-name="Rectangle 559" width="49.117" height="1.736" transform="translate(3845.367 -5318.834)" fill="#53c5a3"/>
      <rect id="Rectangle_560" data-name="Rectangle 560" width="49.117" height="1.736" transform="translate(3845.367 -5314.609)" fill="#53c5a3" opacity="0.2"/>
      <rect id="Rectangle_561" data-name="Rectangle 561" width="49.117" height="1.736" transform="translate(3845.367 -5310.378)" fill="#53c5a3" opacity="0.2"/>
      <rect id="Rectangle_562" data-name="Rectangle 562" width="49.117" height="1.736" transform="translate(3845.367 -5306.153)" fill="#53c5a3" opacity="0.2"/>
      <path id="Path_2449" data-name="Path 2449" d="M594.091,530.62a11.647,11.647,0,0,0-6.42,21.361v-1.972a2.648,2.648,0,0,1,2.33-2.617,4.621,4.621,0,0,0,8.105,0,2.642,2.642,0,0,1,2.33,2.617v2.023a11.647,11.647,0,0,0-6.344-21.412Zm5.106,14.213a.713.713,0,0,1-.153.2.638.638,0,0,1-.338.115h-.243a4.621,4.621,0,1,1-8.444-3.587h-.051a1.538,1.538,0,0,1,.153-2.138,3.076,3.076,0,0,1,.957-.351,4.27,4.27,0,0,0,2.425-1.851,5.1,5.1,0,0,1,0,.7,1.028,1.028,0,0,1,1.461-.051,2.64,2.64,0,0,0,.415.466,1.219,1.219,0,0,0,.517.153l1.162.147a2.183,2.183,0,0,1,1.321.479,2.093,2.093,0,0,1,.44.779,11.528,11.528,0,0,1,.759,2.457,3.918,3.918,0,0,1-.364,2.476Z" transform="translate(3226.424 -5853.258)" fill="#53c5a3" opacity="0.2"/>
    </g>
    <g id="Group_192" data-name="Group 192" transform="translate(-2991 3685)">
      <rect id="Rectangle_655" data-name="Rectangle 655" width="72.839" height="14.542" rx="7.271" transform="translate(3693.99 -3605.372)" opacity="0.1"/>
      <rect id="Rectangle_656" data-name="Rectangle 656" width="26.301" height="12.95" rx="6.475" transform="translate(3695.813 -3604.576)" fill="#53c5a3"/>
      <ellipse id="Ellipse_737" data-name="Ellipse 737" cx="4.047" cy="4.047" rx="4.047" ry="4.047" transform="translate(3705.117 -3602.146)" fill="#fff"/>
    </g>
    <g id="Group_199" data-name="Group 199" transform="translate(531.692 0.365)">
      <path id="Path_78" data-name="Path 78" d="M495.506,569.091H366.99c-2.505,0-4.536-1.446-4.538-3.229V537.93c0-1.782,2.033-3.229,4.538-3.229H495.506c2.505,0,4.536,1.446,4.538,3.229v27.932C500.042,567.644,498.011,569.089,495.506,569.091Z" transform="translate(-323.684 -534.701)" fill="#08f" opacity="0"/>
      <path id="Path_78-2" data-name="Path 78" d="M424.664,597.209H296.148c-2.505,0-4.536-1.446-4.538-3.229V566.048c0-1.782,2.033-3.229,4.538-3.229H424.664c2.505,0,4.536,1.446,4.538,3.229V593.98C429.2,595.762,427.169,597.207,424.664,597.209Zm-128.515-33.1c-1.5,0-2.721.868-2.723,1.937v27.932c0,1.069,1.22,1.936,2.723,1.937H424.664c1.5,0,2.721-.868,2.723-1.937V566.048c0-1.069-1.22-1.936-2.723-1.937Z" transform="translate(-291.61 -547.431)" fill="#3f3d56" opacity="0.64"/>
      <ellipse id="Ellipse_4" data-name="Ellipse 4" cx="10.5" cy="11" rx="10.5" ry="11" transform="translate(12.308 21.635)" fill="#53c5a3"/>
      <path id="Path_40" data-name="Path 40" d="M373.673,580.206a1.984,1.984,0,1,0,0,3.967h74.359a1.984,1.984,0,1,0,.065-3.967H373.673Z" transform="translate(-327.866 -555.303)" fill="#3f3d56" opacity="0.51"/>
      <path id="Path_40-2" data-name="Path 40" d="M373.673,600.206a1.984,1.984,0,1,0,0,3.967h74.359a1.984,1.984,0,1,0,.065-3.967H373.673Z" transform="translate(-327.866 -564.358)" fill="#3f3d56" opacity="0.51"/>
      <ellipse id="Ellipse_12" data-name="Ellipse 12" cx="11.784" cy="3.699" rx="11.784" ry="3.699" transform="matrix(0.357, -0.934, 0.934, 0.357, 126.662, 57.594)" fill="#2f2e41"/>
      <ellipse id="Ellipse_13" data-name="Ellipse 13" cx="23.569" cy="23.569" rx="23.569" ry="23.569" transform="translate(85.502 85.191) rotate(-80.783)" fill="#2f2e41"/>
      <rect id="Rectangle_6" data-name="Rectangle 6" width="7.16" height="12.828" transform="translate(101.801 84.2)" fill="#2f2e41"/>
      <rect id="Rectangle_7" data-name="Rectangle 7" width="7.16" height="12.828" transform="translate(116.121 84.2)" fill="#2f2e41"/>
      <ellipse id="Ellipse_14" data-name="Ellipse 14" cx="5.967" cy="2.238" rx="5.967" ry="2.238" transform="translate(101.801 94.94)" fill="#2f2e41"/>
      <ellipse id="Ellipse_15" data-name="Ellipse 15" cx="5.967" cy="2.238" rx="5.967" ry="2.238" transform="translate(116.121 94.641)" fill="#2f2e41"/>
      <path id="Path_34" data-name="Path 34" d="M455.193,598.411c-1.9-8.523,4.18-17.135,13.587-19.235s18.576,3.106,20.479,11.628-4.331,11.666-13.739,13.767S457.1,606.934,455.193,598.411Z" transform="translate(-365.515 -554.626)" fill="#6c63ff"/>
      <ellipse id="Ellipse_16" data-name="Ellipse 16" cx="3.699" cy="11.784" rx="3.699" ry="11.784" transform="translate(73.763 53.059) rotate(-64.626)" fill="#2f2e41"/>
    </g>
    <g id="Group_200" data-name="Group 200" transform="translate(-2836 5374)">
      <g id="Group_146-2" data-name="Group 146" transform="translate(3800.06 -5331.561)" opacity="0.2">
        <path id="Path_2448-2" data-name="Path 2448" d="M710.283,519.583v49.045c0,1.463-2.732,2.627-6.131,2.627H574.771c-3.381,0-6.131-1.182-6.131-2.627V519.583c0-1.463,2.732-2.943,6.131-2.943h129.4C707.551,516.6,710.283,518.076,710.283,519.583Z" transform="translate(-568.64 -516.639)" fill="#53c5a3"/>
      </g>
      <rect id="Rectangle_559-2" data-name="Rectangle 559" width="67.402" height="2.382" transform="translate(3862.233 -5314.097)" fill="#53c5a3"/>
      <rect id="Rectangle_560-2" data-name="Rectangle 560" width="67.402" height="2.382" transform="translate(3862.233 -5308.299)" fill="#53c5a3" opacity="0.2"/>
      <rect id="Rectangle_561-2" data-name="Rectangle 561" width="67.402" height="2.382" transform="translate(3862.233 -5302.493)" fill="#53c5a3" opacity="0.2"/>
      <rect id="Rectangle_562-2" data-name="Rectangle 562" width="67.402" height="2.382" transform="translate(3862.233 -5296.694)" fill="#53c5a3" opacity="0.2"/>
      <path id="Path_2449-2" data-name="Path 2449" d="M598.424,530.62a15.983,15.983,0,0,0-8.81,29.313v-2.706a3.634,3.634,0,0,1,3.2-3.591,6.341,6.341,0,0,0,11.123,0,3.626,3.626,0,0,1,3.2,3.591V560a15.983,15.983,0,0,0-8.705-29.383Zm7.006,19.5a.979.979,0,0,1-.21.28.877.877,0,0,1-.464.158h-.333a6.341,6.341,0,1,1-11.587-4.922h-.07a2.111,2.111,0,0,1,.21-2.934,4.22,4.22,0,0,1,1.314-.482,5.859,5.859,0,0,0,3.328-2.54,7.02,7.02,0,0,1,0,.963,1.41,1.41,0,0,1,2.006-.07,3.621,3.621,0,0,0,.569.639,1.673,1.673,0,0,0,.709.21l1.594.2a3,3,0,0,1,1.813.657,2.873,2.873,0,0,1,.6,1.069,15.813,15.813,0,0,1,1.042,3.372,5.377,5.377,0,0,1-.5,3.4Z" transform="translate(3229.704 -5849.937)" fill="#53c5a3" opacity="0.2"/>
    </g>
    <g id="Group_207" data-name="Group 207" transform="translate(-3209 3643)">
      <g transform="matrix(1, 0, 0, 1, 3209, -3643)" filter="url(#Path_3512)">
        <path id="Path_3512-2" data-name="Path 3512" d="M18.6-192.334h82.811q53.05,0,85.4,33.457T219.16-70.706q0,54.9-33.365,87.986T96.978,50.367H18.6Zm52.681,45.842V3.417h20.7q32.163,0,52.866-17.56t20.7-58.6q0-23.845-9.982-42.237T126.645-139.93a110.4,110.4,0,0,0-36.137-6.562Zm272.99-45.842H384.8l98.875,242.7H431.03L411.6,2.677H318.463l-19.028,47.69H247.072Zm20.267,79.483L336.008-41.316h57.674Zm157.026-79.483h83q33.457,0,53.975,19.5t20.518,51.294A82.624,82.624,0,0,1,668.98-81.889q-10.074,18.762-30.407,28t-34.751,9.612l-30.315.739v93.9H521.567Zm51.2,43.623V-86.6H593.1A30.469,30.469,0,0,0,615.56-96.03,30.711,30.711,0,0,0,624.9-118.4q0-14.788-10.536-22.921t-29.945-8.133Z" transform="translate(280.64 289.53)" fill="#2f54eb"/>
      </g>
      <g id="Group_201" data-name="Group 201" transform="translate(-3106.257 6780.129)">
        <circle id="Ellipse_467" data-name="Ellipse 467" cx="0.799" cy="0.799" r="0.799" transform="translate(6707.525 -10130.674)" fill="#fff" opacity="0.6"/>
        <path id="Path_1285" data-name="Path 1285" d="M808.452,199.522c-.611-3.392-.308-7.048-1.862-10.113a2.241,2.241,0,0,0-.707-.907,2.446,2.446,0,0,0-1.267-.288q-2.1-.092-4.215-.04a1.175,1.175,0,0,0-1.059.4.8.8,0,0,0-.056.12c-1.6-1.8-2.829-4.036-4.563-5.7.248-.08.5-.16.747-.228-.024-.168-.056-.336-.092-.5l-.04-.148c-.028-.116-.06-.228-.092-.34s-.04-.108-.056-.164-.068-.212-.108-.316l-.068-.164c-.04-.1-.08-.208-.128-.308s-.044-.1-.068-.152l-.152-.32c0-.044-.044-.084-.064-.128-.06-.116-.116-.228-.176-.336l-.06-.108-.2-.36-.04-.068c-.08-.136-.16-.272-.244-.4h0c-.679-1.111-1.43-2.2-1.978-3.328-.971-2-1.291-4.251-1.934-6.393s-1.762-4.291-3.716-5.3c-.927-.479-2.178-.9-2.262-1.954a2.253,2.253,0,0,1,.2-.979,12.608,12.608,0,0,1,.971-1.962c.136-.232.288-.46.439-.679.036-.056.076-.108.116-.164.12-.168.244-.328.368-.487l.156-.2c.128-.152.256-.3.4-.444l.156-.176c.184-.2.372-.4.567-.571a1.331,1.331,0,0,0,.4-.527,1.6,1.6,0,0,0,.032-.627,7.5,7.5,0,0,1,1.794-4.651,17.517,17.517,0,0,0,2.713-4.263c.064-.184.12-.372.168-.555a1.052,1.052,0,0,1,.04-.188c.012-.064.056-.252.08-.376s.02-.148.032-.22.032-.236.044-.352a1.466,1.466,0,0,0,0-.232V143.18a1.7,1.7,0,0,0-.032-.376c-.032-.124,0-.136-.02-.2q-.024-.216-.06-.432v-.144c-.032-.2-.068-.4-.108-.591h0a30.22,30.22,0,0,0-1.091-3.712,13.229,13.229,0,0,0-.9-2.166c.22-.04.44-.092.663-.152-.14-.256-.36-.555-.484-.843a22.079,22.079,0,0,0,3.037-6.589,29.444,29.444,0,0,0,.623-5.094,105.509,105.509,0,0,0,.236-15.447v-.2a12.707,12.707,0,0,0,.032-3.328,13.974,13.974,0,0,0-1.866-6.137,7.49,7.49,0,0,0-5.17-3.636,7.674,7.674,0,0,1-1.155,1.067A4.531,4.531,0,0,1,785.03,93.1a11.412,11.412,0,0,0,9.57-9.989c.024-.188.04-.376.052-.563v-1.63a1.754,1.754,0,0,0-.032-.4V80.38a2.088,2.088,0,0,0-.056-.4v-.088c-.024-.152-.052-.3-.08-.448a.2.2,0,0,1,0-.048c-.032-.16-.068-.316-.108-.475h0a11.59,11.59,0,0,0-1.255-3.077,11.588,11.588,0,0,0,.9-3.3c.024-.208.044-.4.056-.615V70.767a11.587,11.587,0,0,0-3.2-7.64,7.107,7.107,0,0,0,.567-1.223h0c.044-.124.084-.248.124-.376h0c.036-.12.068-.24.1-.364v-.032c.028-.112.048-.224.072-.34v-.06c.024-.132.044-.264.06-.4s.028-.28.036-.4v-.979a7.028,7.028,0,0,0-14.009-.32,7.255,7.255,0,0,0,.064,2.166,11.463,11.463,0,0,0-6.393,8.974,11.617,11.617,0,0,0-.068,1.93,11.587,11.587,0,0,0-1.8,5.338h0v.216c0,.24-.028.479-.028.723a11.539,11.539,0,0,0,4.443,9.13,8.079,8.079,0,0,0,2.246,2.365,9.219,9.219,0,0,1,.36,1.486,4.556,4.556,0,0,1-1.362,3.688c-.26.216-.547.4-.8.6a1.458,1.458,0,0,0-.827.02c-3.065.963-5.993,2.869-7.412,5.794a11.046,11.046,0,0,0-.735,2.066c-.056.084-.116.168-.168.256a29.809,29.809,0,0,0-3.984,9.538,21.629,21.629,0,0,1-1.434,5.1,5.011,5.011,0,0,0-.467,1.035,10.6,10.6,0,0,0-.072,1.674,27.372,27.372,0,0,1-.867,2.9c-.12.591-.1,1.2-.2,1.8a18.243,18.243,0,0,1-1.107,2.961c-.635,1.746-.627,3.664-1.095,5.466a1.883,1.883,0,0,1-.368.8,4.2,4.2,0,0,1-1.239.667,2.729,2.729,0,0,0-1.243,1.862,8.3,8.3,0,0,0-.04,2.313l.232,3.017c-1.127.336-2.25.679-3.372,1.023l-5.542,1.694a16.306,16.306,0,0,0-4.6,1.942,8.39,8.39,0,0,0-2.9,3.516,17.541,17.541,0,0,0-1.075,4.595,70.018,70.018,0,0,1-2.849,12.95c-.112.324-.232.647-.352.971h0c-.12.32-.248.635-.376.951l-.084.192c-.1.256-.208.507-.32.755-.144.32-.288.639-.443.951l12.962,4.343a4.253,4.253,0,0,0,.056.507c.448,3.2.232,6.417.647,9.59a6.238,6.238,0,0,0,.36,1.554,2.205,2.205,0,0,0-.679,1.083,5.777,5.777,0,0,0-.068,2.066q.224,2.437.44,4.887a7.491,7.491,0,0,1,.02,1.794,19.151,19.151,0,0,1-1.119,3.049,2.722,2.722,0,0,0,.531,3,2.11,2.11,0,0,0,2.042.184,4.751,4.751,0,0,0,1.69-1.307c2.613-2.893,3.78-6.813,5.814-10.157a19.64,19.64,0,0,0,1.386-2.421c.28-.647.456-1.335.683-2a19.493,19.493,0,0,1,1.119-2.609c.24-.479,1.167-1.638.971-2.178-.332-.915-3.892-1.73-4.771-2a2.337,2.337,0,0,0-1.742-.08,1.147,1.147,0,0,0-.236.156c-.1-1.311-.2-2.621-.3-3.928.527-.048,1.051-.116,1.57-.2-.02-.739-.036-1.482-.052-2.23l-.048-2.05c-.036-1.658-.072-3.32-.116-4.959a26.6,26.6,0,0,0-.184-2.877c-.2-1.462-.647-2.885-.8-4.351a1.646,1.646,0,0,1,.735-.336h0a5.062,5.062,0,0,1,1.259-.044h.332a10.789,10.789,0,0,0,5.25-1.446c1.63-.855,3.145-1.918,4.767-2.8.2-.108.4-.212.611-.316l.224-.112.38-.188.316-.152.072-.036c.947-.452,1.9-.891,2.8-1.382a2.847,2.847,0,0,0,.2.288,1.878,1.878,0,0,0,2,.719c-1.119,2.705-2.437,5.322-2.773,8.247-.487,4.219,1.2,8.351,2.857,12.251l5.286,12.462c.583,1.378,1.362,2.925,2.8,3.252a4.177,4.177,0,0,0,2.653-.531,48.877,48.877,0,0,0,6.793-4.347.732.732,0,0,1,.088.068c2,1.578,3.256,3.788,4.639,5.894l3.708,6.085a1.769,1.769,0,0,0,.148.9,5.2,5.2,0,0,0,1.039,1.347,17.545,17.545,0,0,1,4.455,9.118,5.681,5.681,0,0,0,.735,2.489c.995,1.379,3.109,1.291,4.6.5a3,3,0,0,0,1.151-.951,3.807,3.807,0,0,0,.468-1.442,20.219,20.219,0,0,0,.443-3.824C809.775,204.233,808.876,201.912,808.452,199.522ZM787.2,87.557c.256-.172.5-.36.747-.555a11.48,11.48,0,0,1-2.4,4.076h0c-.252.276-.519.535-.8.8v-.188c-.032-.611,0-1.255.02-1.886a8.079,8.079,0,0,0,2.429-2.246ZM766.21,134.445a.381.381,0,0,1,.044-.116,2.463,2.463,0,0,1,.539.559,2.225,2.225,0,0,0,.08,2c.312.527.871,1.015.747,1.6s-.879.835-1.5.935c-.8.128-1.6.28-2.4.444v-.044a6.179,6.179,0,0,0-.272-1.978A5.606,5.606,0,0,0,766.21,134.445Z" transform="translate(5960.207 -10296.325)" fill="url(#linear-gradient-3)"/>
        <path id="Path_1286" data-name="Path 1286" d="M848.207,68.7a7.052,7.052,0,1,0-13.066-4.451,7.169,7.169,0,0,0,.064,2.134,11.332,11.332,0,0,0-6.373,8.87,11.716,11.716,0,0,0-.068,1.9A11.336,11.336,0,1,0,849.6,83.344V82.8a11.34,11.34,0,0,0-1.382-14.1Z" transform="translate(5902.943 -10299.765)" fill="#2f2e41"/>
        <path id="Path_1287" data-name="Path 1287" d="M847.41,73.8l.092-.048a2.977,2.977,0,0,0-.052-.372v.076A2.016,2.016,0,0,0,847.41,73.8Z" transform="translate(5890.646 -10308.967)"/>
        <path id="Path_1288" data-name="Path 1288" d="M851.313,102.638a11.284,11.284,0,0,1-1.754,4.831v.539a11.336,11.336,0,0,1-22.619.9c-.024.3-.04.611-.04.923a11.339,11.339,0,1,0,22.677,0c0-.178,0-.358,0-.539a11.284,11.284,0,0,0,1.738-4.811,11,11,0,0,0,.04-2.289A2.118,2.118,0,0,1,851.313,102.638Z" transform="translate(5902.961 -10326.266)"/>
        <path id="Path_1289" data-name="Path 1289" d="M881.111,73.36a7.076,7.076,0,0,1-.931,2.7,5.751,5.751,0,0,1,.567.635,7.066,7.066,0,0,0,.372-1.554,7.154,7.154,0,0,0-.008-1.778Z" transform="translate(5870.97 -10308.955)"/>
        <path id="Path_1290" data-name="Path 1290" d="M764.765,371.713a5.134,5.134,0,0,0,.515,1.858,2.042,2.042,0,0,0,1.5,1.1,3.057,3.057,0,0,0,1.658-.479,5.65,5.65,0,0,0,2.581-2.15,5.867,5.867,0,0,0,.352-3.244l-.675-8.643c-1.634-.048-3.276-.044-4.907.044s-1.9.467-1.674,2.046C764.565,365.384,764.345,368.573,764.765,371.713Z" transform="translate(5940.699 -10481.139)" fill="#fbbebe"/>
        <path id="Path_1291" data-name="Path 1291" d="M876.826,388.047l3.884,6.277a1.566,1.566,0,0,0,.847.8,1.346,1.346,0,0,0,.8-.144,10.186,10.186,0,0,0,3.24-2.685,6.013,6.013,0,0,0,1.554-2.4,3.045,3.045,0,0,0-.775-2.861,9.85,9.85,0,0,0-1.466-1.047c-3.073-2.07-4.459-5.993-7.488-8.135a1.2,1.2,0,0,0-.615-.264,1.266,1.266,0,0,0-.631.212l-4.143,2.274c-1.794.979-1.227,1.095.136,2.154C874.189,383.791,875.44,385.969,876.826,388.047Z" transform="translate(5876.541 -10491.626)" fill="#fbbebe"/>
        <path id="Path_1292" data-name="Path 1292" d="M772.357,376.3a2.4,2.4,0,0,0-1.742-.08,1.918,1.918,0,0,0-.907,1.434c-.108.575-.1,1.175-.256,1.738a5.876,5.876,0,0,1-1.694,2.4,2.505,2.505,0,0,1-1.067.739c-.559.144-1.155-.116-1.726,0a1.866,1.866,0,0,0-1.359,1.386,5.431,5.431,0,0,0-.068,2.034l.44,4.819a7.292,7.292,0,0,1,0,1.77,18.773,18.773,0,0,1-1.119,3,2.663,2.663,0,0,0,.531,2.961,2.146,2.146,0,0,0,2.046.18,4.794,4.794,0,0,0,1.694-1.287c2.617-2.853,3.784-6.721,5.818-10.013a19.575,19.575,0,0,0,1.394-2.4c.276-.643.456-1.319.679-2a19.843,19.843,0,0,1,1.123-2.569c.244-.476,1.167-1.6.975-2.15C776.808,377.374,773.24,376.575,772.357,376.3Z" transform="translate(5941.538 -10490.719)" fill="#2f2e41"/>
        <path id="Path_1293" data-name="Path 1293" d="M898.98,399.846a4.978,4.978,0,0,1-2.749,2.361,2.5,2.5,0,0,0-.927.483,1.454,1.454,0,0,0-.164,1.6,5.138,5.138,0,0,0,1.043,1.319,17.181,17.181,0,0,1,4.463,8.99,5.5,5.5,0,0,0,.739,2.453c.995,1.359,3.113,1.271,4.607.5a2.981,2.981,0,0,0,1.155-.935,3.735,3.735,0,0,0,.468-1.422,19.723,19.723,0,0,0,.443-3.772c-.028-2.4-.927-4.687-1.359-7.044-.611-3.344-.3-6.948-1.862-9.969a2.214,2.214,0,0,0-.711-.9,2.481,2.481,0,0,0-1.267-.284c-1.406-.06-2.817-.072-4.223-.036a1.172,1.172,0,0,0-1.063.4,1.236,1.236,0,0,0,.16,1.147C898.6,396.438,900.019,397.8,898.98,399.846Z" transform="translate(5862.087 -10500.98)" fill="#2f2e41"/>
        <path id="Path_1294" data-name="Path 1294" d="M767.445,256.348a2.166,2.166,0,0,0-.507,2.741c.312.519.871,1,.747,1.6s-.883.823-1.5.923a123.441,123.441,0,0,0-16.055,4.056l-5.55,1.67a16.607,16.607,0,0,0-4.611,1.918,8.291,8.291,0,0,0-2.9,3.464,17.291,17.291,0,0,0-1.079,4.527c-.831,5.674-1.894,11.4-4.427,16.542l13.461,4.4a19.361,19.361,0,0,0,4.032,1.015,15.065,15.065,0,0,0,3.928-.188c-.084-3-.136-6.1-.22-9.106a24.961,24.961,0,0,0-.184-2.841c-.2-1.438-.647-2.841-.8-4.287a3.348,3.348,0,0,1,2.326-.364,10.919,10.919,0,0,0,5.262-1.426c1.63-.843,3.153-1.89,4.795-2.745,2.705-1.43,5.782-2.4,7.847-4.655-1.051,4-3.536,7.5-4,11.619s1.2,8.231,2.861,12.079l5.3,12.287c.583,1.358,1.363,2.881,2.8,3.2a4.247,4.247,0,0,0,2.661-.523c4.871-2.285,8.79-6.573,13.985-7.947-.4-2.577-2.421-4.707-3.576-7.044-.971-1.97-1.291-4.187-1.938-6.289s-1.762-4.227-3.72-5.226c-.927-.471-2.182-.883-2.27-1.926a2.221,2.221,0,0,1,.208-.967,12.674,12.674,0,0,1,3.169-4.611,1.41,1.41,0,0,0,.4-.519,1.534,1.534,0,0,0,.032-.619,7.275,7.275,0,0,1,1.8-4.583,17,17,0,0,0,2.717-4.2c.967-2.717,0-5.7-.951-8.415a8.669,8.669,0,0,0-1.6-3.085c-1.247-1.335-3.2-1.718-5.006-1.918C779,254.263,772.092,252.724,767.445,256.348Z" transform="translate(5960.207 -10417.433)" fill="#2f2e41"/>
        <path id="Path_1295" data-name="Path 1295" d="M868.635,282.577a7.261,7.261,0,0,0-1.8,4.583,1.533,1.533,0,0,1-.032.619,1.422,1.422,0,0,1-.4.523,12.642,12.642,0,0,0-3.169,4.611,2.209,2.209,0,0,0-.208.967c.056.651.571,1.059,1.2,1.386a12.627,12.627,0,0,1,2.2-2.677,1.411,1.411,0,0,0,.4-.519,1.534,1.534,0,0,0,.032-.619,7.275,7.275,0,0,1,1.8-4.583,17,17,0,0,0,2.717-4.2,8.767,8.767,0,0,0,.144-4.755c-.044.156-.092.312-.144.464A17.92,17.92,0,0,1,868.635,282.577Z" transform="translate(5881.268 -10431.774)"/>
        <path id="Path_1296" data-name="Path 1296" d="M819.84,260.4a1.131,1.131,0,0,0,.863-.747.757.757,0,0,0,0-.232c-.084.064-.168.12-.252.188A2,2,0,0,0,819.84,260.4Z" transform="translate(5907.2 -10420.673)"/>
        <path id="Path_1297" data-name="Path 1297" d="M749.023,348.991a19.871,19.871,0,0,1-4.032-1.015l-11.883-3.9a35.306,35.306,0,0,1-1.6,3.772l13.461,4.4A19.354,19.354,0,0,0,749,353.262a15.064,15.064,0,0,0,3.928-.188c-.04-1.41-.072-2.845-.1-4.275a14.782,14.782,0,0,1-3.8.192Z" transform="translate(5960.237 -10471.505)"/>
        <path id="Path_1298" data-name="Path 1298" d="M836.219,353.917a4.2,4.2,0,0,1-2.661.527c-1.438-.324-2.218-1.85-2.8-3.2l-5.3-12.287a34.875,34.875,0,0,1-2.773-8.391c-.032.2-.064.4-.088.607-.487,4.159,1.2,8.231,2.861,12.079l5.3,12.287c.583,1.358,1.362,2.881,2.8,3.2a4.248,4.248,0,0,0,2.661-.523c4.871-2.285,8.79-6.573,13.985-7.947a10.076,10.076,0,0,0-1.6-3.76C844.162,348.239,840.578,351.887,836.219,353.917Z" transform="translate(5905.593 -10463.394)"/>
        <path id="Path_1299" data-name="Path 1299" d="M802.37,292.27c-2.066,2.258-5.142,3.22-7.847,4.651-1.622.859-3.141,1.906-4.795,2.749a11.036,11.036,0,0,1-5.262,1.426,3.417,3.417,0,0,0-2.325.36c.128,1.339.515,2.633.735,3.96a7.038,7.038,0,0,1,1.6-.032,10.919,10.919,0,0,0,5.262-1.426c1.63-.843,3.153-1.89,4.795-2.745,1.782-.943,3.724-1.686,5.434-2.725A47.608,47.608,0,0,0,802.37,292.27Z" transform="translate(5929.837 -10440.396)"/>
        <path id="Path_1300" data-name="Path 1300" d="M839.792,146.173a4.417,4.417,0,0,1-1.367,3.632c-.332.276-.715.487-1.035.775a2.8,2.8,0,0,0,.4,4.239,5.269,5.269,0,0,0,3.664.264,21.533,21.533,0,0,0,4.795-1.255,7.991,7.991,0,0,0,3.8-3.109,4.668,4.668,0,0,1-2.162-3.86c-.084-1.534.34-3.288-.635-4.483s-2.677-1.155-4.1-.755c-.719.2-1.414.471-2.134.667-.364.1-1.57.1-1.806.368C838.757,143.152,839.748,145.394,839.792,146.173Z" transform="translate(5897.137 -10349.791)" fill="#fbbebe"/>
        <path id="Path_1301" data-name="Path 1301" d="M839.792,146.173a4.417,4.417,0,0,1-1.367,3.632c-.332.276-.715.487-1.035.775a2.8,2.8,0,0,0,.4,4.239,5.269,5.269,0,0,0,3.664.264,21.533,21.533,0,0,0,4.795-1.255,7.991,7.991,0,0,0,3.8-3.109,4.668,4.668,0,0,1-2.162-3.86c-.084-1.534.34-3.288-.635-4.483s-2.677-1.155-4.1-.755c-.719.2-1.414.471-2.134.667-.364.1-1.57.1-1.806.368C838.757,143.152,839.748,145.394,839.792,146.173Z" transform="translate(5897.137 -10349.791)" opacity="0.1"/>
        <circle id="Ellipse_480" data-name="Ellipse 480" cx="7.967" cy="7.967" r="7.967" transform="translate(6733.085 -10219.641)" fill="#fbbebe"/>
        <path id="Path_1302" data-name="Path 1302" d="M789.272,281.1a5.4,5.4,0,0,1-.751,1.77,8.323,8.323,0,0,0-.951,5.438,5.75,5.75,0,0,0,3.352,4.231,2.283,2.283,0,0,0,2.282-.144c-1.063-1.382-1.119-3.272-1.055-5.019a1.654,1.654,0,0,1,.224-.931.583.583,0,0,1,.839-.152,7.592,7.592,0,0,0,.623,3.2c.168.4.456.8.879.8.607,0,.771-.839.747-1.446-.092-2.469-.216-5.043-1.406-7.212a9.206,9.206,0,0,1-1.2-2.425,1.438,1.438,0,0,0-.3-.851,1.072,1.072,0,0,0-.448-.208c-.687-.2-2.309-.8-2.877-.156S789.364,280.281,789.272,281.1Z" transform="translate(5926.644 -10431.652)" fill="#fbbebe"/>
        <path id="Path_1303" data-name="Path 1303" d="M800.057,180.258c-.911-.1-1.634.735-2.134,1.506a29.116,29.116,0,0,0-3.968,9.4,20.858,20.858,0,0,1-1.438,5.027,5.238,5.238,0,0,0-.467,1.023,10.283,10.283,0,0,0-.072,1.65,26.1,26.1,0,0,1-.871,2.861c-.116.583-.092,1.2-.2,1.774a17.578,17.578,0,0,1-1.111,2.917c-.635,1.722-.627,3.6-1.095,5.39a1.862,1.862,0,0,1-.372.8,4.128,4.128,0,0,1-1.239.655,2.689,2.689,0,0,0-1.243,1.838,8.077,8.077,0,0,0-.044,2.282l.368,4.711c.376-.156.623-.583.939-.847a2.612,2.612,0,0,1,2.158-.236l1.075.192a4.8,4.8,0,0,1,3,1.319c.559-.875.24-2.166,1.1-2.749a8.152,8.152,0,0,1,.923-.4,2.07,2.07,0,0,0,.939-1.654,6.048,6.048,0,0,0-.272-1.954,5.774,5.774,0,0,0,2.8-3.372,28.244,28.244,0,0,0,1.283-5.194,132.2,132.2,0,0,0,2.5-21.177,10.162,10.162,0,0,0-.4-3.528C801.808,181.349,801.24,180.394,800.057,180.258Z" transform="translate(5927.67 -10373.136)" fill="#ff6f61"/>
        <path id="Path_1304" data-name="Path 1304" d="M800.057,180.258c-.911-.1-1.634.735-2.134,1.506a29.116,29.116,0,0,0-3.968,9.4,20.858,20.858,0,0,1-1.438,5.027,5.238,5.238,0,0,0-.467,1.023,10.283,10.283,0,0,0-.072,1.65,26.1,26.1,0,0,1-.871,2.861c-.116.583-.092,1.2-.2,1.774a17.578,17.578,0,0,1-1.111,2.917c-.635,1.722-.627,3.6-1.095,5.39a1.862,1.862,0,0,1-.372.8,4.128,4.128,0,0,1-1.239.655,2.689,2.689,0,0,0-1.243,1.838,8.077,8.077,0,0,0-.044,2.282l.368,4.711c.376-.156.623-.583.939-.847a2.612,2.612,0,0,1,2.158-.236l1.075.192a4.8,4.8,0,0,1,3,1.319c.559-.875.24-2.166,1.1-2.749a8.152,8.152,0,0,1,.923-.4,2.07,2.07,0,0,0,.939-1.654,6.048,6.048,0,0,0-.272-1.954,5.774,5.774,0,0,0,2.8-3.372,28.244,28.244,0,0,0,1.283-5.194,132.2,132.2,0,0,0,2.5-21.177,10.162,10.162,0,0,0-.4-3.528C801.808,181.349,801.24,180.394,800.057,180.258Z" transform="translate(5927.67 -10373.136)" opacity="0.1"/>
        <path id="Path_1305" data-name="Path 1305" d="M836.474,161.19a10.02,10.02,0,0,1-4.847,2.8,29.745,29.745,0,0,1-5.594.827,3.48,3.48,0,0,1-1.734-.152,1.193,1.193,0,0,1-.723-1.418,1.569,1.569,0,0,0,.18-.531c0-.483-.723-.523-1.2-.38-3.069.947-5.994,2.825-7.424,5.706a17.362,17.362,0,0,0-1.319,5.254c-.663,4.723-1.331,9.55-.436,14.232.476,2.5,1.394,4.935,1.45,7.476.032,1.426-.208,2.845-.2,4.271a2.141,2.141,0,0,0,.376,1.406c.22.256.555.42.707.719.256.5-.088,1.2.252,1.65.4.555,1.291.156,1.862-.236a14.828,14.828,0,0,1,9.861-2.485c4.175.452,8.323,2.673,12.386,1.562a5.6,5.6,0,0,1-.539-.963c-2-6.637-1.882-14.053,1.139-20.294,1.035-2.134,2.4-4.167,2.8-6.5a12.335,12.335,0,0,0,.04-3.3,13.649,13.649,0,0,0-1.87-6.053A7.458,7.458,0,0,0,836.474,161.19Z" transform="translate(5911.339 -10361.691)" fill="#ff6f61"/>
        <path id="Path_1306" data-name="Path 1306" d="M822.886,287.612a7.341,7.341,0,0,0-.459,2.713,15.865,15.865,0,0,0,.132,2.649,4.208,4.208,0,0,0,.775,2.078,1.9,1.9,0,0,0,2,.707,2.082,2.082,0,0,0,1.2-1.335,12.075,12.075,0,0,0,.376-1.814c.352-1.81,1.3-3.508,1.319-5.35a1.518,1.518,0,0,0-.1-.639,3.642,3.642,0,0,0-2.865-1.478C824.216,285.3,823.261,286.741,822.886,287.612Z" transform="translate(5905.653 -10436.11)" fill="#fbbebe"/>
        <path id="Path_1307" data-name="Path 1307" d="M846.353,178c-.156,1.6,1.375,2.777,2,4.251a7.147,7.147,0,0,1,.4,2.138,102.061,102.061,0,0,1-.236,15.231,28.584,28.584,0,0,1-.615,5.027c-.855,3.468-2.961,6.469-5.022,9.386a8.124,8.124,0,0,1-1.075,1.315,8.038,8.038,0,0,1-2,1.2l-7.088,3.448a13.633,13.633,0,0,0-2.513,1.446,6.857,6.857,0,0,0-2.082,2.705c-1.371-.7-2.8-1.331-4.167-2.03-.324-.164-.683-.4-.735-.735-.076-.479.424-.8.767-1.159a7.117,7.117,0,0,0,1.2-2.4c1.139-2.733,4-4.479,5.035-7.252a11.2,11.2,0,0,1,1.223-3.161,7.856,7.856,0,0,1,1.351-1.2,22.807,22.807,0,0,0,2.989-3.065,5.192,5.192,0,0,0,.979-1.43,7.148,7.148,0,0,0,.236-2.509c.052-2.765,1.3-5.346,2.07-7.991.719-2.5,1.019-5.13,1.966-7.556S843.832,178.659,846.353,178Z" transform="translate(5905.176 -10371.785)" opacity="0.1"/>
        <path id="Path_1308" data-name="Path 1308" d="M848.665,178c-.156,1.6,1.375,2.777,2,4.251a7.153,7.153,0,0,1,.4,2.138,102.069,102.069,0,0,1-.236,15.231,28.57,28.57,0,0,1-.623,5.019c-.855,3.468-2.961,6.469-5.022,9.386a8.126,8.126,0,0,1-1.075,1.315,8.041,8.041,0,0,1-2,1.2l-7.072,3.428a13.632,13.632,0,0,0-2.513,1.446,6.856,6.856,0,0,0-2.082,2.705c-1.371-.7-2.8-1.331-4.167-2.03-.324-.164-.683-.4-.735-.735-.076-.479.424-.8.767-1.159a7.116,7.116,0,0,0,1.2-2.4c1.139-2.733,4-4.479,5.035-7.252a11.2,11.2,0,0,1,1.223-3.161,7.854,7.854,0,0,1,1.35-1.2,23.083,23.083,0,0,0,2.993-3.065,5.163,5.163,0,0,0,.975-1.43,7.15,7.15,0,0,0,.236-2.509c.052-2.765,1.3-5.346,2.07-7.991.719-2.5,1.019-5.13,1.966-7.556S846.144,178.659,848.665,178Z" transform="translate(5903.783 -10371.785)" fill="#ff6f61"/>
        <path id="Path_1309" data-name="Path 1309" d="M854.172,102.293a11.252,11.252,0,0,0-7.072,1.462,7.666,7.666,0,0,1,.947.072,11.336,11.336,0,0,1,4.355,21.045,11.336,11.336,0,0,0,1.77-22.579Z" transform="translate(5890.833 -10326.276)" fill="#2f2e41"/>
        <path id="Path_1310" data-name="Path 1310" d="M851.516,112.9a5.2,5.2,0,0,1,.088,3.972,4.465,4.465,0,0,0-.184-.483c-1.4-3.121-5.718-4.4-9.641-2.885a7.905,7.905,0,0,0-4.659,4.439c-1-3.013,1.031-6.477,4.755-7.923C845.8,108.49,850.1,109.78,851.516,112.9Z" transform="translate(5896.978 -10330.579)" fill="#2f2e41"/>
        <path id="Path_1311" data-name="Path 1311" d="M857.656,112.811a7.1,7.1,0,0,0-10.6-8.583,7.669,7.669,0,0,1,.947.072,11.336,11.336,0,0,1,9.65,8.511Z" transform="translate(5890.856 -10326.771)"/>
        <path id="Path_1312" data-name="Path 1312" d="M862.256,92.107a11.34,11.34,0,0,0-7.592-9.777,11.143,11.143,0,0,0-3,1.2,7.665,7.665,0,0,1,.947.072,11.332,11.332,0,0,1,9.65,8.507Z" transform="translate(5888.094 -10314.341)"/>
        <path id="Path_1313" data-name="Path 1313" d="M868.705,67.006a6.848,6.848,0,0,0-4.571-5.906,6.741,6.741,0,0,0-1.814.759,2.77,2.77,0,0,1,.571.04,6.845,6.845,0,0,1,5.814,5.106Z" transform="translate(5881.694 -10301.594)"/>
        <path id="Path_1314" data-name="Path 1314" d="M871.761,123.66a11.332,11.332,0,0,1-8.79,11.987,11.32,11.32,0,0,1-2.621,2.114,11.328,11.328,0,0,0,11.4-14.093Z" transform="translate(5882.877 -10339.157)"/>
      </g>
      <g id="Group_202" data-name="Group 202" transform="translate(1942.818 -405.695)">
        <path id="Path_2601" data-name="Path 2601" d="M528.668,564.962" transform="translate(1447.702 -3538.794)" fill="none" stroke="#3f3d56" stroke-miterlimit="10" stroke-width="1"/>
        <path id="Path_2610" data-name="Path 2610" d="M322.722,214.413a2.232,2.232,0,0,0-1.294.289,3.375,3.375,0,0,0-.875,1.155,13.821,13.821,0,0,1-3.765,4.253c-1.119.82-2.541,1.842-2.35,3.353a4.532,4.532,0,0,0,.545,1.415c1.032,2.083,3.848,3.693,3.571,6.071,1.025-1.717-.346-2.565.679-4.282.488-.818,1.337-1.74,2.074-1.227.247.172.409.48.666.631.613.36,1.266-.328,1.809-.816,1.872-1.681,4.534-1.24,6.864-.717a4.292,4.292,0,0,1,2.958,1.623c.855,1.382-.812,2.875-1.233,4.437a.851.851,0,0,0,.914,1.06c.7-.069,1.527-.125,1.568-.432.879.031,1.957-.068,2.334-.984a3.85,3.85,0,0,0,.181-1.12,23.034,23.034,0,0,1,1.224-4.406,5.951,5.951,0,0,0-.109-4.478,5.182,5.182,0,0,0-.956-1.162C333.384,215.067,327.938,214.407,322.722,214.413Z" transform="translate(1597.617 -3293.5)" fill="#2f2e41"/>
        <path id="Path_2611" data-name="Path 2611" d="M323.361,276.167s.9,7.507-2.4,8.107,3,10.81,3,10.81l15.014,1.8-3.6-12.011s-2.4-.9-.9-6.906S323.361,276.167,323.361,276.167Z" transform="translate(1593.712 -3335.715)" fill="#e2aaaa"/>
        <path id="Path_2612" data-name="Path 2612" d="M212.5,656.5l1.2,16.515h6.306l-1.8-16.515Z" transform="translate(1695.414 -3587.082)" fill="#fbbebe"/>
        <path id="Path_2613" data-name="Path 2613" d="M366.5,551.1l.9,13.813,6.906-3-2.7-11.41Z" transform="translate(1587.656 -3512.911)" fill="#fbbebe"/>
        <path id="Path_2614" data-name="Path 2614" d="M285.689,469.079s.3,17.416,2.1,23.121,1.5,6.005,1.2,6.906-.6.3-.6,1.8-.6,25.223,0,27.325-1.8,5.705,0,6.005,10.209,0,10.51-1.8-2.4-2.4-1.2-3.6,3-25.824,3-25.824l4.2-17.116,7.807-9.008h16.515l5.1,19.818s-2.1,5.705-.6,5.705,10.51,1.8,10.51-4.8-3-26.124-3.6-26.724.3-2.7-.6-3.6-11.41-7.207-15.314-8.408-9.38-2.631-9.38-2.631Z" transform="translate(1617.721 -3462.718)" fill="#2f2e41"/>
        <path id="Path_2615" data-name="Path 2615" d="M462.049,632.44a5.4,5.4,0,0,0-6.606,3c-2.1,4.5-1.2,5.705-1.2,5.705s6.906,2.4,8.107,1.2c.523-.523,2.182-.7,3.89-.742,2.6-.058,3.294-3.739.837-4.6q-.11-.038-.223-.067C464.451,636.344,462.049,632.44,462.049,632.44Z" transform="translate(1499.914 -3585.842)" fill="#2f2e41"/>
        <circle id="Ellipse_645" data-name="Ellipse 645" cx="9.008" cy="9.008" r="9.008" transform="translate(1914.82 -3072.61)" fill="#fbbebe"/>
        <path id="Path_2616" data-name="Path 2616" d="M297.2,312.93s14.713,3,18.317-1.8,5.1,13.512,5.1,13.512l1.8,19.218-2.7,10.51S305.6,365.778,301.1,366.679s-11.41,1.5-11.41,1.5,2.1-33.33,2.1-33.931S297.2,312.93,297.2,312.93Z" transform="translate(1614.922 -3360.617)" fill="#f2fffb"/>
        <path id="Path_2617" data-name="Path 2617" d="M286.708,298.252s-3.274-1.875-4.174-.074-9.308,6.306-10.209,6.306,1.8,24.923.6,27.925-6.906,24.923-3.6,26.724.9-1.8,4.2,2.7,19.518,4.5,20.419,2.7-7.207-15.314-5.705-27.925,3.9-30.027,1.8-32.43A20.889,20.889,0,0,1,286.708,298.252Z" transform="translate(1629.885 -3351.571)" fill="#575a89"/>
        <path id="Path_2618" data-name="Path 2618" d="M365.689,303.646l.418-1.439s12.494,4.142,13.094,6.844.3,21.62-1.8,23.121-5.1,3.9-3,7.507,4.5,7.507,6.306,7.807,5.1,2.4,4.2,4.5-11.711-1.8-11.711-1.8-7.207-5.4-6.906-13.813S365.689,303.646,365.689,303.646Z" transform="translate(1561.743 -3354.937)" fill="#575a89"/>
        <path id="Path_2619" data-name="Path 2619" d="M369.08,425l-7.207,13.512s-10.51,10.81-4.5,12.011,9.308-9.909,9.308-9.909l7.807-11.11Z" transform="translate(1568.861 -3440.859)" fill="#fbbebe"/>
        <path id="Path_2620" data-name="Path 2620" d="M327.782,222.266a2.044,2.044,0,0,0-1.053.2,2.455,2.455,0,0,0-.713.817,10.374,10.374,0,0,1-3.065,3.006c-.911.579-2.069,1.3-1.913,2.37a2.963,2.963,0,0,0,.444,1,7.868,7.868,0,0,1,.956,4.9l2.5-3.64c.4-.578,1.088-1.23,1.688-.867.2.121.333.339.542.446.5.254,1.03-.232,1.472-.576,1.524-1.188,3.691-.877,5.588-.507a3.661,3.661,0,0,1,2.408,1.147c.88,1.235-.039,3.019.474,4.445a1.31,1.31,0,0,0,.542-.865c.716.022,1.593-.048,1.9-.7a2.4,2.4,0,0,0,.147-.792,14.645,14.645,0,0,1,1-3.114,3.7,3.7,0,0,0-.089-3.165,3.83,3.83,0,0,0-.778-.821C336.461,222.729,332.027,222.262,327.782,222.266Z" transform="translate(1592.996 -3298.997)" fill="#2f2e41"/>
        <path id="Path_2621" data-name="Path 2621" d="M395.091,321l2.8.743s6.511,16.673,5.009,28.084-2.4,9.008-2.4,9.008-2.4-5.4-7.807-4.2Z" transform="translate(1542.85 -3368.087)" fill="#575a89"/>
        <path id="Path_2622" data-name="Path 2622" d="M290.58,754.687c-.724.984-.579,2.391-1.22,3.43-.556.9-1.6,1.374-2.3,2.173a5.824,5.824,0,0,0-.591.85c-.645,1.081-1.169,2.466-.534,3.552a3.813,3.813,0,0,0,2.571,1.448,9.435,9.435,0,0,0,3.8.3,3.784,3.784,0,0,0,2.94-2.194,8.474,8.474,0,0,1,.314-.887c.683-1.344,2.824-1.359,3.523-2.695.489-.935.039-2.065-.41-3.02l-1.372-2.916c-.455-.968-2.3-.411-3.264-.643C292.78,753.789,291.483,753.456,290.58,754.687Z" transform="translate(1617.75 -3670.936)" fill="#2f2e41"/>
        <path id="Path_2623" data-name="Path 2623" d="M234.2,465.64l5.324,7.25,20.764-10.728,1.2-.616-25.942-1.676Z" transform="translate(1680.229 -3449.494)" fill="#53c5a3"/>
        <path id="Path_2624" data-name="Path 2624" d="M235.165,471.374l5.035,6.857L260.964,467.5Z" transform="translate(1679.555 -3454.835)" opacity="0.2"/>
        <path id="Path_2625" data-name="Path 2625" d="M228.7,478.015l.963-6.287,28.078-6.256Z" transform="translate(1684.076 -3453.413)" fill="#53c5a3"/>
        <path id="Path_2626" data-name="Path 2626" d="M268.689,440.1,281.3,459.62s7.807,9.909,10.209,5.4-8.408-12.011-8.408-12.011L274.995,438Z" transform="translate(1629.616 -3449.955)" fill="#fbbebe"/>
        <path id="Path_2627" data-name="Path 2627" d="M268.8,321.6l-2.4-.6s-4.8,1.5-6.005,7.807-.3,31.529,1.2,31.829,7.415-4.392,8.362-3.4-2.056-4.11-1.155-6.812S268.8,321.6,268.8,321.6Z" transform="translate(1635.811 -3368.087)" fill="#575a89"/>
      </g>
    </g>
    <path id="Path_3515" data-name="Path 3515" d="M377.724,150.629a21.824,21.824,0,0,0-40.8-5.829,17.466,17.466,0,0,0,1.9,34.831H376.7a14.616,14.616,0,0,0,14.572-14.572A14.394,14.394,0,0,0,377.724,150.629Zm-16.759,8.594V170.3h-9.326V159.223H341.73L356.3,144.658l14.572,14.572Z" transform="translate(478.586 -113.711)" fill="#53c5a3" opacity="0.4"/>
    <path id="Path_3516" data-name="Path 3516" d="M382.474,152.114a23.662,23.662,0,0,0-44.239-6.32,18.937,18.937,0,0,0,2.055,37.765h41.079a15.847,15.847,0,0,0,15.8-15.8A15.607,15.607,0,0,0,382.474,152.114Zm-18.17,9.318V173.44H354.192V161.432H343.448l15.8-15.792,15.8,15.8Z" transform="translate(179.235 -5.945)" fill="#53c5a3" opacity="0.32"/>
    <g id="Group_208" data-name="Group 208" transform="translate(-4800.312 4568.143)">
      <path id="Path_186" data-name="Path 186" d="M189.652,789.8a7.5,7.5,0,0,0,3.2,3.488,27.528,27.528,0,0,1,3.994,2.728c1.444,1.369,2.381,3.263,4.078,4.313a8.258,8.258,0,0,0,2.063.853,13,13,0,0,0,2.541.516,17.962,17.962,0,0,0,6.563-1.125,6.085,6.085,0,0,0,1.969-.862,5.483,5.483,0,0,0,.75-.722,4.219,4.219,0,0,0,1.031-1.631,1.331,1.331,0,0,0-.094-.984,2.269,2.269,0,0,0-.834-.8,14.16,14.16,0,0,0-1.875-1.041,9.624,9.624,0,0,1-2.456-1.3,5.72,5.72,0,0,1-1.191-1.6,15.525,15.525,0,0,1-1.35-3.234,10.528,10.528,0,0,0-.75-2.2c-.4-.741-1.05-1.378-1.481-2.1a1.73,1.73,0,0,0,.684-.094,6.394,6.394,0,0,0-.75-3.319c.938.075,1.378-1.153,1.228-2.063s-.591-1.875-.2-2.7a5.007,5.007,0,0,1,1.059-1.219c1.491-1.575,1.444-3.975,2.063-6.038a17.512,17.512,0,0,1,1.547-3.356c1.791-3.235,2.616-7.285,5.5-9.619l2.6-2.1a1.107,1.107,0,0,0,.4-.478c.15-.4-.169-.825-.15-1.256.047-.759,1.078-1.069,1.425-1.753a4.332,4.332,0,0,0,.253-1.041c.272-1.191,1.434-1.931,2.269-2.813a6.385,6.385,0,0,0,1.659-5.1,4.322,4.322,0,0,1-.075-1.388,6.692,6.692,0,0,1,.366-.937,8.438,8.438,0,0,0,.309-3.038,27.187,27.187,0,0,1,.591-4.828l12.807-2.906c.084.094.159.188.253.281,1.134,1.153,1.7,2.813,2.813,4.013l1.463,1.613c.281.309.572.722.4,1.1s-.384.384-.563.591a1,1,0,0,0,.863,1.584,1.931,1.931,0,0,0,1,2.9,7.762,7.762,0,0,1-1.069,1.631,1.35,1.35,0,0,1,.281.825,3.921,3.921,0,0,1-.188.525,2.222,2.222,0,0,0,.1,1.181,17.748,17.748,0,0,1,0,9.188,5.308,5.308,0,0,0-.244,1.266,3.751,3.751,0,0,0,.159,1.059c.431,1.547,1.294,3.169.694,4.688a9.673,9.673,0,0,0-.506,1.1c-.338,1.125.441,2.231.863,3.328a11.25,11.25,0,0,1,.413,4.688c-.1,2.175-.216,4.341-.319,6.507a2.587,2.587,0,0,0,.122,1.172,2,2,0,0,0,1.313,1.013c-.131.441-.263.881-.413,1.313a.778.778,0,0,0-1.313-.056,1.389,1.389,0,0,0-.169.619,15.572,15.572,0,0,0,.759,4.6,2.138,2.138,0,0,1,.066.731,4.612,4.612,0,0,1-.253.741,1.094,1.094,0,0,0-.056.187,4.566,4.566,0,0,0,.206,2.231,1.969,1.969,0,0,0,.647,1.191,1.874,1.874,0,0,0,.844.263c4.482.516,8.851-2.4,13.332-1.875.938.1,1.819.347,2.738.441a14.38,14.38,0,0,0,3.235-.159c1.5-.2,2.991-.45,4.463-.741a11.1,11.1,0,0,0,3.253-1.041,4.051,4.051,0,0,0,2.091-2.56,1.922,1.922,0,0,0-.188-1.444,1.669,1.669,0,0,0-.375-.394,4.031,4.031,0,0,0-1.163-.553l-1.734-.628a10.426,10.426,0,0,0-2.588-.675c-.647-.056-1.313,0-1.96,0-2.288-.122-4.3-1.434-6.188-2.691l-2.569-1.706a1.66,1.66,0,0,0-1.753-.291l-.356.131,1.584-.881q.112-11.588-.056-23.167a24.272,24.272,0,0,0-.544-5.71c-.281-1.069-.581-2.466.356-3.066.244-.834-.253-1.669-.478-2.494s.094-2.016.938-2.025c-.863-1.519-.834-3.356-.872-5.1a37.07,37.07,0,0,0-.281-4.285,12.123,12.123,0,0,0-1.481-5.044l12.638-2.869-.413-1.828,1.875-.422L260.9,674.211a1.191,1.191,0,0,0,.778-1.069c-.047-.441-.478-.844-.337-1.266.084-.253.337-.394.5-.609a1.453,1.453,0,0,0-.159-1.669.741.741,0,0,1-.178-.413.815.815,0,0,1,.094-.291,2.194,2.194,0,0,0-.628-2.606.854.854,0,0,0-.366-.187,2.663,2.663,0,0,1-.863,0c-.3-.094-.309-.263-.647-.291h-.1l-3.853-16.96a16.876,16.876,0,0,0,.675-2.513,7.988,7.988,0,0,0-.4-4.547,9.291,9.291,0,0,0,2.231-1.678,1.256,1.256,0,0,0,.3-1.594,11.354,11.354,0,0,0-3.75-5.128c-.534-.4-1.8-1.472-2.578-1.238q.291-.422.619-.816a8.26,8.26,0,0,0,1.228-1.538,10.707,10.707,0,0,0,6.385-12.188,3.254,3.254,0,0,0-.122-.431,1.734,1.734,0,0,0,1.444-.525,1.875,1.875,0,0,0,.169-1.875,14.924,14.924,0,0,0-.938-1.688c-.7-1.275-.534-2.925-1.256-4.116a13.745,13.745,0,0,0-2.56-2.813,8.2,8.2,0,0,0-6.825-1.556,14.834,14.834,0,0,0-6.422,3.225,8.437,8.437,0,0,1-1.8,1.247c-1.069.488-2.381.469-3.272,1.228-1.181,1-1.031,2.813-.581,4.313s1.116,3.028.6,4.491a9.379,9.379,0,0,0-.516,1.322,3.825,3.825,0,0,0,.628,2.428,3,3,0,0,0,.3-.534.121.121,0,0,1,0,.056c.066.244.141.488.206.731a.731.731,0,0,0-.309.066c-.441.2-.638.713-1,1.031s-1.275.525-1.453,1.116c-.084.281,0,.591-.1.863-.225.534-1.013.534-1.425.938a1.2,1.2,0,0,0-.234,1.219,2.542,2.542,0,0,0,.319.638,1.35,1.35,0,0,0,.084.816l-5.232,1.266a11.516,11.516,0,0,0-2.428.8,3.75,3.75,0,0,0-1.791,1.753.317.317,0,0,1-.2.253.422.422,0,0,1-.263,0,4.688,4.688,0,0,0-2.71.131,14.654,14.654,0,0,0-6.929,5.063,2.55,2.55,0,0,0-.666,1.313c-.047.563.263,1.191,0,1.678l-.272.112a13.342,13.342,0,0,0-2.222.938c-.759.45-1.425,1.041-2.138,1.566-2.916,2.138-6.769,3.2-8.832,6.15-.675.938-1.163,2.147-2.194,2.747a14.165,14.165,0,0,0-1.406.722c-.863.666-.938,1.819-1.134,2.916l-18.423,4.191.413,1.819-1.875.422,17.026,74.92,15.713-3.563a4.509,4.509,0,0,0,.15,1.059,9.1,9.1,0,0,0,1.078,3.113,1.791,1.791,0,0,0-1.238,1.66c-.084.722.047,1.472-.1,2.184-.281,1.275-1.388,2.185-2.306,3.131-4.182,4.294-5.063,10.632-7.2,16.182a64.3,64.3,0,0,0-2.963,7.754c-.75,3.047-.8,6.563-3.2,8.672a1.679,1.679,0,0,0-.544.638,1.022,1.022,0,0,0,0,.581,2.813,2.813,0,0,0,.891,1.425l-.112.216a.861.861,0,0,0-.281,0c-.488,0-.759.619-.938.994a10.717,10.717,0,0,0-1.238,4.228,1.208,1.208,0,0,0-.413,0,1.753,1.753,0,0,0-1.266,1.041,2.813,2.813,0,0,0,.122,1.931Zm61.063-155.522h-.187a8.059,8.059,0,0,1,.553-1.275,7.839,7.839,0,0,0-.366,1.275ZM200.556,784.037a1.547,1.547,0,0,1-.534.816h-.047a2.414,2.414,0,0,1,.094-.3l.206-.591Z" transform="translate(4728.648 -5011.065)" fill="url(#linear-gradient-4)"/>
      <path id="Path_187" data-name="Path 187" d="M260,791.6c-2.813,1.041-5.813,1.969-8.813,1.7-.459,0-1.022-.225-1.069-.684a1.06,1.06,0,0,1,.1-.469,27.943,27.943,0,0,0,1.509-5.625.441.441,0,0,1,.113-.262.422.422,0,0,1,.281-.066c1.369,0,2.672.619,4.041.684a5.364,5.364,0,0,0,2.034-.3c.572-.2,1.256-.863,1.791-.938C260.1,787.6,259.786,789.568,260,791.6Z" transform="translate(4724.049 -5022.381)" fill="#3f3d56"/>
      <path id="Path_188" data-name="Path 188" d="M200.116,799.509c-2.222-.881-4.528-1.819-6.132-3.6a.741.741,0,0,1-.225-.375.872.872,0,0,1,.066-.431,16.875,16.875,0,0,1,3.1-5.372,12.189,12.189,0,0,1,2.813,1.594c.6.4,2.128.938,2.306,1.688.113.45-.291,1.069-.45,1.472-.206.553-.4,1.106-.581,1.669A20.873,20.873,0,0,0,200.116,799.509Z" transform="translate(4727.569 -5022.637)" fill="#3f3d56"/>
      <path id="Path_189" data-name="Path 189" d="M249.831,800.135a2.006,2.006,0,0,0,.638,1.191,1.687,1.687,0,0,0,.844.263c4.416.534,8.71-2.363,13.126-1.875.938.1,1.8.356,2.7.441a14.058,14.058,0,0,0,3.2-.15c1.472-.188,2.944-.431,4.4-.722a10.717,10.717,0,0,0,3.2-1.022,4.087,4.087,0,0,0,2.063-2.56,2.025,2.025,0,0,0-.2-1.444,1.668,1.668,0,0,0-.375-.394,4.065,4.065,0,0,0-1.144-.562l-1.716-.628a10.314,10.314,0,0,0-2.55-.684,18.963,18.963,0,0,0-1.931,0c-2.259-.141-4.247-1.453-6.113-2.719l-2.531-1.716a2.128,2.128,0,0,0-.844-.4,2.052,2.052,0,0,0-.891.112,11.992,11.992,0,0,0-5.147,3.141,7.862,7.862,0,0,1-1.191,1.116,5.016,5.016,0,0,1-3.957.394c-.591-.159-.506-.347-.844-.8s-.938-.647-1.3-.084a1.274,1.274,0,0,0-.169.619,15.882,15.882,0,0,0,.759,4.6,2.166,2.166,0,0,1,.075.731,4.611,4.611,0,0,1-.253.741,1.374,1.374,0,0,0-.047.188,4.566,4.566,0,0,0,.206,2.222Z" transform="translate(4724.113 -5022.475)" fill="#65617d"/>
      <path id="Path_190" data-name="Path 190" d="M249.862,800.582a2.006,2.006,0,0,0,.638,1.191,1.687,1.687,0,0,0,.844.263c4.416.534,8.71-2.363,13.126-1.875.938.1,1.8.356,2.7.441a14.059,14.059,0,0,0,3.2-.15c1.472-.188,2.944-.431,4.4-.722a10.717,10.717,0,0,0,3.2-1.022,4.087,4.087,0,0,0,2.063-2.56,2.025,2.025,0,0,0-.2-1.444,1.668,1.668,0,0,0-.375-.394c-.131.553-.15,1.256-.244,1.528a2.935,2.935,0,0,1-1.6,1.81,4.763,4.763,0,0,1-1.791.169c-3.91-.075-7.847.806-11.71.225a27.514,27.514,0,0,0-3.994-.572,28.407,28.407,0,0,0-4.031.581c-2.119.3-4.285.131-6.422.272a4.567,4.567,0,0,0,.206,2.26Z" transform="translate(4724.082 -5022.922)" fill="#3f3d56"/>
      <path id="Path_191" data-name="Path 191" d="M190.5,801.587a7.622,7.622,0,0,0,3.169,3.5,26.467,26.467,0,0,1,3.947,2.747c1.425,1.369,2.353,3.272,4.041,4.322a8.149,8.149,0,0,0,2.034.863,13.347,13.347,0,0,0,2.5.525,17.382,17.382,0,0,0,6.488-1.106,5.878,5.878,0,0,0,1.95-.862,5.254,5.254,0,0,0,.694-.741,4.154,4.154,0,0,0,1-1.631,1.378,1.378,0,0,0-.084-.937,2.316,2.316,0,0,0-.825-.8,14.545,14.545,0,0,0-1.875-1.041,9.506,9.506,0,0,1-2.428-1.322,5.73,5.73,0,0,1-1.181-1.6,15.534,15.534,0,0,1-1.331-3.244,10.717,10.717,0,0,0-.75-2.2c-.591-1.078-1.688-1.931-1.875-3.15a.853.853,0,0,0-.159-.506.722.722,0,0,0-.459-.159,7.679,7.679,0,0,0-2.222,0,2.5,2.5,0,0,0-1.781,1.209c-.216.431-.3.938-.7,1.238a1.594,1.594,0,0,1-.666.178,5.532,5.532,0,0,1-3.272-.253A3.938,3.938,0,0,1,194.8,794.1c-.075-.4,0-.863-.628-.806s-.741.619-.938.994a10.632,10.632,0,0,0-1.209,4.228,1.221,1.221,0,0,0-.413,0,1.725,1.725,0,0,0-1.238,1.041,2.878,2.878,0,0,0,.131,2.034Z" transform="translate(4727.788 -5022.858)" fill="#65617d"/>
      <path id="Path_192" data-name="Path 192" d="M190.5,801.933a7.622,7.622,0,0,0,3.169,3.5,26.467,26.467,0,0,1,3.947,2.747c1.425,1.369,2.353,3.272,4.041,4.322a8.149,8.149,0,0,0,2.034.863,13.347,13.347,0,0,0,2.5.525,17.382,17.382,0,0,0,6.488-1.106,5.878,5.878,0,0,0,1.95-.862,5.254,5.254,0,0,0,.694-.741,4.154,4.154,0,0,0,1-1.631,3.2,3.2,0,0,0-1.4,0c-.938.263-1.425,1.322-2.278,1.8-1.209.694-2.71.066-4.1.056-.938,0-1.809.253-2.71.169a6.834,6.834,0,0,1-2.2-.722,10.474,10.474,0,0,1-2.522-1.528,13.379,13.379,0,0,1-1.753-2.147,35.978,35.978,0,0,0-3.516-4.125,3.551,3.551,0,0,0-.647-.544,8.244,8.244,0,0,0-.788-.328,5.316,5.316,0,0,1-2.194-2.485,4.687,4.687,0,0,0-.572-.872,1.725,1.725,0,0,0-1.238,1.041,2.878,2.878,0,0,0,.084,2.072Z" transform="translate(4727.787 -5023.204)" fill="#3f3d56"/>
      <path id="Path_193" data-name="Path 193" d="M254.456,632.635a9.7,9.7,0,0,0-1.931,3.675c-.338,1.35-1.763,11.541-1.247,12.835-1.425-.938-6.057-.056-7.5-.938-.6-.375-3.75-2.222-4.313-2.7s-3.75-1.022-4.2-1.528c-1.7-1.875,6.178-12.254,4.453-14.063a.4.4,0,0,1-.075-.609,15.367,15.367,0,0,1,2.381-2.559,4.688,4.688,0,0,0,1.566-3.047,9.376,9.376,0,0,1,2.869,1.125q3.2,1.669,6.329,3.488c.816.469,2.306,1,2.813,1.819S254.99,631.988,254.456,632.635Z" transform="translate(4724.992 -5013.269)" fill="#e8b7b7"/>
      <path id="Path_194" data-name="Path 194" d="M236.7,633.38a28.872,28.872,0,0,1,4.941,2.456,8.6,8.6,0,0,1,3.619,3.647c.272.628.413,1.3.656,1.941,1.088,2.813,4.069,4.332,5.785,6.779a13.94,13.94,0,0,1,1.294,2.419,31.877,31.877,0,0,1,1.65,4.941c.4,1.641-.938,3.141-1.2,4.81a27.743,27.743,0,0,0,0,4.913,58.128,58.128,0,0,1-.656,9.282c-.806,6.488-4.078,24.677-4.885,31.174-7.041-.159-25.623,0-32.318-2.147-2.241-.722,10.313-17.495,8.054-17.926a.806.806,0,0,1-.844-.938c0-9.676,4.866-18.751,5.813-28.342.338-3.338,1.594-6.413,2.335-9.685.666-2.963.675-6.075,1.631-8.963a5.325,5.325,0,0,1,.8-1.641,6.423,6.423,0,0,1,1.059-1.022C235.2,634.43,235.946,633.961,236.7,633.38Z" transform="translate(4726.223 -5012.874)" fill="#d7d9e1"/>
      <circle id="Ellipse_145" data-name="Ellipse 145" cx="10.679" cy="10.679" r="10.679" transform="translate(4965.816 -4401.667)" fill="#fbbebe"/>
      <path id="Path_195" data-name="Path 195" d="M240.562,628.878a3.6,3.6,0,0,0-4.05.319,1.96,1.96,0,0,0-.731,2.147l-5.147,1.256a10.561,10.561,0,0,0-2.4.778,3.684,3.684,0,0,0-1.753,1.744c-.047.1-.094.216-.2.253s-.169,0-.253,0a4.6,4.6,0,0,0-2.681.122,14.26,14.26,0,0,0-6.807,5.035,2.5,2.5,0,0,0-.656,1.3c0,.628.347,1.331,0,1.875,1.106,4.847.469,9.751.431,14.729a6.422,6.422,0,0,1-1.05,2.6,9.3,9.3,0,0,0-1.106,2.878c-.384,2.663,1.566,5.241,1.209,7.913a12.976,12.976,0,0,1-1.144,3.206,7.332,7.332,0,0,0-.684,3.947c.094.6.309,1.181.422,1.781a11.128,11.128,0,0,1,.1,2.438c0,1.509-.122,3.019-.216,4.528-.141,2.438-.459,5.11-2.231,6.8,5.147-.281,10.557-.647,14.888-3.45a7.875,7.875,0,0,0,1.65-1.35c1.434-1.6,1.781-3.872,2.063-6a25.108,25.108,0,0,0,.281-7.2,7.875,7.875,0,0,1-.188-2.288c.188-1.388,1.284-2.447,2.3-3.422a14.6,14.6,0,0,0,2.9-3.544,5.625,5.625,0,0,0,.488-4.435c-.253-.713-.694-1.341-.938-2.072a1.772,1.772,0,0,1,.591-2.006c3.366-1.875,4.116-6.563,4.078-10.444a29.637,29.637,0,0,0-.844-5.869l-.8-3.75a5.11,5.11,0,0,0,.806-3.928,4.418,4.418,0,0,1-.244-1.191,3.244,3.244,0,0,1,.544-1.444,11.663,11.663,0,0,0,1.369-3.253Z" transform="translate(4726.453 -5012.563)" fill="#3f3d56"/>
      <path id="Path_196" data-name="Path 196" d="M256.751,638.758a28.55,28.55,0,0,0,.938,3.469c.2.422.469.8.694,1.2a7.753,7.753,0,0,1,.637,5.016,27.464,27.464,0,0,1-1.519,4.9,6.731,6.731,0,0,0-.459,1.688,8.1,8.1,0,0,0,.075,1.781,52.7,52.7,0,0,1,.347,7.191,13.923,13.923,0,0,1-1.172,6.094,1.687,1.687,0,0,1-.853.938,1.875,1.875,0,0,1-.891,0l-2.888-.412a1.734,1.734,0,0,1-.694-.188,1.65,1.65,0,0,1-.609-.937,15.666,15.666,0,0,1-.263-6.563c.759-6.629,2.288-13.192,2.26-19.858,0-1.875-.422-4.613.553-6.31.394-.7.272-.412.938-.253a8.1,8.1,0,0,1,1.041.272,3.15,3.15,0,0,1,1.866,1.969Z" transform="translate(4724.065 -5013.057)" fill="#3f3d56"/>
      <path id="Path_197" data-name="Path 197" d="M212.23,692" transform="translate(4726.415 -5016.534)" fill="#464353"/>
      <path id="Path_198" data-name="Path 198" d="M250.759,652.132q.206,5.869.384,11.729l-10.96-.366a7.5,7.5,0,0,1,.2-3.3c.413-2.578-.169-5.213,0-7.819.159-1.988.778-3.91.938-5.9.066-1.153,0-2.316,0-3.478a24.87,24.87,0,0,1,.5-3.422,20.627,20.627,0,0,1,1.3-4.688,6.724,6.724,0,0,1,4,1.472,4.951,4.951,0,0,1,1.144,2.072c.713,2.288.4,4.81,1.2,7.05a20.851,20.851,0,0,1,1.294,6.647Z" transform="translate(4724.676 -5012.968)" fill="#53c5a3"/>
      <path id="Path_199" data-name="Path 199" d="M246.5,708.52c-.075,2.344,1.294,4.453,2.475,6.479a53.265,53.265,0,0,1,4.4,9.61,8.672,8.672,0,0,0,1.1,2.438,23.654,23.654,0,0,0,1.725,1.772c1.463,1.6,1.941,3.853,2.194,6.01a42.873,42.873,0,0,1,.291,4.285c.047,1.744,0,3.591.881,5.11-.863,0-1.181,1.181-.938,2.016a4.7,4.7,0,0,1,.488,2.5c-.938.591-.619,1.988-.347,3.066a24.742,24.742,0,0,1,.563,5.71q.206,11.579.131,23.158c-3.469,2-7.5,4.191-11.457,3.4a2.362,2.362,0,0,1-1.8-1.153,2.56,2.56,0,0,1-.122-1.163l.291-6.507a11.5,11.5,0,0,0-.422-4.688c-.422-1.1-1.191-2.2-.863-3.328.113-.384.347-.722.5-1.1.591-1.491-.272-3.113-.694-4.688a3.534,3.534,0,0,1-.169-1.069,5.793,5.793,0,0,1,.234-1.266,17.954,17.954,0,0,0-.047-9.188,2.194,2.194,0,0,1-.1-1.172,2.982,2.982,0,0,0,.178-.534,1.313,1.313,0,0,0-.281-.825,7.789,7.789,0,0,0,1.059-1.622,1.95,1.95,0,0,1-1-2.9,1.022,1.022,0,0,1-.863-1.594c.187-.206.45-.338.563-.591s-.131-.788-.4-1.088l-1.444-1.594c-1.078-1.209-1.641-2.869-2.766-4.031a33.455,33.455,0,0,1-4.125-5.569l-4.782-7.5-1.6,2.185a6.375,6.375,0,0,0-1.219,2.241,8.241,8.241,0,0,0,0,2.353c.281,4.6-1.641,9.094-1.688,13.7a8.437,8.437,0,0,1-.291,3.047,5.627,5.627,0,0,0-.356.938,4.351,4.351,0,0,0,.075,1.388,6.376,6.376,0,0,1-1.613,5.091c-.825.938-1.969,1.641-2.231,2.813a4.808,4.808,0,0,1-.244,1.041c-.347.684-1.35.984-1.4,1.744,0,.431.3.863.15,1.266a1.143,1.143,0,0,1-.4.469l-2.541,2.091c-2.813,2.335-3.647,6.375-5.4,9.61a16.95,16.95,0,0,0-1.509,3.338c-.609,2.063-.553,4.463-2.016,6.038a4.885,4.885,0,0,0-1.041,1.209c-.384.834.047,1.791.2,2.7s-.281,2.138-1.2,2.063a6.4,6.4,0,0,1,.75,3.319,17.186,17.186,0,0,1-11.091-1.8,4.135,4.135,0,0,1-2.288-2.4,1.022,1.022,0,0,1,0-.581,1.66,1.66,0,0,1,.534-.638c2.353-2.063,2.4-5.625,3.122-8.654a58.851,58.851,0,0,1,2.888-7.744c2.1-5.55,2.944-11.879,7.05-16.154a7,7,0,0,0,2.26-3.122c.15-.722,0-1.463.1-2.194a1.763,1.763,0,0,1,1.209-1.65,9.3,9.3,0,0,1-1.078-3.113,4.322,4.322,0,0,1-.15-1.425,7.246,7.246,0,0,1,.394-1.519,13.416,13.416,0,0,0,.216-7.5,11.832,11.832,0,0,1-.741-3.825c.056-.666.263-1.294.366-1.95a11.185,11.185,0,0,0-.206-3.441l-.694-4.294a20.869,20.869,0,0,1-.4-4.313c.141-3.488-2.128-17.448.553-19.689s10.247,7.182,13.7,6.619a15.543,15.543,0,0,1,4.613-.15,21.789,21.789,0,0,1,6.9,2.606l7.444,3.835a23.689,23.689,0,0,0,4.444,2.063Z" transform="translate(4727.558 -5016.609)" fill="#65617d"/>
      <path id="Path_200" data-name="Path 200" d="M258.968,606.292a8.063,8.063,0,0,0-6.732-1.584,14.532,14.532,0,0,0-6.319,3.206,8.524,8.524,0,0,1-1.772,1.247c-1.059.478-2.344.459-3.225,1.209-1.163,1-1.013,2.813-.553,4.313s1.1,3.038.6,4.491a11.969,11.969,0,0,0-.506,1.322,3.9,3.9,0,0,0,.628,2.438,17.565,17.565,0,0,0,.938-1.875,1.634,1.634,0,0,1,1.716-.938c.656.206.806.938.938,1.575s.506,1.331,1.144,1.4a1.294,1.294,0,0,0,1.191-.816c.731-1.453-.122-3.338.591-4.8.413-.844,1.275-1.4,1.641-2.259.281-.675.216-1.444.431-2.147s.938-1.359,1.622-1.05a2.486,2.486,0,0,1,.609.525,2.813,2.813,0,0,0,3.441.234,5.4,5.4,0,0,1,1.256-.938,1.744,1.744,0,0,1,1.781.506,3.489,3.489,0,0,1,.834,1.744,4.294,4.294,0,0,0,.938,2.447,2.812,2.812,0,0,0,.938.488,2.25,2.25,0,0,0,2.494-.309,1.875,1.875,0,0,0,.159-1.875,14.064,14.064,0,0,0-.938-1.688c-.7-1.284-.544-2.935-1.256-4.125A13.925,13.925,0,0,0,258.968,606.292Z" transform="translate(4724.679 -5011.072)" fill="#3f3d56"/>
      <path id="Path_201" data-name="Path 201" d="M260.252,639.879a1.6,1.6,0,0,1,.113.938,1.509,1.509,0,0,1-.4.619,11.016,11.016,0,0,1-4.547,2.71,1.48,1.48,0,0,0-.637.328,1.238,1.238,0,0,0,0,1.434,3.553,3.553,0,0,1,.637,1.378c.084.938-.938,1.613-1.809,1.941a5.1,5.1,0,0,1-3.891.122,5.785,5.785,0,0,1-2.053-1.96c-3.853-5.232-6.2-11.448-10.079-16.66a4.115,4.115,0,0,1-.656-1.125,1.238,1.238,0,0,1,.225-1.219c.413-.4,1.191-.4,1.406-.937.1-.263,0-.581.094-.853.178-.6.938-.713,1.434-1.116s.553-.834.938-1.022a1.509,1.509,0,0,1,1.322.244c1.875,1.059,3.066,2.869,4.322,4.557a65.26,65.26,0,0,0,6.366,7.275c-.263-.262.347-2.869.778-3.056.75-.347,2.081.816,2.625,1.238A11.42,11.42,0,0,1,260.252,639.879Z" transform="translate(4724.877 -5012.313)" fill="#53c5a3"/>
      <rect id="Rectangle_138" data-name="Rectangle 138" width="76.88" height="76.88" transform="translate(4996.975 -4289.669) rotate(167.2)" opacity="0.1"/>
      <rect id="Rectangle_139" data-name="Rectangle 139" width="76.88" height="76.88" transform="translate(4998.38 -4291.905) rotate(167.2)" fill="#ededf4"/>
      <path id="Path_202" data-name="Path 202" d="M248.389,687.733a21.17,21.17,0,0,0-25.314-15.938c-.534.122-1.088.272-1.575.422l5.044,22.164,22.164-5.035C248.614,688.83,248.511,688.268,248.389,687.733Z" transform="translate(4725.836 -5015.239)" fill="#53c5a3"/>
      <path id="Path_203" data-name="Path 203" d="M245.085,693.559l-22.173,5.035-5.035-22.164a21.161,21.161,0,1,0,27.189,17.129Z" transform="translate(4726.994 -5015.562)" fill="#53c5a3"/>
      <path id="Path_204" data-name="Path 204" d="M211.315,692.364a21.346,21.346,0,0,1,2.944,1.95,5.157,5.157,0,0,1,1.819,2.953,1.7,1.7,0,0,1-.094,1.013.825.825,0,0,1-.834.469,1.322,1.322,0,0,1-.525-.291,19.281,19.281,0,0,0-1.875-1.266c-.234-.141-.525-.291-.759-.159a.731.731,0,0,0-.263.272,2.147,2.147,0,0,0-.4,1.106,2.353,2.353,0,0,0,1.116,1.716,4.9,4.9,0,0,1,1.528,1.444.731.731,0,0,1,.1.553.8.8,0,0,1-.272.366,5.063,5.063,0,0,1-4.1,1.219c-.938-.15-1.875-.591-2.869-.7a5.95,5.95,0,0,1-1.228-.159,2.4,2.4,0,0,1-1.35-1.275,6.329,6.329,0,0,1-.488-1.875,21.8,21.8,0,0,1-.056-7.36,1.013,1.013,0,0,1,.169-.431.881.881,0,0,1,.4-.216c1.1-.375,2.813-1.369,4-1.2a3.048,3.048,0,0,1,1.153.638C209.749,691.342,211.249,692.073,211.315,692.364Z" transform="translate(4726.965 -5016.438)" fill="#fbbebe"/>
      <path id="Path_205" data-name="Path 205" d="M211.041,688.37c-.225-1.078.506-3.975-1.65-3.666-.253-1.153,1.2-2.231.628-3.385-.187-.375-.6-.638-.741-1.041-.4-1.144,1.575-2.26.938-3.31-.234-.4-.759-.562-.938-.938-.469-.938,1.247-1.828,1.05-2.888-.075-.347-.356-.638-.422-.994a2.944,2.944,0,0,1,.338-1.285c.328-1.106-.291-2.569.6-3.31-.656.216-1.106-.722-.938-1.388s.581-1.322.431-1.988a2.972,2.972,0,0,1-.178-.731c0-.684,1.078-.938,1.106-1.66a4.8,4.8,0,0,0-.141-.731,1.406,1.406,0,0,1,.844-1.2,4.228,4.228,0,0,0,1.3-.825c.253-.3.525-.778.938-.647.141,0,.234.178.356.263.5.366,1.209,0,1.631-.459a6.938,6.938,0,0,0,1.481-5.11c-.075-1.828-.5-3.628-.506-5.447a12.788,12.788,0,0,1,.113-1.7,8.119,8.119,0,0,0,.384-1.744c-.15-1.031-2.091.141-2.86.422a12.307,12.307,0,0,0-2.194.938,23.785,23.785,0,0,0-2.1,1.556c-2.869,2.128-6.666,3.178-8.682,6.113-.666.938-1.144,2.147-2.156,2.747a13.842,13.842,0,0,0-1.388.722c-1.088.844-.938,2.494-1.3,3.806a7.611,7.611,0,0,0-.328,1.088,4.171,4.171,0,0,0,.1,1.275l.609,3.075a116.252,116.252,0,0,0,3.75,15.273,13.125,13.125,0,0,1,1.088,5.035c0,.459-.122.938-.131,1.388a7.829,7.829,0,0,0,.2,1.622l.375,2a.609.609,0,0,0,.206.431.656.656,0,0,0,.563,0c2.691-.872,5.119-3.057,7.932-2.71" transform="translate(4727.388 -5013.522)" fill="#3f3d56"/>
      <path id="Path_206" data-name="Path 206" d="M264.49,670.3a.854.854,0,0,1,.366.188,2.241,2.241,0,0,1,.628,2.607.816.816,0,0,0-.094.291.713.713,0,0,0,.178.413,1.5,1.5,0,0,1,.159,1.678c-.15.206-.4.347-.488.6-.141.422.291.825.337,1.266.056.591-.553,1.022-1.106,1.228a1.444,1.444,0,0,1-1.331,0,1.088,1.088,0,0,1-.262-1.144,3.206,3.206,0,0,1,.656-1.041,1.331,1.331,0,0,1-1.491-.872,1.875,1.875,0,0,1,.366-1.763.684.684,0,0,0,.216-.412c0-.206-.206-.347-.384-.459-.759-.5-1.641-1.96-.506-2.578A3.1,3.1,0,0,1,263,670.07c.337,0,.375.216.647.291S264.2,670.258,264.49,670.3Z" transform="translate(4723.358 -5015.165)" fill="#fbbebe"/>
      <path id="Path_207" data-name="Path 207" d="M240.47,626a2.157,2.157,0,0,1,1.819.441,4.875,4.875,0,0,1,1.181,2.034,19.5,19.5,0,0,0,4.191,6.394" transform="translate(4724.652 -5012.41)" opacity="0.1"/>
      <path id="Path_208" data-name="Path 208" d="M238.5,628.436a2.569,2.569,0,0,1,2.428.8,7.407,7.407,0,0,1,1.031,2.053,12.245,12.245,0,0,0,3.178,4.088" transform="translate(4724.775 -5012.562)" opacity="0.1"/>
    </g>
    <rect id="Rectangle_660" data-name="Rectangle 660" width="82" height="85" transform="translate(0 283)" fill="url(#linear-gradient-5)"/>
    <rect id="Rectangle_661" data-name="Rectangle 661" width="51" height="85" transform="translate(1199 283)" fill="url(#linear-gradient-6)"/>
    <g id="Group_209" data-name="Group 209" transform="translate(-2221 4455.9)">
      <path id="Path_1540" data-name="Path 1540" d="M219.586,301.432s1.445,7.661.434,8.239a17.565,17.565,0,0,0-2.313,1.735l2.6,3.614,6.215,1.3,5.926-5.493v-5.493s-1.735-2.746-1.445-4.481S219.586,301.432,219.586,301.432Z" transform="translate(3161.158 -4566.654)" fill="#fbbebe"/>
      <path id="Path_1541" data-name="Path 1541" d="M219.586,301.432s1.445,7.661.434,8.239a17.565,17.565,0,0,0-2.313,1.735l2.6,3.614,6.215,1.3,5.926-5.493v-5.493s-1.735-2.746-1.445-4.481S219.586,301.432,219.586,301.432Z" transform="translate(3161.158 -4566.654)" opacity="0.1"/>
      <path id="Path_1542" data-name="Path 1542" d="M180.537,344.183l-.867.434s-1.879.723-2.746,6.938-2.891,21.1-2.313,21.537.289,3.325.289,3.325l4.336-22.694Z" transform="translate(3190.232 -4596.251)" fill="#2f2e41"/>
      <path id="Path_1543" data-name="Path 1543" d="M211.487,233.473c-.132.276-.179.6-.3.879-.563,1.277-2.167.991-3.324,1.474a3.211,3.211,0,0,0-1.787,2.745c-.033.515.043,1.035,0,1.548-.086.949-.575,1.784-.749,2.717-.423,2.264.564,5.84,1.678,4.618.351-.385.791-.641,1.171-.988.986-.9,1.488-2.333,2.289-3.458a1.208,1.208,0,0,1,.407-.4c.585-.291,1.106.487,1.569,1a2.456,2.456,0,0,0,3.685-.07,2.163,2.163,0,0,1,.519-.53,1.107,1.107,0,0,1,.721-.071,4.736,4.736,0,0,1,2.888,1.72,8.734,8.734,0,0,0,1.172,1.4,1.158,1.158,0,0,0,1.555.052,3.69,3.69,0,0,1,1.154,3c0,1.147-.233,2.286-.175,3.431a3.208,3.208,0,0,0,1.419,2.8,4.079,4.079,0,0,1,1.51-2.642,10.38,10.38,0,0,0,1.9-1.3c1.052-1.209.719-3.219.759-4.943.05-2.127.787-4.16.917-6.282a4,4,0,0,0-2.174-4.4l-4.961-3.183a2.118,2.118,0,0,0-.736-.349c-.73-.131-1.362.554-2.054.856a4.16,4.16,0,0,1-1.8.219c-1.926-.052-2.468.322-3.763-.933a.913.913,0,0,0-.782-.261C213.415,232.241,211.91,232.589,211.487,233.473Z" transform="translate(3169.561 -4520.818)" fill="#4c3e42"/>
      <path id="Path_1544" data-name="Path 1544" d="M85.31,716.92l3.035,6.649-5.926,2.024L79.384,724l.723-7.083Z" transform="translate(3298.468 -4829.647)" fill="#fbbebe"/>
      <path id="Path_1545" data-name="Path 1545" d="M185.186,783.316s-4.77-2.891-5.637-1.879-7.805,8.384-7.805,8.384-10.7,5.782-2.457,6.649,21.682-5.059,21.682-5.059.723-7.805.145-7.95-3.035,1.3-4.192.867A5.182,5.182,0,0,1,185.186,783.316Z" transform="translate(3195.845 -4890.406)" fill="#2f2e41"/>
      <path id="Path_1546" data-name="Path 1546" d="M105.316,734.715v5.926l-7.805-1.734,1.734-6.071Z" transform="translate(3286.268 -4840.359)" fill="#fbbebe"/>
      <path id="Path_1547" data-name="Path 1547" d="M227.509,797.809s7.95-1.3,8.673,2.6,2.6,9.685.723,11.13-11.564,3.324-11.708.867a34.535,34.535,0,0,1,1.012-7.227s.723-3.758.289-4.77S227.509,797.809,227.509,797.809Z" transform="translate(3156.125 -4901.43)" fill="#2f2e41"/>
      <path id="Path_1548" data-name="Path 1548" d="M176.969,499.637s-6.526,41.377-1.178,61.613,9.106,32.233,9.106,32.233,9.251-2.6,9.251-4.336-3.614-27.463-4.481-29.921-2.313-3.325-1.012-5.348,3.469-15.033,3.469-15.033,4.77,21.537,5.059,22.115-3.036,33.679-3.036,33.679,9.542,6.924,10.118,1.734c.145-1.3,6.5-47.411,6.5-47.989s2.6-44.809-1.59-46.977S176.969,499.637,176.969,499.637Z" transform="translate(3190.786 -4700.862)" fill="#2f2e41"/>
      <circle id="Ellipse_498" data-name="Ellipse 498" cx="9.829" cy="9.829" r="9.829" transform="translate(3376.551 -4281.989)" fill="#fbbebe"/>
      <path id="Path_1549" data-name="Path 1549" d="M199.546,322.385v-1.012l-2.891-4.77s-2.891.289-3.325,1.59-5.348,11.708-5.348,11.708l-5.2,46.688s14.31,3.469,16.478,1.012,10.407-55.939,10.407-55.939l1.156-6.5s-1.986-2.891-2.438-2.457-7.969,8.817-7.969,8.817l-.145,1.3Z" transform="translate(3184.665 -4575.032)" fill="#53c5a3"/>
      <path id="Path_1550" data-name="Path 1550" d="M183.876,321.585s-2.674-.65-3.541.94-.867,2.168-1.735,2.746-5.926,3.18-6.215,4.192-6.5,32.956-6.5,32.956-3.035,9.54-1.59,16.044.434,7.805,3.469,8.384,3.469.578,3.469-.289,3.9-30.21,6.649-32.233,2.024-24.139,2.024-24.139,3.9-4.77,3.9-5.493S184.455,321.531,183.876,321.585Z" transform="translate(3197.372 -4580.952)" fill="#2f2e41"/>
      <path id="Path_1551" data-name="Path 1551" d="M225.815,323.989c.4.067,5.926-7.083,6.36-6.794s2.6,4.047,2.891,4.047,12.575,3.035,13.587,8.673-7.083,23.561-7.083,23.561-3.469,10.263-2.746,14.744a30.186,30.186,0,0,1-.289,10.263c-.289,1.156-1.3,2.457-1.012,3.035s-6.36-.723-9.106.867-15.033,2.746-14.31,1.012,1.156-8.528,3.18-15.755,7.227-24.284,6.36-25.44S224.947,323.845,225.815,323.989Z" transform="translate(3163.601 -4578.082)" fill="#2f2e41"/>
      <path id="Path_1552" data-name="Path 1552" d="M292.858,350.814l1.879,1.735s2.168,3.758,1.879,5.493,6.071,27.9,3.469,28.764-8.817,5.2-9.54,6.36a12.833,12.833,0,0,1-3.614,3.758c-1.156.578-2.313,1.59-3.035,1.012s-2.313-12.431-1.156-12.864,2.313-1.735,3.469-1.735a2.074,2.074,0,0,0,1.879-2.168c0-1.012-.867-7.083-.867-7.083l-1.879-14.31Z" transform="translate(3117.661 -4600.714)" fill="#2f2e41"/>
      <path id="Path_1553" data-name="Path 1553" d="M218.285,238.555c-.117.209-.158.452-.268.665-.5.965-1.916.749-2.939,1.114a2.448,2.448,0,0,0-1.58,2.075c-.029.389.038.782,0,1.17a19.8,19.8,0,0,1-.662,2.054c-.374,1.712.5,4.415,1.484,3.491.311-.291.7-.484,1.035-.747a15.692,15.692,0,0,0,2.024-2.614,1.009,1.009,0,0,1,.36-.3c.517-.22.978.369,1.387.754a2.424,2.424,0,0,0,3.258-.053,1.792,1.792,0,0,1,.459-.4,1.132,1.132,0,0,1,.638-.053,4.37,4.37,0,0,1,2.554,1.3,6.984,6.984,0,0,0,1.037,1.055,1.156,1.156,0,0,0,1.375.039,2.592,2.592,0,0,1,1.021,2.268c0,.867-.206,1.728-.155,2.594a2.345,2.345,0,0,0,1.255,2.117,3.021,3.021,0,0,1,1.335-2,9.387,9.387,0,0,0,1.682-.979c.93-.914.636-2.433.671-3.737.044-1.608.7-3.145.811-4.749a3.329,3.329,0,0,0-.533-2.3,4.29,4.29,0,0,0-1.39-1.029l-4.387-2.406a2.027,2.027,0,0,0-.65-.264c-.646-.1-1.2.419-1.816.647a4.263,4.263,0,0,1-1.594.165c-1.7-.039-2.182.243-3.327-.705a.9.9,0,0,0-.691-.2C219.989,237.625,218.659,237.887,218.285,238.555Z" transform="translate(3164.497 -4524.462)" fill="#4c3e42"/>
    </g>
    <g id="Group_210" data-name="Group 210" transform="translate(-3655.012 2930.474)">
      <ellipse id="Ellipse_738" data-name="Ellipse 738" cx="22.229" cy="22.229" rx="22.229" ry="22.229" transform="translate(4795.435 -2817.091)" fill="#2f2e41"/>
      <rect id="Rectangle_657" data-name="Rectangle 657" width="6.753" height="12.099" transform="translate(4832.894 -2767.596) rotate(169.739)" fill="#2f2e41"/>
      <rect id="Rectangle_658" data-name="Rectangle 658" width="6.753" height="12.099" transform="translate(4819.604 -2765.19) rotate(169.739)" fill="#2f2e41"/>
      <ellipse id="Ellipse_739" data-name="Ellipse 739" cx="5.628" cy="2.11" rx="5.628" ry="2.11" transform="matrix(0.763, -0.646, 0.646, 0.763, 4809.465, -2761.064)" fill="#2f2e41"/>
      <ellipse id="Ellipse_740" data-name="Ellipse 740" cx="5.628" cy="2.11" rx="5.628" ry="2.11" transform="matrix(0.763, -0.646, 0.646, 0.763, 4822.479, -2763.419)" fill="#2f2e41"/>
      <ellipse id="Ellipse_741" data-name="Ellipse 741" cx="7.597" cy="7.597" rx="7.597" ry="7.597" transform="translate(4808.51 -2807.897)" fill="#fff"/>
      <ellipse id="Ellipse_742" data-name="Ellipse 742" cx="2.532" cy="2.532" rx="2.532" ry="2.532" transform="translate(4810.453 -2805.555)" fill="#3f3d56"/>
      <path id="Path_3513" data-name="Path 3513" d="M926.378,97.444c.334-8.229-6.758-15.2-15.842-15.569s-16.718,6-17.052,14.233,5.98,10.1,15.063,10.468S926.043,105.674,926.378,97.444Z" transform="translate(3908.823 -2916.489)" fill="#6c63ff"/>
      <ellipse id="Ellipse_743" data-name="Ellipse 743" cx="3.489" cy="11.114" rx="3.489" ry="11.114" transform="matrix(0.223, -0.975, 0.975, 0.223, 4785.525, -2797.994)" fill="#2f2e41"/>
      <ellipse id="Ellipse_744" data-name="Ellipse 744" cx="3.489" cy="11.114" rx="3.489" ry="11.114" transform="matrix(0.223, -0.975, 0.975, 0.223, 4829.159, -2790.737)" fill="#2f2e41"/>
      <path id="Path_3514" data-name="Path 3514" d="M944.151,247.577a5.065,5.065,0,1,1-9.968,1.8c-.5-2.752,1.63-3.726,4.382-4.225S943.653,244.824,944.151,247.577Z" transform="translate(3879.619 -3033.679)" fill="#fff"/>
      <line id="Line_12" data-name="Line 12" x2="25.605" y2="19.697" transform="translate(4763.232 -2820.319)" fill="none" stroke="#3f3d56" stroke-miterlimit="10" stroke-width="2"/>
      <ellipse id="Ellipse_745" data-name="Ellipse 745" cx="19.134" cy="19.134" rx="19.134" ry="19.134" transform="translate(4731.999 -2848.175)" fill="#ff6584"/>
    </g>
    <rect id="Rectangle_662" data-name="Rectangle 662" width="35.434" height="25.64" rx="2" transform="translate(76.745 22.204)" fill="#53c5a3" opacity="0.69"/>
    <g id="Group_212" data-name="Group 212" transform="translate(-227.268 7.732)">
      <g id="Group_196" data-name="Group 196" transform="translate(254.491 22.89)">
        <g id="Group_194" data-name="Group 194">
          <path id="Path_31" data-name="Path 31" d="M345.3,347.143a21.31,21.31,0,0,1-2.2,9.473c-.164.338-.338.667-.522,1h-37.4c-.184-.328-.358-.657-.522-1a21.43,21.43,0,1,1,40.651-9.473Z" transform="translate(-290.416 -290.939)" fill="#2f2e41"/>
          <ellipse id="Ellipse_10" data-name="Ellipse 10" cx="7.324" cy="7.324" rx="7.324" ry="7.324" transform="translate(30.437 43.164)" fill="#fff"/>
          <ellipse id="Ellipse_11" data-name="Ellipse 11" cx="2.441" cy="2.441" rx="2.441" ry="2.441" transform="translate(35.608 46.6)" fill="#3f3d56"/>
          <path id="Path_32" data-name="Path 32" d="M303.424,310.647c-1.73-7.749,3.8-15.579,12.354-17.489s16.889,2.824,18.619,10.573-3.938,10.607-12.491,12.517S305.154,318.4,303.424,310.647Z" transform="translate(-291.04 -273.795)" fill="#6c63ff"/>
          <path id="Path_33" data-name="Path 33" d="M342.459,255.831h-61.7a2.489,2.489,0,0,0-2.488,2.488v61.7a2.489,2.489,0,0,0,2.488,2.488h61.7a2.489,2.489,0,0,0,2.488-2.488v-61.7A2.489,2.489,0,0,0,342.459,255.831Zm1.493,64.185a1.5,1.5,0,0,1-1.493,1.493h-61.7a1.5,1.5,0,0,1-1.493-1.493v-61.7a1.5,1.5,0,0,1,1.493-1.493h61.7a1.5,1.5,0,0,1,1.493,1.493Z" transform="translate(-278.274 -255.831)" fill="#3f3d56" opacity="0.61"/>
        </g>
      </g>
    </g>
    <rect id="Rectangle_663" data-name="Rectangle 663" width="31.601" height="31.601" transform="translate(16.687 149.727)" fill="#ff6584" opacity="0.97"/>
    <rect id="Rectangle_664" data-name="Rectangle 664" width="31.601" height="31.601" transform="translate(0.787 134.194)" fill="none" stroke="#3f3d56" stroke-miterlimit="10" stroke-width="2" opacity="0.3"/>
    <ellipse id="Ellipse_746" data-name="Ellipse 746" cx="6.953" cy="6.953" rx="6.953" ry="6.953" transform="translate(1222.82 58.676)" fill="#d2e9e2"/>
    <rect id="Rectangle_331" data-name="Rectangle 331" width="42.919" height="15.022" rx="7.511" transform="translate(1166.376 29.925)" fill="#53c5a3" opacity="0.79"/>
  </g>
</svg>
