<svg id="dwLogo-CN" data-name="dwLogo-CN" xmlns="http://www.w3.org/2000/svg" viewBox="0 0 278 64"><defs><style>.cls-1{fill:#00aff0;}</style></defs><title>鼎捷</title><path class="cls-1" d="M8,56.3a8.71,8.71,0,0,1,8.7-8.7H31.6a15.4,15.4,0,0,0,0-30.8H16.7A8.71,8.71,0,0,1,8,8.1H31.6a24.1,24.1,0,0,1,0,48.2Z"/><path class="cls-1" d="M10.6,32.2a6.2,6.2,0,1,1,6.2,6.2,6.17,6.17,0,0,1-6.2-6.2"/><path class="cls-1" d="M108.9,42.3H96.5V39.4H107a3.59,3.59,0,0,0,3.6-3.6V10.6h-2.3a2.48,2.48,0,0,0-2.5,2.5V33.9a.9.9,0,0,1-.9.9h-11a2.26,2.26,0,0,0-2.3,2.3v19h4.8V46.5h9.1a1,1,0,0,1,1,1v8.7h4.8V44.8a2.34,2.34,0,0,0-2.4-2.5M77.3,32.4h23a1.9,1.9,0,0,0,1.9-1.9V9.1H75.4V30.5a1.84,1.84,0,0,0,1.9,1.9m2.9-19.3H97.4v2.5H80.2Zm0,6.4H97.4V22H80.2Zm0,6.1H97.4v2.5H80.2Zm3.4,9.3h-11a.9.9,0,0,1-.9-.9V13.2a2.48,2.48,0,0,0-2.5-2.5H66.9V35.9a3.59,3.59,0,0,0,3.6,3.6H81v2.9H65.9v2.2a2,2,0,0,0,2,2h2a16.36,16.36,0,0,1-3.2,9.6h5.5a18.66,18.66,0,0,0,2.7-9.6h6.2v9.6h4.8v-19a2.26,2.26,0,0,0-2.3-2.3"/><path class="cls-1" d="M237.7,26.9l3.6,4.6a2.46,2.46,0,0,0,2.1,1h4.8l-6.6-8h3.8a2.11,2.11,0,0,0,2.1-2.1v-2h-8.4V15.5h5.4a2.11,2.11,0,0,0,2.1-2.1V11.3h-14a9.21,9.21,0,0,0,.4-2.9h-4.5a9,9,0,0,1-5.1,7.5v4.7a14.1,14.1,0,0,0,7.2-5.1h3.9v4.9H224.2v4h9.6c-1,2.4-4,5-9.9,6v4.5c3.5-.3,10.6-1.9,13.8-8"/><path class="cls-1" d="M228.3,34.6V53.5a2.48,2.48,0,0,0,2.5,2.5h31.1a2.48,2.48,0,0,0,2.5-2.5V34.6Zm31.6,15.8a1.22,1.22,0,0,1-1.2,1.2H234a1.16,1.16,0,0,1-1.2-1.2v-3h27v3Zm0-7.4h-27V39.1h27Z"/><path class="cls-1" d="M249,10.8V29.3a3.12,3.12,0,0,0,3.1,3.1h12a3,3,0,0,0,3-3V10.8Zm13.8,16.1a1.11,1.11,0,0,1-1.1,1.1h-6.9a1.54,1.54,0,0,1-1.5-1.5V15.4h9.4V26.9Z"/><path class="cls-1" d="M194.1,21.6h2.7a1.37,1.37,0,0,0,1.4-1.4V17.3h-3.9l2.3-6.9H193a1.42,1.42,0,0,0-1.3.9l-2,5.9h-1.6V9.4A1.37,1.37,0,0,0,186.7,8h-2.9v9.2H182l-2.2-6a1.29,1.29,0,0,0-1.3-.9h-3.6l2.5,6.9h-4.1v4.3h5c-.2,1.8-.8,5.1-5.1,6.2V32c7.2-1.5,8.9-6.9,9.3-10.5h1.3V31.8h2.9a1.37,1.37,0,0,0,1.4-1.4V21.5h1.2l2.8,8.5a2.5,2.5,0,0,0,2.4,1.6h2.9Zm3.2,13.2H186.7l1-2.2H184a2,2,0,0,0-1.8,1.2c-.4.7-.6,1-.6,1h-8.3v1.5a2.48,2.48,0,0,0,2.5,2.5h3.9a49.24,49.24,0,0,1-4.9,6.4.85.85,0,0,0,.2,1.4l7.7,3.1a23.14,23.14,0,0,1-9.4,1.8v4.3a28.59,28.59,0,0,0,14.9-3.7l9.6,4.1V52.4a1.29,1.29,0,0,0-.9-1.3l-4.9-2a20.66,20.66,0,0,0,5.9-13.4c.3-.4-.1-.9-.6-.9m-9.5,12.4-6.9-2.6a58.17,58.17,0,0,0,4.2-5.8h7.7c-.1.1-.8,5.5-5,8.4"/><path class="cls-1" d="M133.4,30a44.4,44.4,0,0,1-4.9,2.1V20.7h2.7a2.26,2.26,0,0,0,2.3-2.3V15.9h-5V10.6a2.22,2.22,0,0,0-2.2-2.2h-2.6v7.5h-4.9v4.8h4.9V33.6a35.37,35.37,0,0,1-5,.9V40a26.63,26.63,0,0,0,5-1V49.5a1.69,1.69,0,0,1-1.7,1.7h-2.6V56h4.1a5.12,5.12,0,0,0,5.1-5.1V37.5a21.78,21.78,0,0,0,4.9-2.2V30Zm29.9-4V18.5H150.8V15.4h11a2.26,2.26,0,0,0,2.3-2.3V11.2H150.8v-.9a2,2,0,0,0-2-2h-2.9v2.8H134.8v4.2h11.1v3.1H135.1v4.2h10.8v3.3H135.1v4.2h10.8v3.3H135.1v4.2h10.8V51.5c-4.3,0-5.9-4.7-5.9-4.7a22.18,22.18,0,0,0,1-7.3h-4.6c.2,9.8-5.1,11.5-5.1,11.5v5.2s4.5-1.7,6.5-5.3c0,0,1.7,4.9,9,4.9h16.4a2.22,2.22,0,0,0,2.2-2.2v-2H150.8V46.4h10.5a2.22,2.22,0,0,0,2.2-2.2v-2H150.8V37.7h9a3.54,3.54,0,0,0,3.5-3.5v-4h1.3a2.48,2.48,0,0,0,2.5-2.5V26Zm-4.8,7.5h-7.7V30.2h7.6v3.3Zm0-7.5h-7.7V22.7h7.6V26Z"/><path class="cls-1" d="M216.5,17.9H202.8V13.5h15.8v2.4a2,2,0,0,1-2.1,2"/><path class="cls-1" d="M211.9,17.9c0,11.2-.6,26.8-12.8,33.3v5c17.6-8.7,16.9-28,17.1-38.3"/><path class="cls-1" d="M200.7,17.9c-.1,12.4-.3,28.2,18.4,38.3V51c-13.4-8-14.7-20.3-14.2-33.1"/><path class="cls-1" d="M198.8,31.7h-3.6l-.4-.4s-.3,0,.1-.7a77.81,77.81,0,0,0,7.3-21.9h4c-.1.1-2,12.8-7.4,23"/></svg>