<svg id="dwLogo-en-CN" data-name="dwLogo-en-CN" xmlns="http://www.w3.org/2000/svg" viewBox="0 0 240 70"><defs><style>.cls-1{fill:#00aff0;}</style></defs><title>鼎捷Digiwin</title><path class="cls-1" d="M15,59.73A10.21,10.21,0,0,1,25.21,49.52H42.8a18.16,18.16,0,0,0,0-36.31H25.21A10.21,10.21,0,0,1,15,3H42.8a28.37,28.37,0,0,1,0,56.73Z"/><path class="cls-1" d="M18,31.36a7.31,7.31,0,1,1,7.31,7.32A7.31,7.31,0,0,1,18,31.36"/><path class="cls-1" d="M133.77,22.88h-7.23V21.2h6.14a2.08,2.08,0,0,0,2.08-2.08V4.48H133.4A1.45,1.45,0,0,0,132,5.93V18a.51.51,0,0,1-.52.51h-6.37a1.33,1.33,0,0,0-1.33,1.33V30.94h2.81v-5.6h5.3a.56.56,0,0,1,.56.56V31h2.81V24.33a1.44,1.44,0,0,0-1.44-1.45m-18.41-5.74h13.4A1.11,1.11,0,0,0,129.87,16V3.61H114.25V16a1.11,1.11,0,0,0,1.11,1.11M117.07,5.9h10V7.37h-10Zm0,3.72h10v1.47h-10Zm0,3.57h10v1.47h-10Zm2,5.36h-6.37a.51.51,0,0,1-.52-.51V5.93a1.45,1.45,0,0,0-1.45-1.45h-1.36V19.12a2.08,2.08,0,0,0,2.08,2.08h6.14v1.68h-8.84v1.3a1.16,1.16,0,0,0,1.16,1.16h1.16a9.51,9.51,0,0,1-1.87,5.6h3.22a10.86,10.86,0,0,0,1.56-5.6h3.61v5.6h2.81V19.88a1.34,1.34,0,0,0-1.33-1.33"/><path class="cls-1" d="M208.67,13.94l2.1,2.66a1.4,1.4,0,0,0,1.2.56h2.8l-3.86-4.64h2.19a1.2,1.2,0,0,0,1.2-1.2V10.17h-4.85V7.33h3.15a1.2,1.2,0,0,0,1.2-1.2V4.91h-8.14a6.78,6.78,0,0,0,.26-1.7H203.3a5.18,5.18,0,0,1-3,4.34V10.3a8.22,8.22,0,0,0,4.19-3h2.29v2.84h-6v2.35h5.6c-.58,1.38-2.31,2.9-5.74,3.49v2.62c2-.25,6.11-1.16,8-4.69"/><path class="cls-1" d="M203.21,18.38v11a1.45,1.45,0,0,0,1.46,1.45h18.07a1.45,1.45,0,0,0,1.45-1.45v-11Zm18.35,9.22a.69.69,0,0,1-.68.69H206.53a.68.68,0,0,1-.68-.69V25.87h15.71Zm0-4.31H205.85V21h15.71Z"/><path class="cls-1" d="M215.24,4.58V15.35A1.78,1.78,0,0,0,217,17.12h7a1.73,1.73,0,0,0,1.74-1.73V4.58Zm8,9.32a.63.63,0,0,1-.64.64h-4a.85.85,0,0,1-.86-.86V7.23h5.48Z"/><path class="cls-1" d="M183.33,10.83h1.57a.82.82,0,0,0,.82-.82V8.34h-2.25l1.37-4h-2.07a.82.82,0,0,0-.77.56l-1.18,3.45h-.9V3.84a.84.84,0,0,0-.84-.84h-1.67V8.34h-1L175.1,4.87a.81.81,0,0,0-.76-.54h-2.11l1.47,4h-2.37v2.49h2.92a3.74,3.74,0,0,1-3,3.58v2.5a6.38,6.38,0,0,0,5.38-6.08h.75v6h1.67a.85.85,0,0,0,.84-.84V10.83h.72l1.61,4.95a1.48,1.48,0,0,0,1.38,1h1.69Zm1.85,7.69H179c.29-.62.58-1.29.58-1.29h-2.13a1.19,1.19,0,0,0-1.07.72c-.22.38-.34.57-.34.57h-4.83v.9a1.46,1.46,0,0,0,1.45,1.46H175a35.24,35.24,0,0,1-2.82,3.73.5.5,0,0,0,.14.82l4.5,1.81a13.67,13.67,0,0,1-5.45,1v2.5A16.31,16.31,0,0,0,180,28.6L185.6,31v-2.2a.81.81,0,0,0-.51-.75l-2.83-1.17a11.73,11.73,0,0,0,3.41-7.77.49.49,0,0,0-.49-.57m-5.56,7.24-4-1.53A31.34,31.34,0,0,0,178,20.88h4.48a7.82,7.82,0,0,1-2.88,4.88"/><path class="cls-1" d="M148,15.74A24.22,24.22,0,0,1,145.15,17V10.35h1.55A1.36,1.36,0,0,0,148.06,9V7.53h-2.91V4.45a1.3,1.3,0,0,0-1.3-1.3h-1.51V7.53h-2.85v2.82h2.85v7.5a19.22,19.22,0,0,1-2.91.54V21.6a18.8,18.8,0,0,0,2.91-.57v6.13a1,1,0,0,1-1,1h-1.51V31h2.37a3,3,0,0,0,3-3v-7.8A15,15,0,0,0,148,19Zm17.4-2.33V9.05h-7.25V7.26h6.41a1.36,1.36,0,0,0,1.36-1.36V4.81h-7.77v-.5A1.16,1.16,0,0,0,157,3.15h-1.66V4.81h-6.46V7.26h6.46V9.05h-6.27V11.5h6.27v1.91h-6.27v2.45h6.27v1.91h-6.27v2.45h6.27v8.06c-2.52,0-3.42-2.75-3.42-2.75a13.59,13.59,0,0,0,.55-4.23h-2.66c.11,5.68-2.95,6.69-2.95,6.69v3a8.14,8.14,0,0,0,3.79-3.11s1,2.86,5.22,2.86h9.51a1.26,1.26,0,0,0,1.27-1.26V28.34h-8.5v-3h6.08A1.26,1.26,0,0,0,165.5,24V22.85h-7.35V20.22h5.23a2,2,0,0,0,2-2V15.86h.77a1.45,1.45,0,0,0,1.45-1.45v-1Zm-2.81,4.36h-4.44V15.86h4.44Zm0-4.36h-4.44V11.5h4.44Z"/><path class="cls-1" d="M196.35,8.7h-8l0-2.58h9.18V7.51a1.2,1.2,0,0,1-1.22,1.19"/><path class="cls-1" d="M193.64,8.68c0,6.53-.35,15.61-7.43,19.36v2.9c10.25-5.09,9.83-16.3,9.93-22.29"/><path class="cls-1" d="M187.15,8.68c0,7.22-.18,16.37,10.69,22.3V27.93c-7.82-4.64-8.53-11.83-8.25-19.22"/><path class="cls-1" d="M186.06,16.73h-2.12l-.25-.21s-.18,0,0-.42A43.48,43.48,0,0,0,188,3.37h2.33a48.78,48.78,0,0,1-4.24,13.36"/><path class="cls-1" d="M195.81,41.41H194a3.15,3.15,0,0,0-3,2.34l-2.7,10.17-3.45-11-.23-.74a1.1,1.1,0,0,0-1.07-.8h-1.75a1.12,1.12,0,0,0-1.07.8l-.22.74-3.45,11-2.71-10.17a3.13,3.13,0,0,0-3-2.34h-1.78l4.2,16a2.91,2.91,0,0,0,2.81,2.16h2.2a1.12,1.12,0,0,0,1.07-.79l2.86-9.22,2.86,9.22a1.12,1.12,0,0,0,1.07.79h2.2a2.91,2.91,0,0,0,2.81-2.16l4.2-16Z"/><path class="cls-1" d="M164.74,41.41h-2V59.57h4.09V43.45a2,2,0,0,0-2-2"/><path class="cls-1" d="M200.6,41.41h-2V59.57h4.09V43.45a2,2,0,0,0-2-2"/><path class="cls-1" d="M154.75,51.63v3.86h-4.37a4.92,4.92,0,0,1-4.86-5v0a4.93,4.93,0,0,1,4.86-5h4.81a4.13,4.13,0,0,0,4.1-4.08h-8.91a9.08,9.08,0,0,0,0,18.16h4.37c0,3.54-2.58,5.07-5.7,5.07a13.63,13.63,0,0,1-7.25-1.88v0l0,0v4.29a16.66,16.66,0,0,0,7.31,1.6h0c6.11,0,9.59-3.59,9.73-8.76V47.51a4.12,4.12,0,0,0-4.09,4.12"/><path class="cls-1" d="M136,41.41h-2V59.57H138V43.45a2,2,0,0,0-2-2"/><path class="cls-1" d="M224.19,50.35a9,9,0,0,0-9.07-9,9.23,9.23,0,0,0-5.07,1.53,2,2,0,0,0-2-1.53h-2V57.52h0v2h2a2.05,2.05,0,0,0,2-2V50.14a4.93,4.93,0,0,1,5-4.65h0a4.93,4.93,0,0,1,5,4.86v7.18a2,2,0,0,0,2,2h2Z"/><path class="cls-1" d="M164.74,35.81h0a2,2,0,1,1-2,2,2,2,0,0,1,2-2"/><path class="cls-1" d="M136,35.81h0a2,2,0,1,1-2,2,2,2,0,0,1,2-2"/><path class="cls-1" d="M200.6,35.81h0a2,2,0,1,1-2,2,2,2,0,0,1,2-2"/><path class="cls-1" d="M119,35.71h-9.76a4.47,4.47,0,0,0,4.45,4.45h4.88c5.17,0,9.2,4.56,7.51,10-1,3.25-4.12,5-7.53,5H114l-.55,0V45.5c0-3-1.76-3.94-3.94-3.94v18h9v0h.24A12.08,12.08,0,0,0,130.89,48,11.93,11.93,0,0,0,119,35.71"/></svg>