<svg id="dwLogo-en" data-name="dwLogo-en" xmlns="http://www.w3.org/2000/svg" viewBox="0 0 278 76"><defs><style>.cls-1{fill:#00aff0;}</style></defs><title>Digiwin</title><path class="cls-1" d="M187.61,19.54H184a6.25,6.25,0,0,0-6.12,4.71l-5.52,20.57-6.92-22.17-.5-1.51a2.25,2.25,0,0,0-2.21-1.6h-3.41a2.39,2.39,0,0,0-2.21,1.6l-.5,1.51-6.92,22.17-5.42-20.57a6.24,6.24,0,0,0-6.12-4.71h-3.61l8.53,32.31a5.9,5.9,0,0,0,5.72,4.41h4.51a2.07,2.07,0,0,0,2.11-1.6L161.22,36,167,54.66a2.35,2.35,0,0,0,2.1,1.6h4.52a5.9,5.9,0,0,0,5.72-4.41l8.23-32.31Z"/><path class="cls-1" d="M8,56.26a8.63,8.63,0,0,1,8.63-8.63h15a15.5,15.5,0,0,0,.1-31h-15A8.63,8.63,0,0,1,8,8H31.68a24.08,24.08,0,0,1,0,48.16Z"/><path class="cls-1" d="M124.79,19.54h-4.11V56.26h8.23V23.65A4,4,0,0,0,124.79,19.54Z"/><path class="cls-1" d="M197.24,19.54h-4.12V56.26h8.23V23.65A4,4,0,0,0,197.24,19.54Z"/><path class="cls-1" d="M104.63,40.21V48H95.8A10,10,0,0,1,86,38v-.1a10,10,0,0,1,9.84-10h9.73a11.26,11.26,0,0,0,1.81-.2,8.28,8.28,0,0,0,6.52-8H95.8a18.36,18.36,0,0,0,0,36.72h8.83c0,7.13-5.22,10.24-11.54,10.24-9.13,0-14.65-3.82-14.65-3.82h0v8.63a33.73,33.73,0,0,0,14.75,3.21h0c12.34,0,19.36-7.22,19.66-17.65V31.88A8.28,8.28,0,0,0,104.63,40.21Z"/><path class="cls-1" d="M66.6,19.54H62.48V56.26h8.23V23.65A4,4,0,0,0,66.6,19.54Z"/><path class="cls-1" d="M245,37.6a18.18,18.18,0,0,0-18.36-18.06,17.88,17.88,0,0,0-10.24,3.11,4.17,4.17,0,0,0-4-3.11h-4.11V52.15h0v4.11h4.11a4.06,4.06,0,0,0,4.11-4.11V37.2a10,10,0,0,1,10-9.43h.1a10,10,0,0,1,10,9.83V52.15a4.07,4.07,0,0,0,4.12,4.11h4.11Z"/><path class="cls-1" d="M122.79,8.2h4.11A2.06,2.06,0,0,1,129,10.31v4.11a2.06,2.06,0,0,1-2.11,2.11h-4.11a2.06,2.06,0,0,1-2.11-2.11V10.31A2.12,2.12,0,0,1,122.79,8.2Z"/><path class="cls-1" d="M64.69,8.2h4.12a2.05,2.05,0,0,1,2.1,2.11v4.11a2.05,2.05,0,0,1-2.1,2.11H64.69a2.06,2.06,0,0,1-2.11-2.11V10.31A2.06,2.06,0,0,1,64.69,8.2Z"/><path class="cls-1" d="M195.33,8.2h4.12a2.05,2.05,0,0,1,2.1,2.11v4.11a2.05,2.05,0,0,1-2.1,2.11h-4.12a2.05,2.05,0,0,1-2.1-2.11V10.31A2.05,2.05,0,0,1,195.33,8.2Z"/><circle class="cls-1" cx="16.73" cy="32.08" r="6.22"/></svg>