<svg id="dwLogo-TW" data-name="dwLogo-TW" xmlns="http://www.w3.org/2000/svg" viewBox="0 0 278 64"><defs><style>.cls-1{fill:#00aff0;}</style></defs><title>鼎新</title><path class="cls-1" d="M31.5,8H8a8.6,8.6,0,0,0,8.6,8.6H31.5a15.4,15.4,0,0,1,0,30.8H16.6A8.6,8.6,0,0,0,8,56H31.5a24,24,0,0,0,0-48ZM22.9,32.1a6.2,6.2,0,1,0-6.2,6.2A6.17,6.17,0,0,0,22.9,32.1ZM126.1,16.3h15.2a2,2,0,0,0,2-2V11.9h-9a5,5,0,0,0-4.8-3.7v3.7h-9.2v4.4h5.8ZM82.7,34.6H71.6a.9.9,0,0,1-.9-.9V12.6a2.48,2.48,0,0,0-2.5-2.5H65.8V35.6a3.59,3.59,0,0,0,3.6,3.6H80.1v2.9H64.7v2.3a2,2,0,0,0,2,2h2a16.19,16.19,0,0,1-3.3,9.7H71a18.81,18.81,0,0,0,2.7-9.7H80v9.7h4.9V36.9A2.24,2.24,0,0,0,82.7,34.6Zm-6.5-2.4H99.5a1.9,1.9,0,0,0,1.9-1.9V8.6H74.3V30.2A2,2,0,0,0,76.2,32.2Zm3-19.6H96.6v2.6H79.2Zm0,6.5H96.6v2.6H79.2Zm0,6.2H96.6v2.6H79.2Zm64.2,11.4V34.3h-8.8V29.7h7.8a2,2,0,0,0,2-2V25.3h-5.7l2.4-6.9h-4a1.2,1.2,0,0,0-1.2.9l-2.1,6H130l-2.1-6a1.4,1.4,0,0,0-1.2-.9h-4l2.4,6.9h-6.2v4.4h10.6v4.6h-9.1v4.4h9.1V56.1h5V38.7h6.8A2,2,0,0,0,143.4,36.7Zm84.5,16.9a2.48,2.48,0,0,0,2.5,2.5h31.4a2.48,2.48,0,0,0,2.5-2.5V34.5H227.8V53.6Zm31.9-3.1a1.16,1.16,0,0,1-1.2,1.2h-25a1.16,1.16,0,0,1-1.2-1.2v-3h27.4ZM232.5,39h27.3v3.9H232.5Zm16.3-28.6V29.1a3.12,3.12,0,0,0,3.1,3.1h12.2a3,3,0,0,0,3-3V10.4Zm13.9,16.3a1.11,1.11,0,0,1-1.1,1.1h-6.9a1.54,1.54,0,0,1-1.5-1.5V15.1h9.5Zm-39.2,3.6v4.6c3.5-.4,10.6-2,13.9-8.2l3.7,4.6a2.62,2.62,0,0,0,2.1,1h4.9l-6.7-8.1h3.8a2.05,2.05,0,0,0,2.1-2.1v-2h-8.5V15.2h5.5a2.05,2.05,0,0,0,2.1-2.1V11H232.2a8.61,8.61,0,0,0,.5-2.7h-4.6c0,1.7-1.6,5.4-5.2,7.2v4.8a14,14,0,0,0,7.3-5.2h4V20H223.8v4.1h9.7C232.4,26.7,229.4,29.3,223.5,30.3ZM210.7,44.7c5-9.1,4.8-20.1,4.9-27h.4a2.05,2.05,0,0,0,2.1-2.1V13.2H204.5a41,41,0,0,0,.9-4.8h-4.1a71.85,71.85,0,0,1-6.4,20.1h-8.3V26.7h6.6a2,2,0,0,0,2-2V20.6h.2a1.54,1.54,0,0,0,1.5-1.5V17h-1.7V11.2h-8.6v-.8a2,2,0,0,0-2-2H182v2.8h-8.6V17h-1.9v3.6h1.9v4.1a2,2,0,0,0,2,2H182v1.8h-8.6v6.9a2,2,0,0,0,2,2h6.5l-2,2.5h-8.3v2.2a1.9,1.9,0,0,0,1.9,1.9h3.2l-1.8,2.2a.79.79,0,0,0,.4,1.3l6.1,2.5a31.51,31.51,0,0,1-9.8,1.9v4.2c6.7,0,11.6-1.6,15.2-3.8l10,4.3V52.8a1.3,1.3,0,0,0-.8-1.2l-5.4-2.2a19.58,19.58,0,0,0,5.2-8.3A.8.8,0,0,0,195,40H185l2.1-2.5h6.1a2,2,0,0,0,2-2V31.8h2.7a45.38,45.38,0,0,0,2.1-4.5c.4,6,1.7,12.1,5.4,17.8a19.49,19.49,0,0,1-7.2,6.4v5.1a27.69,27.69,0,0,0,9.9-8,38.54,38.54,0,0,0,10.4,8V51.3A32.34,32.34,0,0,1,210.7,44.7Zm-24-29.9h4.4V17h-4.4Zm0,5.8h4.4v2.3h-4.4Zm-9.1-5.8H182V17h-4.4Zm0,8V20.6H182v2.2Zm0,11.3V31.9H182v2.2Zm12,10a23.06,23.06,0,0,1-3.6,3.4l-5.4-2.2,1-1.3h8Zm1.7-10h-4.6V31.9h4.6Zm16.6,6.5c-3.7-6.8-4.1-14.8-3.8-22.9h7.1C211.2,24.7,211,33.4,207.9,40.6Zm-99.7,1.5H95.7V39.2h10.7a3.59,3.59,0,0,0,3.6-3.6V10.1h-2.4a2.48,2.48,0,0,0-2.5,2.5V33.7a.9.9,0,0,1-.9.9H93.1a2.26,2.26,0,0,0-2.3,2.3V56.1h4.9V46.4h9.2a1,1,0,0,1,1,1v8.8h4.9V44.6A2.7,2.7,0,0,0,108.2,42.1Zm14.2-1.3c0,3.8.1,9.3-3.5,14.4l5.2.1c3.2-3.8,3.3-10.9,3.2-14.4C127.3,40.8,126.6,40.8,122.4,40.8Zm29.1-24,12-.7a2.19,2.19,0,0,0,2-2.2l.2-3.1-17.5,1.1a2.54,2.54,0,0,0-2.4,2.6V38.9a55.87,55.87,0,0,1-1.7,14.9l-2.6-13h-4.9l2.7,13.1h4.9a10.91,10.91,0,0,1-.9,2.1h4.8c1.4-2.5,2.6-8,2.6-17.1V30.1h5.6v26h4.8v-26h2.5a2,2,0,0,0,2-2V25.3h-15V17.9A1,1,0,0,1,151.5,16.8Z"/></svg>