<svg id="dwLogo-en-TW" data-name="dwLogo-en-TW" xmlns="http://www.w3.org/2000/svg" viewBox="0 0 240 70"><defs><style>.cls-1{fill:#00aff0;}</style></defs><title>鼎新Datasys</title><path class="cls-1" d="M217.93,16.82h7a1.73,1.73,0,0,0,1.73-1.74V4.27H216.15V15A1.78,1.78,0,0,0,217.93,16.82Zm.72-9.9h5.49v6.67a.65.65,0,0,1-.64.65h-4a.87.87,0,0,1-.87-.87ZM204.12,29.08a1.45,1.45,0,0,0,1.45,1.46h18.08a1.45,1.45,0,0,0,1.45-1.46v-11h-21Zm18.35-1.79a.69.69,0,0,1-.69.69H207.44a.69.69,0,0,1-.69-.69V25.56h15.72Zm-15.72-6.58h15.72V23H206.75Zm-61.13-13h8.76a1.18,1.18,0,0,0,1.17-1.18V5.12h-5.23A2.89,2.89,0,0,0,147.55,3V5.12h-5.28V7.66h3.35Zm-28.69,9.09h13.4a1.11,1.11,0,0,0,1.11-1.11V3.21H115.82V15.64A1.11,1.11,0,0,0,116.93,16.75Zm1.71-11.24h10V7h-10Zm0,3.72h10V10.7h-10Zm0,3.56h10v1.48h-10ZM144.46,30c1.84-2.17,1.89-6.24,1.84-8.3h-2.81c0,2.17,0,5.34-2,8.27ZM205.41,7h2.29V9.87h-6v2.34h5.59c-.58,1.38-2.3,2.9-5.73,3.49v2.62c2-.24,6.1-1.16,8-4.69l2.11,2.66a1.37,1.37,0,0,0,1.19.56h2.8l-3.86-4.64H214a1.2,1.2,0,0,0,1.2-1.2V9.87h-4.86V7h3.16a1.21,1.21,0,0,0,1.2-1.21V4.61h-8.14a5.75,5.75,0,0,0,.26-1.53h-2.62a5.39,5.39,0,0,1-3,4.16V10A8.28,8.28,0,0,0,205.41,7ZM125.3,19.49V30.55h2.81V25h5.3a.56.56,0,0,1,.56.56v5.07h2.81V23.94a1.44,1.44,0,0,0-1.44-1.45h-7.23V20.81h6.14a2.08,2.08,0,0,0,2.08-2.08V4.09H135a1.45,1.45,0,0,0-1.45,1.45V17.65a.51.51,0,0,1-.52.51h-6.37A1.33,1.33,0,0,0,125.3,19.49ZM32.75,31.56a7.36,7.36,0,1,0-7.36,7.37A7.36,7.36,0,0,0,32.75,31.56Zm160.8,20.69h0l-3.27-1.63h0l-2.94-1.47a.6.6,0,0,1,.27-1.14h4.84a2.79,2.79,0,0,0,2.79-2.78v-1H186.3l-.13,0a4.2,4.2,0,0,0-3.63,4.15v.18a4.16,4.16,0,0,0,2.33,3.52l.22.11,6.1,3a.61.61,0,0,1-.27,1.16h-5.37a2.71,2.71,0,0,0-2.7,2.7v1.07h8.79a4.18,4.18,0,0,0,1.91-7.91Zm-7.28-23.64a.75.75,0,0,0-.46-.7l-3.09-1.24a11.67,11.67,0,0,0,3-4.74.5.5,0,0,0-.48-.65h-5.75l1.19-1.46h3.53a1.17,1.17,0,0,0,1.17-1.18V16.5h1.56c.44-.84.84-1.71,1.2-2.58a20.9,20.9,0,0,0,3.1,10.24,11.67,11.67,0,0,1-4.15,3.7v2.91a16.54,16.54,0,0,0,5.71-4.58,21.84,21.84,0,0,0,6,4.62V27.75A17,17,0,0,1,194.24,24c2.89-5.26,2.74-11.53,2.81-15.53h.2a1.21,1.21,0,0,0,1.23-1.2V5.85h-7.84c.38-1.67.55-2.76.55-2.76h-2.35a43.19,43.19,0,0,1-3.66,11.57h-4.76v-1h3.78a1.17,1.17,0,0,0,1.17-1.17V10.09h.11a.85.85,0,0,0,.85-.85V8h-1V4.7h-5V4.24a1.18,1.18,0,0,0-1.18-1.18h-1.48V4.7h-4.95V8h-1.09v2.08h1.09v2.36A1.17,1.17,0,0,0,174,13.62h3.78v1h-4.95v4A1.17,1.17,0,0,0,174,19.82h3.7l-1.16,1.46h-4.79v1.24a1.1,1.1,0,0,0,1.1,1.1h1.84l-1,1.28a.5.5,0,0,0,.21.77l3.51,1.46a17.3,17.3,0,0,1-5.65,1.07v2.39a16.58,16.58,0,0,0,8.76-2.18l5.79,2.4ZM190,8.44h4.55c0,4-.14,9-1.9,13.16-2.13-3.92-2.34-8.49-2.17-13.15Zm-9.57-1.68H183V8h-2.53Zm0,3.33H183v1.35h-2.53Zm0,6.52h2.65v1.26h-2.65Zm-5.19-9.85h2.53V8h-2.53Zm0,4.59V10.09h2.53v1.26Zm0,6.52V16.61h2.53v1.26Zm4.83,7.73L177,24.36l.6-.74h4.55A14.28,14.28,0,0,1,180.06,25.6Zm-1.44,18.66h-2.25v1.25a7.87,7.87,0,0,0-4.71-1.22A8,8,0,1,0,176.37,59v1.18h3.79V45.8A1.54,1.54,0,0,0,178.62,44.26Zm-2.29,8.27a4.23,4.23,0,1,1-4.5-4.49A4.25,4.25,0,0,1,176.33,52.53Zm-10.72-22V15.54h1.46a1.17,1.17,0,0,0,1.17-1.17V12.78h-8.6c0-2,0-3.34,0-4.23a.63.63,0,0,1,.58-.63l6.87-.41a1.24,1.24,0,0,0,1.14-1.26l.13-1.79-10.08.66a1.5,1.5,0,0,0-1.4,1.48c0,2,0,6.21,0,14a31.61,31.61,0,0,1-1,8.57l-1.51-7.47h-2.84l1.53,7.54h2.8a6.05,6.05,0,0,1-.51,1.22h2.77c.8-1.45,1.5-4.59,1.5-9.86V15.54h3.22V30.48Zm58.76,21.77h0l-3.27-1.63h0l-2.94-1.47a.6.6,0,0,1,.27-1.14h4.84a2.78,2.78,0,0,0,2.78-2.78v-1h-8.93l-.14,0a4.2,4.2,0,0,0-3.63,4.15c0,.06,0,.12,0,.18a4.16,4.16,0,0,0,2.33,3.52l.22.11,6.1,3a.61.61,0,0,1-.27,1.16h-5.38a2.71,2.71,0,0,0-2.69,2.7v1.07h8.79a4.18,4.18,0,0,0,1.91-7.91ZM207.6,46.09l-2.74,8.13-2.66-8.11a2.73,2.73,0,0,0-2.6-1.89h-2l5.26,15.83-3.24,9.63h4l8.54-25.46h-2A2.74,2.74,0,0,0,207.6,46.09Zm-50.13-3.32a1.55,1.55,0,0,0-1.55-1.56h-2.21V44.3h-2.3v3.76h2.3v8.42a3.76,3.76,0,0,0,3.76,3.76H162V56.48h-2.85a1.68,1.68,0,0,1-1.68-1.68V48.06H162V44.3h-4.53ZM111.47,25h1.16a9.51,9.51,0,0,1-1.87,5.6H114a10.86,10.86,0,0,0,1.56-5.6h3.61v5.6H122V19.49a1.33,1.33,0,0,0-1.33-1.33h-6.37a.51.51,0,0,1-.52-.51V5.54a1.45,1.45,0,0,0-1.45-1.45h-1.36V18.73A2.08,2.08,0,0,0,113,20.81h6.14v1.68h-8.84v1.3A1.16,1.16,0,0,0,111.47,25ZM43,3H15A10.28,10.28,0,0,0,25.28,13.28H43a18.29,18.29,0,1,1,0,36.57H25.28A10.28,10.28,0,0,0,15,60.13H43A28.57,28.57,0,1,0,43,3Zm76.54,34.05h-9.22v.33a3.52,3.52,0,0,0,3.5,3.51h5.78a7.69,7.69,0,1,1,0,15.37h-5.45V46.1a3.5,3.5,0,0,0-3.5-3.5h-.33V60.12h9.22a11.55,11.55,0,0,0,0-23.09Zm36-17.71V18h-5.08V15.32H155a1.18,1.18,0,0,0,1.18-1.17V12.78h-3.26l1.4-4H152a.75.75,0,0,0-.71.51L150,12.78h-2.16l-1.22-3.47A.75.75,0,0,0,146,8.8h-2.3l1.39,4h-3.57v2.54h6.11V18h-5.25v2.54h5.25v10h2.89v-10h3.91A1.17,1.17,0,0,0,155.55,19.34Zm-8.14,24.92h-2.25v1.25a7.9,7.9,0,0,0-4.72-1.22A8,8,0,1,0,145.16,59v1.18H149V45.8A1.54,1.54,0,0,0,147.41,44.26Zm-2.29,8.27a4.23,4.23,0,1,1-4.5-4.49A4.26,4.26,0,0,1,145.12,52.53Z"/></svg>